<?xml version="1.0" encoding="UTF-8"?>
<svg id="katman_2" data-name="katman 2" xmlns="http://www.w3.org/2000/svg" xmlns:xlink="http://www.w3.org/1999/xlink" viewBox="0 0 131.2 182.82">
  <defs>
    <style>
      .cls-1 {
        fill: none;
      }

      .cls-2 {
        clip-path: url(#clippath);
      }

      .cls-3 {
        fill: #004763;
      }

      .cls-4 {
        fill: #0069aa;
      }

      .cls-5 {
        fill: #b88f3d;
      }

      .cls-6 {
        fill: #a33a3a;
      }

      .cls-7 {
        filter: url(#drop-shadow-1);
      }

      .cls-8 {
        opacity: .3;
      }
    </style>
    <filter id="drop-shadow-1" filterUnits="userSpaceOnUse">
      <feOffset dx="3" dy="3"/>
      <feGaussianBlur result="blur" stdDeviation="4"/>
      <feFlood flood-color="#000" flood-opacity=".35"/>
      <feComposite in2="blur" operator="in"/>
      <feComposite in="SourceGraphic"/>
    </filter>
    <clipPath id="clippath">
      <rect class="cls-1" width="131.2" height="182.82"/>
    </clipPath>
  </defs>
  <g id="Objects">
    <g class="cls-7">
      <rect class="cls-4" width="131.2" height="182.82"/>
      <g class="cls-2">
        <g class="cls-8">
          <path class="cls-3" d="m23.6,35l-2.04,11.03c-.08.43.32.79.74.68l1.67-.45c.38-.1.75.19.75.58l-.24,11.05c0,.46.48.75.88.53l1.82-1.03c.38-.22.86.05.88.49l.42,9.57c.02.43.47.69.86.5l18.03-9.03c.36-.18.44-.66.16-.94l-6.27-6.33c-.27-.27-.21-.73.12-.93l1.25-.74c.35-.21.39-.7.08-.96l-9.13-7.63c-.3-.25-.28-.71.03-.93l.96-.69c.38-.27.31-.85-.12-1.03l-10.04-4.17c-.35-.14-.74.07-.81.44Z"/>
        </g>
        <g class="cls-8">
          <path class="cls-3" d="m58.96,98.99l-2.04,11.03c-.08.43.32.79.74.68l1.67-.45c.38-.1.75.19.75.58l-.24,11.05c0,.46.48.75.88.53l1.82-1.03c.38-.22.86.05.88.49l.42,9.57c.02.43.47.69.86.5l18.03-9.03c.36-.18.44-.66.16-.94l-6.27-6.33c-.27-.27-.21-.73.12-.93l1.25-.74c.35-.21.39-.7.08-.96l-9.13-7.63c-.3-.25-.28-.71.03-.93l.96-.69c.38-.27.31-.85-.12-1.03l-10.03-4.17c-.35-.14-.74.07-.81.44Z"/>
        </g>
        <g class="cls-8">
          <path class="cls-3" d="m59.71,154.26l-2.04,11.03c-.08.43.32.79.74.68l1.67-.45c.38-.1.75.19.75.58l-.24,11.05c0,.46.48.75.88.53l1.82-1.03c.38-.22.86.05.88.49l.42,9.57c.02.43.47.69.86.5l18.03-9.03c.36-.18.44-.66.16-.94l-6.27-6.33c-.27-.27-.21-.73.12-.93l1.25-.74c.35-.21.39-.7.08-.96l-9.13-7.63c-.3-.25-.28-.71.03-.93l.96-.69c.38-.27.31-.85-.12-1.03l-10.03-4.17c-.35-.14-.74.07-.81.44Z"/>
        </g>
        <g class="cls-8">
          <path class="cls-3" d="m2.04-11.25L0-.22C-.07.21.33.57.75.46L2.42,0c.38-.1.75.19.75.58l-.24,11.05c0,.46.48.75.88.53l1.82-1.03c.38-.22.86.05.88.49l.42,9.57c.02.43.47.7.86.5l18.03-9.03c.36-.18.44-.66.16-.95l-6.27-6.33c-.27-.27-.21-.73.12-.92l1.25-.74c.35-.21.39-.7.08-.96l-9.13-7.63c-.29-.25-.28-.71.03-.93l.96-.69c.38-.27.31-.85-.12-1.03L2.85-11.69c-.35-.14-.74.07-.81.44Z"/>
        </g>
        <g class="cls-8">
          <path class="cls-3" d="m68.61.48l-2.04,11.03c-.08.43.32.79.74.68l1.67-.45c.38-.1.75.19.75.58l-.24,11.05c-.01.46.48.75.88.53l1.82-1.03c.38-.22.86.05.88.49l.42,9.57c.02.43.47.7.85.5l18.03-9.03c.36-.18.44-.66.16-.95l-6.27-6.33c-.27-.27-.21-.73.12-.93l1.25-.74c.35-.21.39-.7.08-.96l-9.13-7.63c-.3-.25-.28-.71.03-.93l.96-.69c.37-.27.31-.85-.12-1.03L69.42.04c-.35-.14-.74.07-.81.44Z"/>
        </g>
        <g class="cls-8">
          <path class="cls-3" d="m2.04,87.59L0,98.63c-.08.43.32.79.74.68l1.67-.45c.38-.1.75.19.75.58l-.24,11.05c0,.46.48.75.88.53l1.82-1.03c.38-.22.86.05.88.49l.42,9.57c.02.43.47.69.86.5l18.03-9.03c.36-.18.44-.66.16-.94l-6.27-6.33c-.27-.27-.21-.73.12-.93l1.25-.74c.35-.21.39-.7.08-.96l-9.13-7.63c-.29-.25-.28-.71.03-.93l.96-.69c.38-.27.31-.85-.12-1.03l-10.04-4.17c-.35-.14-.74.07-.81.44Z"/>
        </g>
        <g class="cls-8">
          <path class="cls-3" d="m-5.21,137.68l-2.04,11.03c-.08.43.32.79.74.68l1.67-.45c.38-.1.75.19.75.58l-.24,11.05c0,.46.48.75.88.53l1.82-1.03c.38-.22.86.05.88.49l.42,9.57c.02.43.47.7.86.5l18.03-9.03c.36-.18.44-.66.16-.94l-6.27-6.33c-.27-.27-.21-.73.12-.93l1.25-.74c.35-.21.39-.7.08-.96l-9.13-7.62c-.3-.25-.28-.71.03-.93l.96-.69c.38-.27.31-.85-.12-1.03l-10.03-4.17c-.35-.14-.74.07-.81.44Z"/>
        </g>
        <g class="cls-8">
          <path class="cls-3" d="m114.47,142.65l-2.04,11.03c-.08.43.32.79.74.68l1.67-.45c.38-.1.75.19.75.58l-.24,11.05c-.01.46.48.75.88.53l1.82-1.03c.38-.22.86.05.88.49l.42,9.57c.02.43.47.69.86.5l18.03-9.03c.36-.18.44-.66.15-.95l-6.27-6.33c-.27-.27-.21-.73.12-.93l1.25-.74c.35-.21.39-.7.08-.96l-9.13-7.63c-.3-.25-.28-.71.03-.93l.96-.69c.37-.27.31-.85-.12-1.03l-10.03-4.17c-.35-.14-.74.07-.81.44Z"/>
        </g>
        <g class="cls-8">
          <path class="cls-3" d="m117.44,68.6l-2.04,11.03c-.08.43.32.79.74.68l1.67-.45c.38-.1.75.19.75.58l-.24,11.05c0,.46.48.75.88.53l1.82-1.03c.38-.22.86.05.88.49l.42,9.57c.02.43.47.69.86.5l18.03-9.03c.36-.18.44-.66.16-.94l-6.27-6.33c-.27-.27-.21-.73.12-.92l1.25-.74c.35-.21.39-.7.08-.96l-9.13-7.63c-.3-.25-.28-.71.03-.93l.96-.69c.37-.27.31-.85-.12-1.03l-10.03-4.17c-.35-.14-.74.07-.81.44Z"/>
          <path class="cls-3" d="m72.45,48.07l-2.04,11.03c-.08.43.32.79.74.68l1.67-.45c.38-.1.75.19.75.58l-.24,11.05c0,.46.48.75.88.53l1.82-1.03c.38-.22.86.05.88.49l.42,9.57c.02.43.47.69.86.5l18.03-9.03c.36-.18.44-.66.16-.95l-6.27-6.33c-.27-.27-.21-.73.12-.93l1.25-.74c.35-.21.39-.7.08-.96l-9.13-7.63c-.3-.25-.28-.71.03-.93l.96-.7c.38-.27.31-.85-.12-1.03l-10.03-4.17c-.35-.15-.74.07-.81.44Z"/>
        </g>
        <g class="cls-8">
          <path class="cls-3" d="m114.61,5.5l-2.04,11.03c-.08.43.32.79.74.68l1.67-.45c.38-.1.75.19.75.58l-.24,11.05c0,.46.48.75.88.53l1.82-1.03c.38-.22.86.05.88.49l.42,9.57c.02.43.47.69.86.5l18.03-9.03c.36-.18.44-.66.16-.95l-6.27-6.33c-.27-.27-.21-.73.12-.93l1.25-.74c.35-.21.39-.7.08-.96l-9.13-7.63c-.3-.25-.28-.71.03-.93l.96-.7c.37-.27.31-.85-.12-1.03l-10.03-4.17c-.35-.15-.74.07-.81.44Z"/>
        </g>
        <path class="cls-5" d="m118.38,47.69l-.55,2.97c-.02.11.08.21.2.18l.45-.12c.1-.03.2.05.2.16l-.06,2.97c0,.12.13.2.24.14l.49-.28c.1-.06.23.01.24.13l.11,2.58c0,.11.13.19.23.13l4.85-2.43c.1-.05.12-.18.04-.25l-1.69-1.7c-.07-.07-.06-.2.03-.25l.34-.2c.09-.06.11-.19.02-.26l-2.46-2.05c-.08-.07-.08-.19,0-.25l.26-.19c.1-.07.08-.23-.03-.28l-2.7-1.12c-.09-.04-.2.02-.22.12Z"/>
        <path class="cls-5" d="m-2.97,34.82l-.55,2.97c-.02.12.08.21.2.18l.45-.12c.1-.03.2.05.2.16l-.07,2.97c0,.12.13.2.24.14l.49-.28c.1-.06.23.01.24.13l.11,2.58c0,.11.13.19.23.13l4.85-2.43c.1-.05.12-.18.04-.25l-1.69-1.7c-.07-.07-.06-.2.03-.25l.34-.2c.09-.06.11-.19.02-.26l-2.46-2.05c-.08-.07-.08-.19,0-.25l.26-.19c.1-.07.08-.23-.03-.28l-2.7-1.12c-.09-.04-.2.02-.22.12Z"/>
        <path class="cls-5" d="m23.53,180.59l-.55,2.97c-.02.12.08.21.2.18l.45-.12c.1-.03.2.05.2.16l-.07,2.97c0,.12.13.2.24.14l.49-.28c.1-.06.23.01.24.13l.11,2.57c0,.12.13.19.23.14l4.85-2.43c.1-.05.12-.18.04-.25l-1.69-1.7c-.07-.07-.06-.2.03-.25l.34-.2c.09-.05.11-.19.02-.26l-2.46-2.05c-.08-.07-.08-.19,0-.25l.26-.19c.1-.07.08-.23-.03-.28l-2.7-1.12c-.09-.04-.2.02-.22.12Z"/>
        <path class="cls-5" d="m48.48,78.37l-.55,2.97c-.02.12.09.21.2.18l.45-.12c.1-.03.2.05.2.16l-.07,2.97c0,.12.13.2.24.14l.49-.28c.1-.06.23.01.24.13l.11,2.58c0,.12.13.19.23.13l4.85-2.43c.1-.05.12-.18.04-.25l-1.69-1.7c-.07-.07-.06-.2.03-.25l.34-.2c.09-.06.11-.19.02-.26l-2.46-2.05c-.08-.07-.08-.19,0-.25l.26-.19c.1-.07.08-.23-.03-.28l-2.7-1.12c-.09-.04-.2.02-.22.12Z"/>
        <path class="cls-6" d="m11.52,68.59l-.98,5.31c-.04.2.15.38.35.33l.81-.22c.18-.05.36.09.36.28l-.12,5.32c0,.22.23.36.42.25l.88-.5c.18-.1.42.02.43.24l.2,4.61c0,.21.23.33.41.24l8.68-4.35c.17-.09.21-.32.08-.46l-3.02-3.05c-.13-.13-.1-.35.06-.44l.6-.36c.17-.1.19-.34.04-.46l-4.4-3.67c-.14-.12-.13-.34.02-.45l.46-.33c.18-.13.15-.41-.06-.49l-4.83-2.01c-.17-.07-.36.03-.39.21Z"/>
        <path class="cls-6" d="m33.58,139.47l-1.36,7.4c-.05.29.21.53.49.45l1.12-.3c.25-.07.51.12.5.39l-.16,7.41c0,.3.33.51.59.35l1.22-.69c.26-.15.58.03.59.33l.28,6.42c.01.29.32.46.57.34l12.09-6.06c.24-.12.29-.44.1-.63l-4.21-4.24c-.18-.19-.14-.49.08-.62l.84-.5c.24-.14.26-.47.05-.64l-6.12-5.12c-.2-.17-.19-.47.02-.63l.64-.46c.25-.18.21-.57-.08-.69l-6.73-2.8c-.24-.1-.5.04-.54.29Z"/>
        <path class="cls-5" d="m97.62,163.31l-.49,2.68c-.02.1.08.19.18.17l.41-.11c.09-.03.18.05.18.14l-.06,2.68c0,.11.12.18.21.13l.44-.25c.09-.05.21,0,.21.12l.1,2.32c0,.1.11.17.21.12l4.38-2.19c.09-.04.11-.16.04-.23l-1.52-1.54c-.07-.07-.05-.18.03-.22l.3-.18c.08-.05.09-.17.02-.23l-2.22-1.85c-.07-.06-.07-.17,0-.23l.23-.17c.09-.07.07-.21-.03-.25l-2.44-1.01c-.08-.04-.18.02-.2.11Z"/>
        <path class="cls-6" d="m96.28,88.41l-1.12,6.09c-.04.24.17.44.41.38l.92-.25c.21-.06.42.1.41.32l-.13,6.11c0,.25.27.42.49.29l1-.57c.21-.12.48.03.49.27l.23,5.29c.01.24.26.38.47.28l9.96-4.99c.2-.1.24-.36.09-.52l-3.47-3.5c-.15-.15-.12-.4.07-.51l.69-.41c.19-.12.22-.39.04-.53l-5.05-4.22c-.16-.14-.15-.39.02-.52l.53-.38c.21-.15.17-.47-.07-.57l-5.54-2.3c-.19-.08-.41.04-.45.24Z"/>
        <path class="cls-5" d="m44.07,116.74l-.49,2.68c-.02.1.08.19.18.16l.41-.11c.09-.02.18.05.18.14l-.06,2.68c0,.11.12.18.21.13l.44-.25c.09-.05.21.01.21.12l.1,2.32c0,.1.11.17.21.12l4.38-2.19c.09-.04.11-.16.04-.23l-1.52-1.54c-.07-.07-.05-.18.03-.22l.3-.18c.08-.05.09-.17.02-.23l-2.22-1.85c-.07-.06-.07-.17,0-.23l.23-.17c.09-.07.07-.21-.03-.25l-2.44-1.01c-.08-.04-.18.02-.2.11Z"/>
        <path class="cls-5" d="m89.37,133.9l-.27,1.54c-.01.06.04.11.1.09l.22-.06c.05-.01.1.03.1.08l-.03,1.54c0,.06.06.11.12.07l.24-.14c.05-.03.12,0,.12.07l.06,1.34c0,.06.06.1.11.07l2.41-1.26s.06-.09.02-.13l-.84-.88s-.03-.1.02-.13l.17-.1s.05-.1.01-.13l-1.22-1.07s-.04-.1,0-.13l.13-.1c.05-.04.04-.12-.02-.14l-1.34-.58s-.1,0-.11.06Z"/>
        <path class="cls-5" d="m125.96,125.04l-.27,1.54c-.01.06.04.11.1.09l.22-.06c.05-.01.1.03.1.08l-.03,1.54c0,.06.07.1.12.07l.24-.14c.05-.03.12,0,.12.07l.06,1.34c0,.06.06.1.11.07l2.42-1.26s.06-.09.02-.13l-.84-.88s-.03-.1.02-.13l.17-.1s.05-.1.01-.13l-1.22-1.07s-.04-.1,0-.13l.13-.1s.04-.12-.02-.14l-1.34-.58s-.1,0-.11.06Z"/>
        <path class="cls-6" d="m33.37,10.43l-.27,1.54c-.01.06.04.11.1.1l.22-.06c.05-.01.1.03.1.08l-.03,1.54c0,.07.06.11.12.07l.24-.14c.05-.03.12,0,.12.07l.06,1.34c0,.06.06.1.11.07l2.42-1.26s.06-.09.02-.13l-.84-.88s-.03-.1.02-.13l.17-.1s.05-.1.01-.13l-1.22-1.07s-.04-.1,0-.13l.13-.1s.04-.12-.02-.14l-1.34-.58s-.1,0-.11.06Z"/>
        <path class="cls-5" d="m98.01,33.93l-.27,1.54c0,.06.04.11.1.1l.22-.06c.05-.01.1.03.1.08l-.03,1.54c0,.07.06.11.12.07l.24-.14c.05-.03.12,0,.12.07l.06,1.34c0,.06.06.1.11.07l2.42-1.26s.06-.09.02-.13l-.84-.88s-.03-.1.02-.13l.17-.1s.05-.1.01-.13l-1.22-1.07s-.04-.1,0-.13l.13-.1s.04-.12-.02-.14l-1.34-.58s-.1,0-.11.06Z"/>
        <path class="cls-5" d="m48.75-2.27l-.27,1.54c-.01.06.04.11.1.09l.22-.06c.05-.01.1.03.1.08l-.03,1.54c0,.06.06.11.12.07l.24-.14c.05-.03.12,0,.12.07l.06,1.34c0,.06.06.1.11.07l2.42-1.26s.06-.09.02-.13l-.84-.88s-.03-.1.02-.13l.17-.1s.05-.1,0-.13l-1.22-1.07s-.04-.1,0-.13l.13-.1s.04-.12-.02-.14l-1.34-.58s-.1,0-.11.06Z"/>
        <path class="cls-5" d="m48.28,30.94l-.55,2.97c-.02.11.08.21.2.18l.45-.12c.1-.03.2.05.2.16l-.06,2.97c0,.12.13.2.24.14l.49-.28c.1-.06.23.01.24.13l.11,2.58c0,.12.13.19.23.14l4.85-2.43c.1-.05.12-.18.04-.25l-1.69-1.7c-.07-.07-.06-.2.03-.25l.34-.2c.09-.06.11-.19.02-.26l-2.46-2.05c-.08-.07-.08-.19,0-.25l.26-.19c.1-.07.08-.23-.03-.28l-2.7-1.12c-.09-.04-.2.02-.22.12Z"/>
      </g>
    </g>
  </g>
</svg>