<?xml version="1.0" encoding="UTF-8"?>
<svg xmlns="http://www.w3.org/2000/svg" xmlns:xlink="http://www.w3.org/1999/xlink" viewBox="0 0 334.92 426.89">
  <defs>
    <style>
      .cls-1 {
        fill: none;
      }

      .cls-2 {
        clip-path: url(#clippath);
      }

      .cls-3 {
        opacity: .1;
      }

      .cls-4 {
        fill: #f4c01e;
      }

      .cls-5 {
        fill: #6a3de8;
      }

      .cls-6 {
        fill: #f1d727;
      }

      .cls-7 {
        fill: #ff532f;
      }

      .cls-8, .cls-9 {
        fill: #e70b2a;
      }

      .cls-10 {
        fill: #ffb000;
      }

      .cls-11 {
        fill: #f49000;
      }

      .cls-12, .cls-13, .cls-14 {
        fill: #fff;
      }

      .cls-15 {
        fill: #f2bc37;
      }

      .cls-16, .cls-17 {
        fill: #ffd203;
      }

      .cls-18 {
        fill: #ef3f22;
      }

      .cls-19 {
        fill: #e4e5dc;
      }

      .cls-20 {
        fill: #82564d;
      }

      .cls-21 {
        fill: #97736b;
      }

      .cls-22 {
        fill: #a2cc3b;
      }

      .cls-23 {
        fill: #8daf22;
      }

      .cls-24 {
        fill: #2f7240;
      }

      .cls-25 {
        fill: #cecece;
      }

      .cls-26 {
        fill: #b0d654;
      }

      .cls-27 {
        fill: #bce36b;
      }

      .cls-28 {
        fill: #ccc;
      }

      .cls-29 {
        fill: #ce1406;
      }

      .cls-30 {
        fill: #cfcfcf;
      }

      .cls-31 {
        fill: #d81616;
      }

      .cls-32 {
        fill: #db2b14;
      }

      .cls-33 {
        fill: #a8a8a8;
      }

      .cls-34 {
        fill: #453939;
      }

      .cls-35 {
        fill: #715fc9;
      }

      .cls-36 {
        fill: #8678ef;
      }

      .cls-37, .cls-38 {
        fill: #398a4e;
      }

      .cls-39 {
        fill: #462e9e;
      }

      .cls-40 {
        fill: #5022b2;
      }

      .cls-9, .cls-41, .cls-17, .cls-38 {
        mix-blend-mode: multiply;
      }

      .cls-42 {
        clip-path: url(#clippath-1);
      }

      .cls-17 {
        opacity: .57;
      }

      .cls-38 {
        opacity: .54;
      }

      .cls-43 {
        fill: #ea6a00;
      }

      .cls-43, .cls-44, .cls-45, .cls-46 {
        opacity: .15;
      }

      .cls-44, .cls-47 {
        fill: #060116;
      }

      .cls-45 {
        fill: #485900;
      }

      .cls-48 {
        isolation: isolate;
      }

      .cls-13 {
        opacity: .75;
      }

      .cls-49 {
        fill: #db4e00;
      }

      .cls-49, .cls-14, .cls-47 {
        opacity: .25;
      }
    </style>
    <clipPath id="clippath">
      <polygon class="cls-40" points="216.5 393.9 258.27 386.16 258.27 399.24 216.5 408.87 216.5 393.9"/>
    </clipPath>
    <clipPath id="clippath-1">
      <polygon class="cls-1" points="201.63 387.14 201.63 398.51 216.5 408.87 216.5 393.9 201.63 387.14"/>
    </clipPath>
  </defs>
  <g class="cls-48">
    <g id="OBJECTS">
      <path class="cls-12" d="m82.87,315.41h.23c.2,0,.39-.03.57-.13.18-.06.34-.16.48-.31.14-.13.25-.29.31-.48.09-.18.14-.37.13-.57-.02-.13-.04-.26-.05-.39-.07-.25-.2-.47-.38-.65-.1-.08-.2-.15-.3-.23-.23-.13-.48-.2-.75-.2h-.23c-.2,0-.39.03-.57.13-.18.06-.34.16-.48.31-.14.13-.25.29-.31.48-.09.18-.14.37-.13.57.02.13.04.26.05.39.07.25.2.47.38.65.1.08.2.15.3.23.23.13.48.2.75.2h0Z"/>
      <g>
        <ellipse class="cls-19" cx="141.96" cy="403.05" rx="141.96" ry="13.16"/>
        <g>
          <g>
            <path class="cls-20" d="m196.74,387.11c.63,4.33,1.12,9.07-1.18,12.8-3.08,5.01-9.79,6.14-15.66,6.35-9.81.35-19.63-.5-29.39-1.55-4.36-.47-9.19-1.24-11.9-4.69-2.43-3.1-2.38-7.42-2.09-11.35.77-10.67,2.4-21.27,4.86-31.68.95-4,2.26-8.33,5.68-10.61,1.86-1.24,4.12-1.7,6.32-2.08,9.61-1.67,28.82-6.43,35.18,3.9,6.16,10.01,6.51,27.56,8.18,38.91Z"/>
            <path class="cls-21" d="m182.07,344.71c-1.79,14.82,9.2,27.48,8.88,42.2-.13,4.88-1.59,9.97-5.03,13.56-.21.21-.57-.08-.38-.33,9.12-12.6,1.28-27.98-2.43-41.1-1.29-4.65-2.08-9.53-1.54-14.39.02-.14.14-.24.28-.22.14.02.24.14.22.28h0Z"/>
            <path class="cls-21" d="m174.22,345.87c-7.37,12.5-8.12,28.23-3.42,41.79,1.53,4.54,3.7,8.83,6.29,12.89.07.12.04.27-.08.35-.11.07-.25.05-.33-.05-9.29-11.47-11.55-27.57-8.21-41.69,1.09-4.74,2.9-9.31,5.31-13.54.16-.27.61-.04.43.25h0Z"/>
            <path class="cls-21" d="m175.57,359.64c-.62,5.32-.9,10.74-.08,16.04.77,5.31,2.48,10.34,4.33,15.36.11.27-.3.48-.45.22-5.79-9.45-5.44-21.05-4.3-31.67.03-.32.54-.28.5.05h0Z"/>
            <path class="cls-21" d="m180.07,368.57c2.74,5.68,5.18,12.32,3.53,18.66-.07.27-.49.22-.5-.06-.17-6.27-.2-12.79-3.48-18.37-.16-.28.3-.54.44-.24h0Z"/>
            <path class="cls-21" d="m153.87,397.7c8.05-7.98,6.63-18.06,2.7-27.69-1.76-4.66-3.7-9.42-4.08-14.57-.36-5.05,1.11-10.73,5.32-13.87.24-.17.55.17.32.39-3.6,3.41-4.8,8.59-4.47,13.41.71,9.93,7.18,18.93,6.64,29.13-.24,5.08-2.5,9.99-6.08,13.57-.23.22-.59-.12-.35-.36h0Z"/>
            <path class="cls-21" d="m148.44,347c-7.46,21.92,12.1,24.01-2.62,48.5-.15.25-.57.06-.45-.22,3.25-7.51,6.89-15.57,3.94-23.75-1.24-3.98-2.78-8.01-3.01-12.23-.35-4.22.26-8.48,1.66-12.47.11-.3.59-.14.47.17h0Z"/>
            <path class="cls-21" d="m142.72,372.47c-1.71,5.34-1.95,11.01.11,16.26.1.25-.26.47-.43.26-3.89-4.77-1.37-11.37-.17-16.65.07-.32.58-.19.49.13h0Z"/>
            <path class="cls-21" d="m164.23,346.79c-4.48,12.43-1.36,25.63-.35,38.38.03.29-.43.37-.5.08-2.79-12.61-3.59-26.17.37-38.61.1-.31.59-.16.48.16h0Z"/>
            <path class="cls-21" d="m164.92,392.33c-.4,2.66,1.16,4.98,1.16,7.59-.43,1.01-1.35-1.26-1.39-1.64-.45-1.95-.23-4-.28-5.97,0-.34.54-.32.5.02h0Z"/>
          </g>
          <path class="cls-37" d="m175.39,94.76c9.55,18.29,22.68,34.7,38.42,48.04.53.45,1.12.99,1.13,1.69,0,.6-.41,1.11-.81,1.55-4,4.38-8.98,7.86-14.46,10.13,14.06,25,31.21,49.74,52.11,69.39-6.98,6.89-15.27,12.43-24.3,16.25,20.11,22.73,41.24,44.18,64.2,64.02.97.84,2.03,1.88,1.92,3.15-.07.81-.62,1.5-1.15,2.12-4.58,5.33-9.97,9.96-15.94,13.68,0,0-108.01,61.68-216.01,0-6.1-3.49-11.36-8.34-15.94-13.68-.53-.62-1.08-1.31-1.15-2.12-.11-1.28.95-2.32,1.92-3.15,22.96-19.84,44.09-41.29,64.2-64.02-9.03-3.81-17.33-9.36-24.3-16.25,20.9-19.65,38.05-44.39,52.11-69.39-5.48-2.27-10.45-5.76-14.46-10.13-.4-.44-.82-.95-.81-1.55.01-.7.59-1.24,1.13-1.69,15.75-13.33,28.87-29.75,38.42-48.04,0,0,4.63-8.85,6.88-14.48l6.88,14.48Z"/>
          <path class="cls-38" d="m195.88,157.54s-26.4,6.88-53.89,0c0,0,22.84,20.18,53.89,0Z"/>
          <path class="cls-38" d="m224.36,242.93s-60.41,23.24-110.5,0c0,0,46.82,43.72,110.5,0Z"/>
          <path class="cls-12" d="m200.62,137.26c-5.31,3.87-13.51,2.61-17.45-2.73-1.01-1.34-1.78-3.21-1.02-4.9,1.77-3.64,6.59-2.89,8.83-.23,3.49,3.71,3.34,9.58,1.04,13.85-3.12,5.89-9.95,8.49-16.23,9.09-6.31.58-13.2-.25-18.28-4.41-4.86-4.07-8.06-11.49-5.22-17.57,1.17-2.29,3.73-3.93,6.36-3.66,2.76.23,4.58,3,4.65,5.54.53,10.26-17.05,12.22-23.73,7.96-1.38-.87-2.57-2.1-3.31-3.58l.77-.39c3.15,5.61,10.77,5.56,16.34,4.38,4.26-.83,9.11-3.43,8.73-8.3-.07-2.97-2.73-5.3-5.61-4.12-7.41,3.32-3.23,14.91,1.88,18.69,10.66,8.56,36.9,4.52,33.82-12.86-.67-2.7-2.83-5.54-5.73-5.79-1.33-.11-2.78.66-3.31,1.84-.56,1.18.03,2.66.89,3.83,3.45,4.9,11.17,6.26,16.12,2.72l.47.64h0Z"/>
          <path class="cls-12" d="m222.41,203.37c-6.95,5.23-18.57,2.88-22.31-5.16-1.37-2.84,1.53-6.42,4.29-3.99,7.49,5.98,4.81,17.22-1.86,22.72-3.76,3.21-8.5,5.01-13.3,5.78-2.4.38-4.9.52-7.36.01-8.75-2.06-13.39-11.76-13.22-20.17.09-1.26.24-2.69.98-3.76,1.3-1.87,4.29-1.83,5.6-.01,2.5,4.49-1.78,12.1-5.14,15.26-7.66,7.17-20.36,3.03-26.27-4.47-3.03-3.78-5.26-9.08-3.45-13.87.5-1.22.98-2.46,2.2-3.21,2.95-1.43,4.92,2.52,4.77,4.96.19,6.34-4.71,11.9-10.47,13.99-9.66,3.49-19.97-3.43-24.18-12.02,0,0,.66-.33.66-.33,3.22,6.22,9.23,11.38,16.32,12.22,7.5,1.05,15.51-4.53,16.58-12.12.15-1.65.19-3.46-.8-4.86-.53-.82-1.45-1.46-2.37-.95-2.46,2.13-2.79,6.37-1.74,9.4,2.11,6.72,8.24,11.84,15.02,13.38,4.47,1.03,9.58.35,12.94-2.97,3.17-3.19,5.69-7.73,5.45-12.33.03-2.61-3.74-3.15-4.51-.76,0,0-.22.8-.22.8-1.15,8.32,3.45,18.64,12.09,20.75,6.85,1.11,14.44-1.16,19.78-5.51,5.16-4.33,8.35-12.66,4.22-18.67-.91-1.19-2.07-2.94-3.62-3.17-1.65.13-2.19,2.13-1.55,3.55,1.38,3.17,4.45,5.5,7.68,6.64,4.41,1.54,9.59,1.09,13.41-1.71l.41.54h0Z"/>
          <path class="cls-12" d="m256.04,283.56c-4.98,2.42-10.33,4.97-16.04,4.41-4.26-.47-8.38-3.23-9.94-7.29-.56-1.48-.66-3.14-.25-4.68h.36c5.6.46,7.58,7.23,7,11.97-.76,8.36-6.53,15.84-14.05,19.37-12.66,6.2-28.75.48-31.89-13.94-.59-3.29-.86-7.1,1.46-9.85,1.19-1.58,3.89-1.76,5.05.04,1.39,2.42.46,5.32-.86,7.53-2.86,5.08-7.4,9.18-12.65,11.69-9.01,4.54-20.35,3.46-28.47-2.5-4.63-3.26-11.1-10.46-10.34-16.51.58-3.31,4.35-4.04,6.61-1.82,3.39,3.01,3.08,8.32,1.47,12.06-2.7,6.35-9.25,9.83-15.52,11.72-9.46,2.84-20.29,2.52-28.84-2.86-7-4.42-12.21-12.13-12.46-20.56-.22-3.27.96-7.67,4.69-8.38,1.77-.41,3.97.35,4.63,2.17,1.06,3.51-.59,7.07-3.06,9.32-5.01,4.62-12.74,5.38-18.83,2.59-3.03-1.37-5.74-3.77-7-6.93l.68-.28c1.2,2.95,3.74,5.2,6.64,6.49,6.97,3.25,17.38,1.27,20.49-6.37.64-1.91,1.03-4.95-1.22-5.89-2.12-.84-4.57.56-5.33,2.65-2.82,9.34,3.54,19.4,11.33,24.31,5.44,3.44,12.06,4.73,18.47,4.38,9.05-.7,20.27-3.89,24.32-12.81,1.19-2.8,1.58-6.24.2-9.02-1.29-2.67-5.21-4.31-6.13-.57-.47,2.96,1.4,5.97,3.13,8.57,7.29,10.69,22.38,15.17,34.06,9.19,5.43-2.56,10.02-6.91,12.77-12.26,3.72-8.96-6.78-8.53-4.25,3.65,5.52,22.3,36.23,19.43,42.99-.62,1.45-4.4,1.81-9.82-1.24-13.61-.96-1.22-2.37-2.01-3.88-2.08l.44-.34c-1.14,5.47,4.44,10.17,9.51,10.68,2.7.29,5.44-.19,8.05-1.03,2.62-.84,5.12-2.02,7.62-3.22l.3.61h0Z"/>
          <g>
            <path class="cls-16" d="m136.41,216.92c-2.4,5.62-9.04,7.31-14.66,4.92-5.62-2.4-8.23-8.89-5.84-14.52,2.4-5.62,8.89-8.23,14.51-5.84,5.62,2.4,8.38,9.82,5.99,15.44Z"/>
            <path class="cls-17" d="m126.45,204.49c.09,1.04-.65,1.94-1.2,2.83-.74,1.18-1.19,2.54-1.32,3.93-.11,1.25.06,2.58.84,3.57.75.96,1.94,1.45,2.89,2.21.95.76,1.68,2.13,1.06,3.17-.43.72-1.34,1-2.18,1.07-2.83.25-5.7-1.15-7.43-3.41-1.73-2.26-2.36-5.27-1.92-8.08.28-1.79.98-3.55,2.19-4.9,1.24-1.39,6.75-4.14,7.09-.4Z"/>
            <path class="cls-13" d="m134.4,206.86c.67,1.21.99,2.59,1.13,3.97.1,1.02.1,2.07-.24,3.04-.23.64-.68,1.29-1.35,1.39-.85.12-1.57-.7-1.81-1.53-.45-1.52.02-3.32-.86-4.64-.34-.52-.86-.89-1.26-1.37-1.03-1.22-.97-3.5.99-3.67,1.39-.13,2.82,1.74,3.41,2.81Z"/>
          </g>
          <g>
            <circle class="cls-8" cx="192.44" cy="218.2" r="10.68" transform="translate(-83.25 125.25) rotate(-29.96)"/>
            <path class="cls-9" d="m195.16,211.82c-.26.97-1.23,1.54-2.03,2.16-1.06.83-1.93,1.91-2.51,3.12-.52,1.09-.8,2.36-.43,3.51.36,1.12,1.27,1.96,1.88,2.97.6,1.01.81,2.48-.1,3.23-.63.51-1.55.46-2.33.25-2.65-.71-4.78-2.95-5.6-5.57-.82-2.62-.38-5.56.95-7.96.85-1.53,2.07-2.88,3.62-3.7,1.59-.84,7.5-1.5,6.56,2Z"/>
            <path class="cls-13" d="m201.57,216.62c.2,1.32.03,2.68-.3,3.97-.25.96-.6,1.91-1.23,2.67-.42.51-1.05.94-1.69.81-.82-.17-1.19-1.16-1.13-1.99.1-1.53,1.13-3,.77-4.49-.14-.58-.48-1.09-.69-1.66-.52-1.44.28-3.49,2.12-3,1.3.35,1.98,2.52,2.15,3.68Z"/>
          </g>
          <g>
            <path class="cls-8" d="m175.82,118.68c-3.49,3.7-9.32,3.88-13.02.39-3.7-3.49-3.88-9.32-.39-13.02,3.49-3.7,9.32-3.88,13.02-.39,3.7,3.49,3.88,9.32.39,13.02Z"/>
            <path class="cls-9" d="m171.46,106.85c-.23.84-1.06,1.33-1.75,1.87-.92.71-1.66,1.64-2.16,2.69-.45.94-.69,2.04-.37,3.03.31.97,1.1,1.69,1.62,2.56s.7,2.14-.09,2.78c-.54.44-1.34.39-2.01.21-2.29-.62-4.13-2.54-4.83-4.8-.7-2.26-.33-4.8.82-6.87.73-1.32,1.79-2.49,3.12-3.2,1.37-.73,6.47-1.29,5.66,1.72Z"/>
            <path class="cls-13" d="m176.99,110.99c.18,1.14.03,2.31-.26,3.43-.22.83-.52,1.65-1.06,2.31-.36.44-.9.81-1.46.7-.7-.15-1.02-1-.98-1.72.09-1.32.97-2.59.66-3.87-.12-.5-.42-.94-.59-1.43-.45-1.25.24-3.01,1.83-2.59,1.12.3,1.7,2.17,1.86,3.17Z"/>
          </g>
          <g>
            <path class="cls-16" d="m130.1,312.9c-2.4,5.62-9.04,7.31-14.66,4.92-5.62-2.4-8.23-8.89-5.84-14.52,2.4-5.62,8.89-8.23,14.51-5.84,5.62,2.4,8.38,9.82,5.99,15.44Z"/>
            <path class="cls-17" d="m120.15,300.47c.09,1.04-.65,1.94-1.2,2.83-.74,1.18-1.19,2.54-1.32,3.93-.11,1.25.06,2.58.84,3.57.75.96,1.94,1.45,2.89,2.21.95.76,1.68,2.13,1.06,3.17-.43.72-1.34,1-2.18,1.07-2.83.25-5.7-1.15-7.43-3.41-1.73-2.26-2.36-5.27-1.92-8.08.28-1.79.98-3.55,2.19-4.9,1.24-1.39,6.75-4.14,7.09-.4Z"/>
            <path class="cls-13" d="m128.09,302.84c.67,1.21.99,2.59,1.13,3.97.1,1.02.1,2.07-.24,3.04-.23.64-.68,1.29-1.35,1.39-.85.12-1.57-.7-1.81-1.53-.45-1.52.02-3.32-.86-4.64-.34-.52-.86-.89-1.26-1.37-1.03-1.22-.97-3.5.99-3.67,1.39-.13,2.82,1.74,3.41,2.81Z"/>
          </g>
          <g>
            <path class="cls-8" d="m176.83,333.15c-4.01,4.26-10.72,4.46-14.98.45-4.26-4.01-4.46-10.72-.45-14.99,4.01-4.26,10.72-4.46,14.98-.45s4.46,10.72.45,14.99Z"/>
            <path class="cls-9" d="m171.81,319.55c-.26.97-1.22,1.53-2.01,2.15-1.05.82-1.91,1.89-2.49,3.1-.51,1.08-.8,2.34-.43,3.49.36,1.11,1.26,1.95,1.86,2.95.6,1,.81,2.47-.1,3.2-.63.51-1.54.45-2.32.24-2.63-.71-4.75-2.92-5.56-5.53-.81-2.6-.38-5.52.94-7.9.84-1.52,2.05-2.86,3.59-3.68,1.58-.84,7.44-1.49,6.51,1.98Z"/>
            <path class="cls-13" d="m178.17,324.31c.2,1.31.03,2.66-.3,3.95-.25.95-.6,1.9-1.22,2.66-.41.5-1.04.93-1.68.8-.81-.17-1.18-1.15-1.12-1.98.1-1.52,1.12-2.98.76-4.46-.14-.58-.48-1.09-.68-1.65-.52-1.43.28-3.47,2.11-2.98,1.29.35,1.96,2.5,2.14,3.65Z"/>
          </g>
          <g>
            <path class="cls-16" d="m230.91,313.15c-2.4,5.62-9.04,7.31-14.66,4.92-5.62-2.4-8.23-8.89-5.84-14.52,2.4-5.62,8.89-8.23,14.51-5.84,5.62,2.4,8.38,9.82,5.99,15.44Z"/>
            <path class="cls-17" d="m220.95,300.72c.09,1.04-.65,1.94-1.2,2.83-.74,1.18-1.19,2.54-1.32,3.93-.11,1.25.06,2.58.84,3.57.75.96,1.94,1.45,2.89,2.21s1.68,2.13,1.06,3.17c-.43.72-1.34,1-2.18,1.07-2.83.25-5.7-1.15-7.43-3.41-1.73-2.26-2.36-5.27-1.92-8.08.28-1.79.98-3.55,2.19-4.9,1.24-1.39,6.75-4.14,7.09-.4Z"/>
            <path class="cls-13" d="m228.89,303.09c.67,1.21.99,2.59,1.13,3.97.1,1.02.1,2.07-.24,3.04-.23.64-.68,1.29-1.35,1.39-.85.12-1.57-.7-1.81-1.53-.45-1.52.02-3.32-.86-4.64-.35-.52-.86-.89-1.26-1.37-1.03-1.22-.97-3.5.99-3.67,1.39-.13,2.82,1.74,3.41,2.81Z"/>
          </g>
          <g>
            <path class="cls-24" d="m197.7,171.88c1.78.97,2.93,3.01,2.68,5.04-.12.71-.8,1.19-1.51,1.06-.67-.14-1.2-.76-1.57-1.23-1.01-1.14-2.57-5.6.39-4.87h0Z"/>
            <path class="cls-24" d="m184.27,182.43c1.32,1.85,1.84,4.22,1.23,6.42-.22.66-.94,1.02-1.6.8-.79-.3-1.12-1.25-1.4-1.92-.54-1.32-1.25-6.22,1.24-5.66.22.07.4.21.53.37h0Z"/>
            <path class="cls-24" d="m163.05,180.53c.49,1.47.33,2.98-.23,4.38-.97,2.62-3.35,2.15-3.24-.65-.18-1.59,1.63-6.44,3.47-3.74h0Z"/>
            <path class="cls-24" d="m141.62,174.21c.3,1.98-.49,3.9-1.8,5.31-.44.46-.95.87-1.59,1.13-.92.42-1.95-.52-1.66-1.47.61-2.17,1.6-3.82,3.13-5.56.6-.67,1.79-.3,1.91.58h0Z"/>
            <path class="cls-24" d="m224.2,259.44c1.71,1.17,2.84,3.12,2.83,5.21-.04.71-.65,1.26-1.37,1.21-.76-.07-1.34-.75-1.77-1.25-.95-1.08-2.77-5.2-.23-5.34.2.01.38.07.54.17h0Z"/>
            <path class="cls-24" d="m210.89,277.44c1.28,1.56,1.95,3.49,1.72,5.51-.1.71-.77,1.21-1.48,1.08-.77-.17-1.27-.94-1.63-1.53-.85-1.24-1.7-5.93.9-5.41.2.07.37.19.5.34h0Z"/>
            <path class="cls-24" d="m180.24,272.17c1.3,1.75,1.32,4.4-.08,6.09-.61.7-1.81.47-2.13-.39-.8-1.41-.46-7.86,2.22-5.7h0Z"/>
            <path class="cls-24" d="m155.18,269.42c.65.87.76,1.92.39,2.9-.36,1.17-1.97,1.82-2.83.71-1.46-1.55.39-5.59,2.45-3.61h0Z"/>
            <path class="cls-24" d="m126.76,278.93c.74,2.06-.09,4.63-2,5.75-.8.45-1.85-.17-1.87-1.08-.26-1.57,2-7.47,3.87-4.67h0Z"/>
            <path class="cls-24" d="m115.05,258.13c.59,2.7-.1,5.71-1.95,7.79-.47.48-1.24.49-1.71.02-.22-.22-.34-.5-.36-.8-.09-1.33.17-2.54.5-3.79.45-1.17,1.24-4.9,3.07-3.85.23.15.38.38.45.63h0Z"/>
            <path class="cls-24" d="m260.79,299.69c1.91.81,3.39,2.49,3.79,4.54.1.71-.4,1.36-1.1,1.46-.75.08-1.46-.47-1.97-.87-1.15-.9-3.74-4.51-1.28-5.19.19-.03.39,0,.56.06h0Z"/>
            <path class="cls-24" d="m245.77,317.98c1.74,1.05,2.94,2.89,3,4.94-.02.72-.61,1.29-1.33,1.27-.74-.04-1.34-.66-1.78-1.12-1.01-1.05-2.94-4.96-.41-5.23.19,0,.37.06.53.14h0Z"/>
            <path class="cls-24" d="m215.93,329.6c1.71,1.02,2.72,6-.33,5.38-1.66-.9-2.16-3.09-1.62-4.81.28-.79,1.29-1.08,1.95-.58h0Z"/>
            <path class="cls-24" d="m194.32,315.83c.85,1.16,1.09,2.55.92,3.93-.28,2.59-2.65,2.76-3.3.24-.62-1.49.01-6.14,2.38-4.17h0Z"/>
            <path class="cls-24" d="m144.03,331.75c.08,2.17-.11,3.86-.89,5.82-.26.67-1.03,1-1.69.69-2.09-1.63-1.19-5.86.73-7.38.7-.61,1.85-.05,1.84.86h0Z"/>
            <path class="cls-24" d="m111.01,326.79c.85,1.8.16,4.1-1.58,5.02-.79.38-1.76-.15-1.87-1.01-.52-1.57,1.66-6.45,3.45-4.01h0Z"/>
            <path class="cls-24" d="m95.4,302.86c.09,1.74-.49,3.36-1.4,4.8-1.63,2.68-3.89,1.7-3.03-1.32.29-1.4,2.41-5.92,4.19-4.09.14.18.22.4.24.61h0Z"/>
            <path class="cls-24" d="m71.59,302.96c-.24,2.6-1.42,5.1-3.41,6.82-.53.41-1.3.32-1.72-.22-.18-.24-.27-.52-.25-.8.07-1.35.54-2.54,1.15-3.69.67-1.08,2.51-4.44,4-2.83.17.22.24.47.23.72h0Z"/>
            <path class="cls-24" d="m199.68,144.3c2.42.34,2.51,4.16-.22,3.7-2.19-.22-2-3.9.22-3.7h0Z"/>
            <path class="cls-24" d="m138.09,144.29c.53,1.14.22,2.45-.59,3.35-.78.99-2.54,1.05-2.86-.4-.31-1.4.3-2.62,1.47-3.4.65-.49,1.62-.29,1.98.45h0Z"/>
            <path class="cls-24" d="m150.25,149.51c1.48,2.1-1.57,4.41-2.92,2.09-1.14-1.77,1.67-3.77,2.92-2.09h0Z"/>
            <path class="cls-24" d="m174,131.53c.62,1.22.63,2.57.21,3.84-.73,2.38-3.1,2.11-3.28-.37-.36-1.6,1.17-5.73,3.08-3.47h0Z"/>
            <path class="cls-24" d="m150.95,124.86c1.17,2.1-1.65,4.64-3.13,2.35-1.1-1.89,1.8-4.52,3.13-2.35h0Z"/>
            <path class="cls-24" d="m169.29,93.71c.98.59,1.52,1.56,1.6,2.66.17,1.26-.97,2.58-2.27,1.87-1.92-.85-2.15-5.57.67-4.53h0Z"/>
            <path class="cls-24" d="m183.76,116.84c.97.38,1.62,1.06,1.93,2.01.42,1.14-.2,2.68-1.64,2.42-1.55-.36-2.46-2.01-2.11-3.53.2-.79,1.08-1.21,1.82-.9h0Z"/>
            <path class="cls-24" d="m229.48,214.41c1.57.96,2.57,2.71,2.41,4.57-.1.74-.78,1.25-1.52,1.15-.64-.11-1.17-.63-1.53-1.06-1.16-1.14-2.25-5.54.63-4.66h0Z"/>
            <path class="cls-24" d="m216.46,229.49c1.42,1.14,2.18,2.98,1.77,4.78-.2.72-.95,1.14-1.67.94-.61-.19-1.06-.77-1.36-1.23-1.01-1.28-1.47-5.72,1.26-4.49h0Z"/>
            <path class="cls-24" d="m194.89,235.7c.82.74,1.15,1.76.99,2.81-.1,1.23-1.54,2.23-2.62,1.3-1.74-1.22-.82-5.65,1.63-4.11h0Z"/>
            <path class="cls-24" d="m173.71,226.45c.98,2.12,1.07,4.6.09,6.73-.32.61-1.08.85-1.7.52-.75-.44-.9-1.47-1.07-2.21-.28-1.4-.19-6.47,2.19-5.52.21.11.37.28.47.47h0Z"/>
            <path class="cls-24" d="m153.76,237.77c.98,2.04.66,4.68-.91,6.34-.51.48-1.31.46-1.79-.04-.5-.57-.47-1.49-.47-2.14-.04-1.45,1.08-6.56,3.18-4.16h0Z"/>
            <path class="cls-24" d="m142.17,224.8c.57,1.54.19,3.32-1.11,4.35-.72.54-1.8.24-2.14-.59-.58-1.56,0-3.28,1.29-4.3.66-.49,1.64-.21,1.96.54h0Z"/>
            <path class="cls-24" d="m117.48,230.8c.6,1.7.02,3.74-1.5,4.75-.76.47-1.81.04-2.02-.83-.37-1.66.29-3.28,1.54-4.4.63-.56,1.67-.3,1.97.48h0Z"/>
            <path class="cls-24" d="m105.22,218.95c.21,2.11-.91,4.31-2.83,5.25-.65.28-1.41-.02-1.69-.68-.26-.66.02-1.47.21-2.05.43-1.44,3.21-5.41,4.31-2.52h0Z"/>
          </g>
          <path class="cls-12" d="m184.95,173.75c.09.09.18.18.26.26.13.14.29.25.48.31.18.09.37.14.57.13.2,0,.39-.03.57-.13.18-.06.34-.16.48-.31.08-.1.15-.2.23-.3.13-.23.2-.48.2-.75-.02-.13-.04-.26-.05-.39-.07-.25-.2-.47-.38-.65-.09-.09-.18-.18-.26-.26-.13-.14-.29-.25-.48-.31-.18-.09-.37-.14-.57-.13-.2,0-.39.03-.57.13-.18.06-.34.16-.48.31-.08.1-.15.2-.23.3-.13.23-.2.48-.2.75.02.13.04.26.05.39.07.25.2.47.38.65h0Z"/>
          <path class="cls-12" d="m158.53,198.76v-.26c0-.2-.03-.39-.13-.57-.06-.18-.16-.34-.31-.48-.13-.14-.29-.25-.48-.31-.18-.09-.37-.14-.57-.13-.13.02-.26.04-.39.05-.25.07-.47.2-.65.38-.08.1-.15.2-.23.3-.13.23-.2.48-.2.75v.26c0,.2.03.39.13.57.06.18.16.34.31.48.13.14.29.25.48.31.18.09.37.14.57.13.13-.02.26-.04.39-.05.25-.07.47-.2.65-.38.08-.1.15-.2.23-.3.13-.23.2-.48.2-.75h0Z"/>
          <path class="cls-12" d="m149.68,175.93h.26c.41.02.79-.07,1.14-.26.37-.12.69-.32.95-.61.29-.27.49-.59.61-.95.19-.35.27-.73.26-1.14-.04-.26-.07-.53-.11-.79-.14-.5-.4-.94-.76-1.31-.2-.15-.4-.31-.6-.46-.46-.27-.96-.4-1.5-.41h-.26c-.41-.02-.79.07-1.14.26-.37.12-.69.32-.95.61-.29.27-.49.59-.61.95-.19.35-.27.73-.26,1.14.04.26.07.53.11.79.14.5.4.94.76,1.31.2.15.4.31.6.46.46.27.96.4,1.5.41h0Z"/>
          <path class="cls-12" d="m229.42,234.62h.26c.41.02.79-.07,1.14-.26.37-.12.69-.32.95-.61.29-.27.49-.59.61-.95.19-.35.27-.73.26-1.14-.04-.26-.07-.53-.11-.79-.14-.5-.4-.94-.76-1.31-.2-.15-.4-.31-.6-.46-.46-.27-.96-.4-1.5-.41h-.26c-.41-.02-.79.07-1.14.26-.37.12-.69.32-.95.61-.29.27-.49.59-.61.95-.19.35-.27.73-.26,1.14.04.26.07.53.11.79.14.5.4.94.76,1.31.2.15.4.31.6.46.46.27.96.4,1.5.41h0Z"/>
          <path class="cls-12" d="m172.84,243.66c1.91,0,1.91-2.97,0-2.97s-1.91,2.97,0,2.97h0Z"/>
          <path class="cls-12" d="m128.9,238.49l.26.26c.13.14.29.25.48.31.18.09.37.14.57.13.2,0,.39-.03.57-.13.18-.06.34-.16.48-.31.08-.1.15-.2.23-.3.13-.23.2-.48.2-.75-.02-.13-.04-.26-.05-.39-.07-.25-.2-.47-.38-.65-.09-.09-.18-.18-.26-.26-.13-.14-.29-.25-.48-.31-.18-.09-.37-.14-.57-.13-.2,0-.39.03-.57.13-.18.06-.34.16-.48.31-.08.1-.15.2-.23.3-.13.23-.2.48-.2.75.02.13.04.26.05.39.07.25.2.47.38.65h0Z"/>
          <path class="cls-12" d="m206.14,266.51c.09.09.18.18.26.26.27.29.59.49.95.61.35.19.73.27,1.14.26.41.02.79-.07,1.14-.26.37-.12.69-.32.95-.61.15-.2.31-.4.46-.6.27-.46.4-.96.41-1.5-.04-.26-.07-.53-.11-.79-.14-.5-.4-.94-.76-1.31-.09-.09-.18-.18-.26-.26-.27-.29-.59-.49-.95-.61-.35-.19-.73-.27-1.14-.26-.41-.02-.79.07-1.14.26-.37.12-.69.32-.95.61-.15.2-.31.4-.46.6-.27.46-.4.96-.41,1.5.04.26.07.53.11.79.14.5.4.94.76,1.31h0Z"/>
          <path class="cls-12" d="m169.29,291.51c.09.09.18.18.26.26.13.14.29.25.48.31.18.09.37.14.57.13.2,0,.39-.03.57-.13.18-.06.34-.16.48-.31.08-.1.15-.2.23-.3.13-.23.2-.48.2-.75-.02-.13-.04-.26-.05-.39-.07-.25-.2-.47-.38-.65-.09-.09-.18-.18-.26-.26-.13-.14-.29-.25-.48-.31-.18-.09-.37-.14-.57-.13-.2,0-.39.03-.57.13-.18.06-.34.16-.48.31-.08.1-.15.2-.23.3-.13.23-.2.48-.2.75.02.13.04.26.05.39.07.25.2.47.38.65h0Z"/>
          <path class="cls-12" d="m132.53,266.53c-.11.65-.18.96,0,1.61.16.57.39.9.78,1.33,0,0,0,0,.01.01.2.15.4.31.6.46,0,0,0,0,0,0,0,0,0,0,0,0,0,0,0,0,0,0,0,0,0,0,0,0,.02,0,.69.29.71.3,0,0,0,0,0,0,0,0,.01,0,.02,0,.66.14.99.15,1.65,0,0,0,.01,0,.02,0,.25-.09.49-.19.72-.31,0,0,0,0,.01,0,.21-.15.41-.3.61-.47,0,0,0,0,0,0,.38-.4.63-.8.78-1.34.15-.56.13-1.05,0-1.62-.09-.39-.27-.72-.53-1.01-.21-.32-.49-.58-.83-.76-.34-.22-.71-.33-1.1-.35-.39-.09-.79-.07-1.18.05-.24.1-.47.2-.71.3-.45.26-.8.62-1.06,1.06-.1.24-.2.47-.3.71-.14.53-.14,1.05,0,1.58,0,0,0,0,0,.01-.04-.26-.07-.53-.11-.79,0,0,0,.01,0,.02.04-.26.07-.53.11-.79,0,0,0,.01,0,.02.1-.24.2-.47.3-.71,0,0,0,0,0,.01.15-.2.31-.4.46-.6,0,0,0,.01-.01.01.2-.15.4-.31.6-.46,0,0-.01,0-.02.01.24-.1.47-.2.71-.3-.01,0-.03,0-.04.01.26-.04.53-.07.79-.11-.01,0-.03,0-.04,0,.26.04.53.07.79.11-.01,0-.02,0-.04,0l.71.3s-.01,0-.02-.01c.2.15.4.31.6.46,0,0,0,0-.01-.01.15.2.31.4.46.6,0,0,0,0,0-.01.1.24.2.47.3.71,0,0,0-.01,0-.02.04.26.07.53.11.79,0,0,0-.01,0-.02-.04.26-.07.53-.11.79,0,0,0,0,0,0,.12-.39.14-.79.05-1.18-.02-.39-.14-.76-.35-1.1-.19-.35-.44-.62-.76-.83-.29-.26-.62-.44-1.01-.53-.26-.04-.53-.07-.79-.11-.54,0-1.03.14-1.5.41-.2.15-.4.31-.6.46-.37.37-.62.81-.76,1.31h0Z"/>
          <path class="cls-12" d="m86.52,325.41c3.82,0,3.83-5.93,0-5.93s-3.82,5.93,0,5.93h0Z"/>
          <path class="cls-12" d="m145.48,318.75c.09.09.18.18.26.26.13.14.29.25.48.31.18.09.37.14.57.13.2,0,.39-.03.57-.13.18-.06.34-.16.48-.31.08-.1.15-.2.23-.3.13-.23.2-.48.2-.75-.02-.13-.04-.26-.05-.39-.07-.25-.2-.47-.38-.65-.09-.09-.18-.18-.26-.26-.13-.14-.29-.25-.48-.31-.18-.09-.37-.14-.57-.13-.2,0-.39.03-.57.13-.18.06-.34.16-.48.31-.08.1-.15.2-.23.3-.13.23-.2.48-.2.75.02.13.04.26.05.39.07.25.2.47.38.65h0Z"/>
          <path class="cls-12" d="m199.69,339.01l.26.26c.13.14.29.25.48.31.18.09.37.14.57.13.2,0,.39-.03.57-.13.18-.06.34-.16.48-.31.08-.1.15-.2.23-.3.13-.23.2-.48.2-.75-.02-.13-.04-.26-.05-.39-.07-.25-.2-.47-.38-.65-.09-.09-.18-.18-.26-.26-.13-.14-.29-.25-.48-.31-.18-.09-.37-.14-.57-.13-.2,0-.39.03-.57.13-.18.06-.34.16-.48.31-.08.1-.15.2-.23.3-.13.23-.2.48-.2.75.02.13.04.26.05.39.07.25.2.47.38.65h0Z"/>
          <path class="cls-12" d="m266.52,318.83h.26c.41.02.79-.07,1.14-.26.37-.12.69-.32.95-.61.29-.27.49-.59.61-.95.19-.35.27-.73.26-1.14-.04-.26-.07-.53-.11-.79-.14-.5-.4-.94-.76-1.31-.2-.15-.4-.31-.6-.46-.46-.27-.96-.4-1.5-.41h-.26c-.41-.02-.79.07-1.14.26-.37.12-.69.32-.95.61-.29.27-.49.59-.61.96-.19.35-.27.73-.26,1.14.04.26.07.53.11.79.14.5.4.94.76,1.31.2.15.4.31.6.46.46.27.96.4,1.5.41h0Z"/>
          <path class="cls-12" d="m178.37,144.45c1.91,0,1.91-2.97,0-2.97s-1.91,2.97,0,2.97h0Z"/>
          <path class="cls-12" d="m154.42,121.65c.09.09.18.18.26.26.13.14.29.25.48.31.18.09.37.14.57.13.2,0,.39-.03.57-.13.18-.06.34-.16.48-.31.08-.1.15-.2.23-.3.13-.23.2-.48.2-.75-.02-.13-.04-.26-.05-.39-.07-.25-.2-.47-.38-.65l-.26-.26c-.13-.14-.29-.25-.48-.31-.18-.09-.37-.14-.57-.13-.2,0-.39.03-.57.13-.18.06-.34.16-.48.31-.08.1-.15.2-.23.3-.13.23-.2.48-.2.75.02.13.04.26.05.39.07.25.2.47.38.65h0Z"/>
          <path class="cls-12" d="m207.58,147.77c3.82,0,3.83-5.93,0-5.93s-3.82,5.93,0,5.93h0Z"/>
          <path class="cls-12" d="m192.25,200.83h.23c.2,0,.39-.03.57-.13.18-.06.34-.16.48-.31.14-.13.25-.29.31-.48.09-.18.14-.37.13-.57-.02-.13-.04-.26-.05-.39-.07-.25-.2-.47-.38-.65-.1-.08-.2-.15-.3-.23-.23-.13-.48-.2-.75-.2h-.23c-.2,0-.39.03-.57.13-.18.06-.34.16-.48.31-.14.13-.25.29-.31.48-.09.18-.14.37-.13.57.02.13.04.26.05.39.07.25.2.47.38.65.1.08.2.15.3.23.23.13.48.2.75.2h0Z"/>
          <path class="cls-12" d="m125.7,193.99c1.91,0,1.91-2.97,0-2.97s-1.91,2.97,0,2.97h0Z"/>
          <path class="cls-12" d="m154.65,154.45v.23c0,.2.03.39.13.57.06.18.16.34.31.48.13.14.29.25.48.31.18.09.37.14.57.13.13-.02.26-.04.39-.05.25-.07.47-.2.65-.38.08-.1.15-.2.23-.3.13-.23.2-.48.2-.75v-.23c0-.2-.03-.39-.13-.57-.06-.18-.16-.34-.31-.48-.13-.14-.29-.25-.48-.31-.18-.09-.37-.14-.57-.13-.13.02-.26.04-.39.05-.25.07-.47.2-.65.38-.08.1-.15.2-.23.3-.13.23-.2.48-.2.75h0Z"/>
          <path class="cls-12" d="m242.85,300.19v.23c0,.2.03.39.13.57.06.18.16.34.31.48.13.14.29.25.48.31.18.09.37.14.57.13.13-.02.26-.04.39-.05.25-.07.47-.2.65-.38.08-.1.15-.2.23-.3.13-.23.2-.48.2-.75v-.23c0-.2-.03-.39-.13-.57-.06-.18-.16-.34-.31-.48-.13-.14-.29-.25-.48-.31-.18-.09-.37-.14-.57-.13-.13.02-.26.04-.39.05-.25.07-.47.2-.65.38-.08.1-.15.2-.23.3-.13.23-.2.48-.2.75h0Z"/>
          <path class="cls-12" d="m126.05,337.91h.23c.2,0,.39-.03.57-.13.18-.06.34-.16.48-.31.14-.13.25-.29.31-.48.09-.18.14-.37.13-.57-.02-.13-.04-.26-.05-.39-.07-.25-.2-.47-.38-.65-.1-.08-.2-.15-.3-.23-.23-.13-.48-.2-.75-.2h-.23c-.2,0-.39.03-.57.13-.18.06-.34.16-.48.31-.14.13-.25.29-.31.48-.09.18-.14.37-.13.57.02.13.04.26.05.39.07.25.2.47.38.65.1.08.2.15.3.23.23.13.48.2.75.2h0Z"/>
          <path class="cls-12" d="m90.6,273.3v.23c0,.2.03.39.13.57.06.18.16.34.31.48.13.14.29.25.48.31.18.09.37.14.57.13.13-.02.26-.04.39-.05.25-.07.47-.2.65-.38.08-.1.15-.2.23-.3.13-.23.2-.48.2-.75v-.23c0-.2-.03-.39-.13-.57-.06-.18-.16-.34-.31-.48-.13-.14-.29-.25-.48-.31-.18-.09-.37-.14-.57-.13-.13.02-.26.04-.39.05-.25.07-.47.2-.65.38-.08.1-.15.2-.23.3-.13.23-.2.48-.2.75h0Z"/>
          <path class="cls-12" d="m239.54,272.73h.23c.2,0,.39-.03.57-.13.18-.06.34-.16.48-.31.14-.13.25-.29.31-.48.09-.18.14-.37.13-.57-.02-.13-.04-.26-.05-.39-.07-.25-.2-.47-.38-.65-.1-.08-.2-.15-.3-.23-.23-.13-.48-.2-.75-.2h-.23c-.2,0-.39.03-.57.13-.18.06-.34.16-.48.31-.14.13-.25.29-.31.48-.09.18-.14.37-.13.57.02.13.04.26.05.39.07.25.2.47.38.65.1.08.2.15.3.23.23.13.48.2.75.2h0Z"/>
          <polygon class="cls-16" points="168.84 68.32 171.47 73.62 178.01 74.92 173.14 79.56 174.06 86.41 168.3 83.15 162.09 85.98 163.27 79.32 158.65 74.15 165.71 73.53 168.84 68.32"/>
        </g>
      </g>
      <g>
        <path class="cls-33" d="m20.82,384.01c3.51-1.14,8.81-3.32,8.81-3.32,1.17-4.97,5.06-7.85,5.06-7.85,1.8,2.88,3.2,4.09,4.3,9.5,2.37.76,2.87,2.07,2.79,2.85-.19,1.77,1.74,1.52,1.02,3.51-.3.83,1.51.66.17,2.15-.38.42,1.07,1.5.56,1.93-1.56,1.33.1,3.61-1.56,4.3-1.67.7-3.29,1.49-4.72,2.25s-2.85,0-3.8,1.14c-.95,1.14-2.85,2.75-4.18,3.13-1.33.38-2.98-1.39-4.21-1.01-1.23.38-4.15-1.04-4.62-1.71-.47-.66-.72-1.9-1.62-2.28-1.93-.82-.32-1.59-1.64-2.96-1.14-1.19-.54-2.67-.54-2.67-1.9-3.67-6.01-5.25-6.65-9.31,3.99-1.2,7.6-.95,10.81.35Z"/>
        <g class="cls-41">
          <path class="cls-30" d="m37.12,382.57c-1.95-1.14-3.37-.52-3.61-.9-.66-2.52,1.19-4.51,1.19-4.51.71,1.42.24,2.9,1.14,3.85.9.95,1.28,1.57,1.28,1.57Z"/>
        </g>
        <g class="cls-41">
          <path class="cls-30" d="m17.23,391.49c-.24-2.42,1.23-3.66.76-4.18-.47-.52-2.66-1.23-4.32-1.14,1.14,1,2.35,1.25,2.59,2.52.3,1.55.97,2.8.97,2.8Z"/>
        </g>
        <path class="cls-34" d="m28,394.67c-1.19,1.61-3.18,1.47-3.18,1.47,2.23.71,3.09-.24,3.18-1.47Z"/>
        <path class="cls-34" d="m21.49,391.78c0-.08-.02-2.05,2.64-3.46l.14.26c-2.5,1.32-2.49,3.17-2.49,3.19h-.29Z"/>
        <path class="cls-34" d="m32.48,392.59c2,.03,3.09-1.65,3.09-1.65-.78,2.21-2.05,2.32-3.09,1.65Z"/>
        <path class="cls-34" d="m29.87,385.95l-.12-.26c2.72-1.28,4.28-.08,4.35-.03l-.18.23c-.06-.05-1.49-1.14-4.04.06Z"/>
        <path class="cls-34" d="m32.44,397.22c-1.61-.09-2.24-.55-.75-1.44,1.23-.73,1.64-.12.75,1.44Z"/>
        <path class="cls-34" d="m31.65,399.01c-.17,0-.37-.02-.58-.06l.06-.29c.54.11.92.07,1.15-.13.2-.17.28-.46.26-.87v-.24s.21.1.21.1c.31.15.79.19,1.09,0,.21-.14.31-.39.3-.73h.29c.02.55-.22.83-.43.97-.34.23-.8.22-1.16.11-.02.4-.14.69-.37.89-.2.17-.47.26-.82.26Z"/>
        <path class="cls-33" d="m37.92,381c4.42-1.71,11.38-1.66,14.57-1.71,5.15-.08,15.25-6.74,26.6-3.94,6.84,1.69,11.49,9.27,12.88,12.46,1.39,3.19-4.81,10.93-7.6,11.05-18.36,1.25-28.07.18-28.45.67-7.03.72-8.69,1.59-8.69,1.59-8.99-1.39-10.48-9.06-10.11-12.89.36-3.82-4.88-5.04.81-7.24Z"/>
        <path class="cls-28" d="m56.79,393.43c-1.74,1.51-2.66,2.91-7.72,3.78,0,0-.14,1.92-.2,3.41,1.29-.31,3.47-.72,7.06-1.09.06-.08.35-.12.87-.13-.07-.93-1.25-1.95,0-5.97Z"/>
        <path class="cls-33" d="m12.5,404.18c-1.03-1.21-.46-3.89,2.12-6.22,2.58-2.32,1.91-4.58,3.18-5.2,3.23,2.86,5.76,10.89,5.76,10.89-1.52.33-11.06.52-11.06.52Z"/>
        <path class="cls-12" d="m57.83,401.22c-1.87-2.41-2.29-5.26-1.17-8.01,1.35-3.34,4.72-5.94,8.39-6.47l.04.29c-3.57.52-6.85,3.04-8.16,6.29-1.07,2.65-.67,5.39,1.13,7.72l-.23.18Z"/>
        <path class="cls-12" d="m20.34,400.96c-.16-.22-.29-.5-.43-.79-.28-.59-.57-1.2-1.12-1.44-1.14-.49-1.14-1-1.14-1.54,0-.43,0-.87-.55-1.45l.21-.2c.64.66.64,1.21.63,1.65,0,.5,0,.86.96,1.27.66.28.98.97,1.27,1.58.13.28.26.54.4.75l-.24.17Z"/>
        <path class="cls-12" d="m33.57,400.56l-.22-.19c.57-.69,1.29-.73,2.06-.78.58-.04,1.18-.07,1.78-.39,1.55-.83,3.19-1.61,4.73-2.25.75-.31.74-.98.73-1.81-.01-.83-.03-1.77.8-2.47.16-.13-.02-.43-.29-.84-.26-.39-.53-.8-.28-1.08.32-.36.47-.64.46-.84-.01-.17-.15-.29-.32-.43-.22-.19-.5-.42-.35-.84.36-1,.02-1.37-.37-1.79-.35-.38-.75-.81-.65-1.68.09-.86-.57-2.02-2.68-2.69l.09-.28c2.29.73,2.99,2.03,2.89,3-.08.75.24,1.09.58,1.46.42.46.86.93.43,2.09-.08.22.03.33.26.52.19.16.4.33.42.63.02.29-.15.63-.53,1.05-.1.11.12.45.3.72.28.43.61.91.24,1.22-.72.61-.71,1.44-.69,2.24.01.83.03,1.69-.91,2.09-1.53.64-3.16,1.42-4.7,2.24-.66.35-1.32.39-1.9.43-.73.05-1.36.09-1.85.68Z"/>
        <path class="cls-33" d="m17.35,398.86c5.63,1.7,9.18,5.43,9.18,6.51-.63,1.14-7.47.38-8.86.25s-4.87-.19-5.32-1.77c-.44-1.58,2.41-5.61,5-4.99Z"/>
        <path class="cls-12" d="m24.31,402.75c-1.11-.95-3.49-2.69-7-3.75l.08-.28c3.56,1.07,5.98,2.85,7.11,3.81l-.19.22Z"/>
        <path class="cls-33" d="m51.66,390.66c.63,3.73,1.33,8.8.32,10.95-1.01,2.15-14.44,3.19-18,3.67-5.5.74-6.92-.08-6.92-.08.38-2.69,5.71-5.1,10.46-6.62,2.34-.75,4.84-2.02,4.84-2.02.42-4.44,9.3-5.91,9.3-5.91Z"/>
        <path class="cls-12" d="m29.95,405.73c-2.22,0-2.92-.39-2.96-.41l-.08-.05v-.1c.44-3.05,6.81-5.53,10.57-6.74l.09.28c-6.18,1.98-9.93,4.31-10.34,6.39.39.15,2.11.65,6.74.02.64-.09,1.63-.19,2.77-.31,2.64-.28,6.26-.67,9.31-1.21,4.43-.79,5.6-1.55,5.8-2.06.66-1.67.65-3.23.4-5.52l.29-.03c.26,2.33.27,3.93-.42,5.66-.69,1.75-8.29,2.7-15.35,3.45-1.14.12-2.12.23-2.76.31-1.72.23-3.04.31-4.05.31Z"/>
        <path class="cls-33" d="m91.97,387.81c1.11,3.96,5.48,7.24,5.48,12.37,0,2.18-4.27,3.62-9.4,3.85-5.13.23-12.25,3.27-19.47,3.27s-16.54,1.8-20.47,0c4.24-6.36,10.69-10.43,17.53-11.62,6.84-1.2,15.35,2,17.85,2.28,2.5.28,4.56-3,4.46-3.28-.19-2.09,4.02-6.86,4.02-6.86Z"/>
        <path class="cls-25" d="m48.11,407.3c2.96,1.36,8.98.67,14.86.25-.9-.27-1.79-.53-.85-1.07,1.96-1.14,1.71-2.02.44-2.24-2.5-.43-4.71.41-2.17-1.05,1.9-1.09.81-1.29-1.42-1.1-2.83.24-6.52,3.54-5.43.85.37-.91.37-1.48.2-1.83-2.13,1.71-4.04,3.78-5.63,6.18Z"/>
        <path class="cls-12" d="m55.88,399.74l-.16-.24c3-1.98,6.42-3.35,9.89-3.96,5.09-.89,10.99.61,14.89,1.6,1.32.34,2.37.6,3.01.67,1.1.12,2.08-.5,2.7-1.03,1-.86,1.59-1.91,1.6-2.08,0,0,0,0,0,.02l.28-.09c.08.24-.42.98-.77,1.42-.55.69-2.04,2.26-3.85,2.06-.66-.07-1.71-.34-3.05-.68-3.88-.99-9.73-2.48-14.76-1.6-3.43.6-6.81,1.95-9.78,3.92Z"/>
      </g>
      <g>
        <g>
          <polygon class="cls-40" points="216.5 393.9 258.27 386.16 258.27 399.24 216.5 408.87 216.5 393.9"/>
          <g class="cls-2">
            <g>
              <polygon class="cls-10" points="224.68 391.91 223.73 391.66 223.01 392.42 222.91 391.31 222.06 390.76 222.96 390.32 223.15 389.22 223.8 390.06 224.77 389.93 224.27 390.89 224.68 391.91"/>
              <polygon class="cls-10" points="233.46 392.03 232.5 391.78 231.78 392.54 231.69 391.43 230.84 390.89 231.74 390.44 231.93 389.34 232.57 390.18 233.55 390.05 233.05 391.01 233.46 392.03"/>
              <polygon class="cls-10" points="228.81 397.61 227.85 397.36 227.13 398.12 227.04 397.01 226.19 396.47 227.09 396.02 227.27 394.92 227.92 395.76 228.9 395.63 228.4 396.59 228.81 397.61"/>
              <polygon class="cls-10" points="237.13 397.69 236.18 397.45 235.46 398.21 235.36 397.1 234.51 396.55 235.41 396.11 235.6 395.01 236.25 395.85 237.22 395.71 236.72 396.68 237.13 397.69"/>
              <polygon class="cls-10" points="241.5 391.53 240.54 391.28 239.82 392.05 239.73 390.93 238.88 390.39 239.78 389.94 239.96 388.84 240.61 389.68 241.59 389.55 241.09 390.51 241.5 391.53"/>
              <polygon class="cls-10" points="244.56 398.17 243.61 397.92 242.89 398.68 242.8 397.57 241.94 397.02 242.84 396.58 243.03 395.48 243.68 396.32 244.65 396.19 244.15 397.15 244.56 398.17"/>
              <polygon class="cls-10" points="240.96 402.51 240 402.27 239.28 403.03 239.19 401.92 238.34 401.37 239.24 400.93 239.43 399.83 240.07 400.67 241.05 400.54 240.55 401.5 240.96 402.51"/>
              <polygon class="cls-10" points="236.86 407.35 235.9 407.11 235.19 407.87 235.09 406.75 234.24 406.21 235.14 405.76 235.33 404.67 235.97 405.51 236.95 405.37 236.45 406.33 236.86 407.35"/>
              <polygon class="cls-10" points="231.27 409.26 230.31 409.01 229.59 409.77 229.5 408.66 228.64 408.11 229.54 407.67 229.73 406.57 230.38 407.41 231.35 407.28 230.85 408.24 231.27 409.26"/>
              <polygon class="cls-10" points="245.61 407.5 244.66 407.26 243.94 408.02 243.85 406.9 242.99 406.36 243.89 405.91 244.08 404.82 244.73 405.66 245.7 405.52 245.2 406.49 245.61 407.5"/>
              <polygon class="cls-10" points="255.54 407.35 254.58 407.11 253.86 407.87 253.77 406.76 252.91 406.21 253.81 405.77 254 404.67 254.65 405.51 255.62 405.38 255.12 406.34 255.54 407.35"/>
              <polygon class="cls-10" points="259.33 397.43 258.37 397.18 257.65 397.95 257.56 396.83 256.7 396.29 257.6 395.84 257.79 394.74 258.44 395.58 259.41 395.45 258.91 396.41 259.33 397.43"/>
              <polygon class="cls-10" points="221.33 404.35 220.37 404.11 219.65 404.87 219.56 403.75 218.7 403.21 219.6 402.76 219.79 401.67 220.44 402.51 221.41 402.37 220.91 403.33 221.33 404.35"/>
              <polygon class="cls-10" points="225.36 411.8 224.4 411.55 223.69 412.31 223.59 411.2 222.74 410.66 223.64 410.21 223.83 409.11 224.47 409.95 225.45 409.82 224.95 410.78 225.36 411.8"/>
              <polygon class="cls-10" points="218.68 396.11 217.72 395.87 217.01 396.63 216.91 395.51 216.06 394.97 216.96 394.53 217.15 393.43 217.79 394.27 218.77 394.13 218.27 395.1 218.68 396.11"/>
              <polygon class="cls-10" points="228.67 388.22 227.71 387.97 226.99 388.74 226.9 387.62 226.04 387.08 226.94 386.63 227.13 385.53 227.78 386.37 228.75 386.24 228.25 387.2 228.67 388.22"/>
              <polygon class="cls-10" points="220.83 388.29 219.88 388.05 219.16 388.81 219.06 387.7 218.21 387.15 219.11 386.71 219.3 385.61 219.95 386.45 220.92 386.32 220.42 387.28 220.83 388.29"/>
              <polygon class="cls-10" points="246.49 389.02 245.54 388.78 244.82 389.54 244.73 388.43 243.87 387.88 244.77 387.44 244.96 386.34 245.61 387.18 246.58 387.04 246.08 388.01 246.49 389.02"/>
              <polygon class="cls-10" points="237.76 388.59 236.8 388.35 236.08 389.11 235.99 388 235.14 387.45 236.04 387.01 236.23 385.91 236.87 386.75 237.85 386.62 237.35 387.58 237.76 388.59"/>
              <polygon class="cls-10" points="233.21 402.43 232.25 402.19 231.53 402.95 231.44 401.84 230.58 401.29 231.48 400.85 231.67 399.75 232.32 400.59 233.29 400.46 232.79 401.42 233.21 402.43"/>
              <polygon class="cls-10" points="249.83 403.38 248.87 403.14 248.15 403.9 248.06 402.79 247.21 402.24 248.11 401.8 248.3 400.7 248.94 401.54 249.92 401.41 249.42 402.37 249.83 403.38"/>
              <polygon class="cls-10" points="224.05 398.35 223.1 398.11 222.38 398.87 222.28 397.76 221.43 397.21 222.33 396.77 222.52 395.67 223.17 396.51 224.14 396.37 223.64 397.34 224.05 398.35"/>
              <polygon class="cls-10" points="226.74 404.62 225.79 404.38 225.07 405.14 224.98 404.03 224.12 403.48 225.02 403.04 225.21 401.94 225.86 402.78 226.83 402.64 226.33 403.61 226.74 404.62"/>
              <polygon class="cls-10" points="254.47 392.57 253.51 392.33 252.79 393.09 252.7 391.97 251.84 391.43 252.74 390.98 252.93 389.89 253.58 390.73 254.55 390.59 254.05 391.55 254.47 392.57"/>
              <polygon class="cls-10" points="257.55 389.32 256.6 389.07 255.88 389.83 255.78 388.72 254.93 388.18 255.83 387.73 256.02 386.63 256.67 387.47 257.64 387.34 257.14 388.3 257.55 389.32"/>
              <polygon class="cls-10" points="252.72 387.66 251.76 387.42 251.04 388.18 250.95 387.06 250.1 386.52 251 386.07 251.19 384.98 251.83 385.81 252.81 385.68 252.31 386.64 252.72 387.66"/>
              <polygon class="cls-10" points="256.75 402.62 255.8 402.37 255.08 403.14 254.99 402.02 254.13 401.48 255.03 401.03 255.22 399.93 255.87 400.77 256.84 400.64 256.34 401.6 256.75 402.62"/>
              <polygon class="cls-10" points="249.14 393.39 248.19 393.15 247.47 393.91 247.37 392.8 246.52 392.25 247.42 391.81 247.61 390.71 248.26 391.55 249.23 391.42 248.73 392.38 249.14 393.39"/>
              <polygon class="cls-10" points="253.36 398.22 252.4 397.97 251.68 398.73 251.59 397.62 250.73 397.07 251.63 396.63 251.82 395.53 252.47 396.37 253.45 396.24 252.95 397.2 253.36 398.22"/>
            </g>
          </g>
        </g>
        <polygon class="cls-5" points="201.63 387.14 201.63 398.51 216.5 408.87 216.5 393.9 201.63 387.14"/>
        <polygon class="cls-35" points="216.5 393.9 216.5 389.03 200.92 382.64 200.92 386.93 216.5 393.9"/>
        <polygon class="cls-39" points="216.5 389.03 258.98 382.64 258.98 386.33 216.5 393.9 216.5 389.03"/>
        <path class="cls-36" d="m200.92,382.64c.43-.02,44.57-4.78,44.57-4.78l13.48,4.78-42.48,6.39-15.57-6.39Z"/>
        <g class="cls-42">
          <g>
            <polygon class="cls-10" points="200.93 383.89 200.26 383.16 199.36 383.37 199.76 382.42 199.31 381.5 200.23 381.65 200.85 380.88 201.01 381.91 201.85 382.35 201.03 382.85 200.93 383.89"/>
            <polygon class="cls-10" points="207.93 388.91 207.26 388.18 206.36 388.39 206.77 387.44 206.31 386.53 207.23 386.67 207.85 385.9 208.01 386.94 208.85 387.37 208.03 387.87 207.93 388.91"/>
            <polygon class="cls-10" points="201.79 390.79 201.13 390.06 200.22 390.27 200.63 389.32 200.17 388.4 201.09 388.55 201.71 387.77 201.87 388.81 202.71 389.25 201.9 389.74 201.79 390.79"/>
            <polygon class="cls-10" points="208.44 395.53 207.78 394.79 206.87 395 207.28 394.06 206.82 393.14 207.74 393.29 208.36 392.51 208.52 393.55 209.36 393.99 208.55 394.48 208.44 395.53"/>
            <polygon class="cls-10" points="214.6 393.02 213.94 392.29 213.03 392.5 213.44 391.55 212.99 390.63 213.9 390.78 214.53 390.01 214.68 391.04 215.52 391.48 214.71 391.98 214.6 393.02"/>
            <polygon class="cls-10" points="214.21 400.07 213.54 399.34 212.64 399.55 213.04 398.6 212.59 397.69 213.5 397.83 214.13 397.06 214.29 398.1 215.13 398.53 214.31 399.03 214.21 400.07"/>
            <polygon class="cls-10" points="209.44 401.55 208.78 400.82 207.87 401.02 208.28 400.08 207.82 399.16 208.74 399.31 209.36 398.53 209.52 399.57 210.36 400.01 209.55 400.5 209.44 401.55"/>
            <polygon class="cls-10" points="204.06 403.13 203.4 402.4 202.5 402.61 202.9 401.66 202.45 400.74 203.36 400.89 203.99 400.12 204.15 401.15 204.99 401.59 204.17 402.09 204.06 403.13"/>
            <polygon class="cls-10" points="198.75 401.53 198.08 400.79 197.18 401 197.59 400.06 197.13 399.14 198.05 399.28 198.67 398.51 198.83 399.55 199.67 399.99 198.85 400.48 198.75 401.53"/>
            <polygon class="cls-10" points="211.03 408.17 210.37 407.43 209.46 407.64 209.87 406.69 209.42 405.78 210.33 405.92 210.96 405.15 211.12 406.19 211.95 406.62 211.14 407.12 211.03 408.17"/>
            <polygon class="cls-10" points="219.07 413.61 218.4 412.88 217.5 413.09 217.9 412.14 217.45 411.22 218.37 411.37 218.99 410.6 219.15 411.63 219.99 412.07 219.17 412.57 219.07 413.61"/>
            <polygon class="cls-10" points="226.39 407.76 225.72 407.03 224.82 407.24 225.22 406.29 224.77 405.38 225.68 405.52 226.31 404.75 226.47 405.79 227.31 406.22 226.49 406.72 226.39 407.76"/>
            <polygon class="cls-10" points="192.87 392.01 192.21 391.28 191.3 391.48 191.71 390.54 191.26 389.62 192.17 389.77 192.8 388.99 192.96 390.03 193.79 390.47 192.98 390.96 192.87 392.01"/>
            <polygon class="cls-10" points="192.91 400.26 192.25 399.52 191.34 399.73 191.75 398.78 191.29 397.87 192.21 398.01 192.83 397.24 192.99 398.28 193.83 398.72 193.02 399.21 192.91 400.26"/>
            <polygon class="cls-10" points="194.3 383.91 193.63 383.17 192.73 383.38 193.13 382.43 192.68 381.52 193.59 381.66 194.22 380.89 194.38 381.93 195.22 382.37 194.4 382.86 194.3 383.91"/>
            <polygon class="cls-10" points="205.72 383.16 205.05 382.43 204.15 382.64 204.55 381.69 204.1 380.78 205.01 380.92 205.64 380.15 205.8 381.19 206.64 381.62 205.82 382.12 205.72 383.16"/>
            <polygon class="cls-10" points="199.39 378.83 198.73 378.1 197.82 378.31 198.23 377.36 197.77 376.44 198.69 376.59 199.31 375.81 199.47 376.85 200.31 377.29 199.5 377.78 199.39 378.83"/>
            <polygon class="cls-10" points="219.69 393.81 219.03 393.08 218.13 393.29 218.53 392.34 218.08 391.42 218.99 391.57 219.62 390.79 219.78 391.83 220.62 392.27 219.8 392.76 219.69 393.81"/>
            <polygon class="cls-10" points="212.86 388.57 212.2 387.84 211.29 388.04 211.7 387.1 211.24 386.18 212.16 386.33 212.78 385.55 212.94 386.59 213.78 387.03 212.97 387.52 212.86 388.57"/>
            <polygon class="cls-10" points="203.25 397.13 202.58 396.4 201.68 396.61 202.08 395.66 201.63 394.74 202.54 394.89 203.17 394.12 203.33 395.15 204.17 395.59 203.35 396.09 203.25 397.13"/>
            <polygon class="cls-10" points="216.19 407.22 215.53 406.49 214.62 406.7 215.03 405.75 214.58 404.83 215.49 404.98 216.12 404.21 216.27 405.24 217.11 405.68 216.3 406.18 216.19 407.22"/>
            <polygon class="cls-10" points="197.65 388.72 196.98 387.99 196.08 388.2 196.48 387.25 196.03 386.33 196.94 386.48 197.57 385.7 197.73 386.74 198.57 387.18 197.75 387.67 197.65 388.72"/>
            <polygon class="cls-10" points="197.11 395.27 196.45 394.53 195.54 394.74 195.95 393.8 195.49 392.88 196.41 393.03 197.03 392.25 197.19 393.29 198.03 393.73 197.22 394.22 197.11 395.27"/>
            <polygon class="cls-10" points="224.57 401.13 223.91 400.4 223 400.61 223.41 399.66 222.96 398.74 223.87 398.89 224.5 398.12 224.65 399.15 225.49 399.59 224.68 400.09 224.57 401.13"/>
            <polygon class="cls-10" points="228.45 400.25 227.79 399.52 226.88 399.73 227.29 398.78 226.84 397.86 227.75 398.01 228.38 397.23 228.54 398.27 229.37 398.71 228.56 399.2 228.45 400.25"/>
            <polygon class="cls-10" points="225.28 396.21 224.62 395.48 223.72 395.68 224.12 394.74 223.67 393.82 224.58 393.97 225.21 393.19 225.37 394.23 226.21 394.67 225.39 395.16 225.28 396.21"/>
            <polygon class="cls-10" points="222.08 410.49 221.42 409.76 220.52 409.97 220.92 409.02 220.47 408.1 221.38 408.25 222.01 407.47 222.17 408.51 223.01 408.95 222.19 409.44 222.08 410.49"/>
            <polygon class="cls-10" points="219.94 398.81 219.28 398.08 218.37 398.29 218.78 397.34 218.32 396.42 219.24 396.57 219.86 395.79 220.02 396.83 220.86 397.27 220.05 397.76 219.94 398.81"/>
            <polygon class="cls-10" points="221.25 405.05 220.59 404.32 219.68 404.53 220.09 403.58 219.64 402.66 220.55 402.81 221.17 402.03 221.33 403.07 222.17 403.51 221.36 404 221.25 405.05"/>
          </g>
        </g>
        <polygon class="cls-15" points="206.59 384.96 206.25 401.73 208.71 403.45 209.06 385.98 206.59 384.96"/>
        <polygon class="cls-44" points="216.5 393.9 201.63 387.25 201.63 388.15 216.5 395.27 216.5 393.9"/>
        <path class="cls-47" d="m222.04,386.25c2.17.16,4.39-.56,6.28-1.39.87-.38,1.71-.82,2.5-1.31.78-.48,1.09-.59,1.94-1.04.84-.45,3.02.36,5.38.89,2.01.45,4.81,1.15,6.92.81,1.64-.27,3.17-1.58,1.11-2.56-.9-.43-2.12-.55-3.12-.75-1.15-.22-2.31-.44-3.47-.63-2.35-.39-4.75-.68-7.14-.42-2.16.24-4.22.88-6.27,1.47-2.25.65-5.01.97-6.85,2.32-.89.65-1.08,1.04-.11,1.7.8.54,1.82.83,2.82.91Z"/>
        <polygon class="cls-6" points="209.06 385.98 252.15 380.22 250.18 379.52 206.59 384.96 209.06 385.98"/>
        <g>
          <path class="cls-11" d="m244.03,372.05c-2.02-1.16-8.32,2.79-10.22,5.05s-1.94,3.39-1.65,3.76c.29.36,12.97-4.66,12.92-6.41s-1.04-2.4-1.04-2.4Z"/>
          <path class="cls-49" d="m245.07,374.45c-.05-1.75-1.04-2.4-1.04-2.4-.49-.28-1.23-.26-2.09-.04,1.34.05,2,.52,1.38,1.32-.73.93-4.18,2.57-7.12,3.65-2.36.87-3.07,1.56-3.26,1.8.29-.42,1.57-2.24,3.23-3.77-1,.73-1.84,1.47-2.36,2.09-1.9,2.26-1.94,3.39-1.65,3.76.03,0,.07.01.1.02,1.22-.06,12.87-4.75,12.82-6.43Z"/>
          <path class="cls-4" d="m232.16,380.86c1.31,2.07,12.03,2.62,14.54.63,2.52-1.99.97-7.51-2.67-9.44,0,0,.61,1.05-.78,2.18-1.53,1.23-5.48,2.1-10.06,4.69-1.18.67-1.18,1.7-1.03,1.94Z"/>
          <path class="cls-43" d="m247.94,378.63c-1.55,2.96-5.73,4.21-8.97,3.77-3.36-.45-5.91-.79-5.78-1.96.11-.97,5.96-4.05,7.93-5.06-2.3.89-5.37,2.09-7.94,3.54-1.18.67-1.18,1.7-1.03,1.94,1.31,2.07,12.03,2.62,14.54.63.83-.66,1.22-1.69,1.23-2.86Z"/>
          <path class="cls-43" d="m242.81,381.84c-4.51,1.02-8.5-.32-7.6-.79.9-.46,8.26-.92,9.7-2.75,1.44-1.83-.46-1.75-2.94-.88-2.49.87-6.46,3.81-7.2,3.22-.62-.49-.18-2.09,3.82-4.27-1.78.73-3.7,1.58-5.41,2.55-1.18.67-1.18,1.7-1.03,1.94,1.31,2.07,12.03,2.62,14.54.63.5-.39.84-.93,1.03-1.54-.65.82-1.89,1.2-4.92,1.89Z"/>
          <path class="cls-14" d="m245.38,373.89c.89.2,1.53,1.62,1.9,2.63.37,1,.31,1.84-.05,2.58s-1.54,1.65-1.95.87c-.41-.78,1.01-1.74.8-2.69-.21-.95-1.06-1.44-2.59-.91-1.54.52-1.47-.79-.36-1.51,1.11-.71,1.65-1.11,2.26-.97Z"/>
          <path class="cls-14" d="m244.31,374.51c.85-.03,2.07.95,2.62,2.26.54,1.31.44,2.36-.02,2.54-.46.18-.3-1.54-.86-2.43-.56-.9-2.97-2.32-1.74-2.37Z"/>
        </g>
        <path class="cls-6" d="m238.93,385.59l-15.01-5.41s2.77-.3,2.93-.31c.16-.02,15.44,5.28,15.44,5.28l-3.36.45Z"/>
        <g>
          <path class="cls-11" d="m240.41,366.5c1.05,2.24-2.39,9.69-4.38,11.99-1.99,2.3-2.99,2.43-3.31,2.12-.33-.31,4-15.1,5.56-15.15,1.55-.05,2.13,1.05,2.13,1.05Z"/>
          <path class="cls-49" d="m238.28,365.45c1.55-.05,2.13,1.05,2.13,1.05.25.54.24,1.39.06,2.39-.05-1.53-.48-2.26-1.18-1.49-.82.89-2.24,4.93-3.17,8.36-.75,2.75-1.35,3.6-1.56,3.83.37-.36,1.97-1.93,3.3-3.92-.64,1.18-1.29,2.19-1.83,2.82-1.99,2.3-2.99,2.43-3.31,2.12,0-.04-.01-.07-.02-.11.04-1.4,4.08-15,5.58-15.04Z"/>
          <path class="cls-4" d="m232.72,380.61c-1.85-1.37-2.43-13.59-.69-16.59,1.74-3,6.64-1.56,8.38,2.49,0,0-.94-.64-1.92,1.03-1.08,1.82-1.81,6.39-4.06,11.79-.58,1.39-1.49,1.45-1.71,1.29Z"/>
          <path class="cls-43" d="m234.55,362.43c-2.61,1.95-3.68,6.81-3.26,10.48.43,3.81.76,6.71,1.79,6.49.86-.18,3.53-7.05,4.41-9.37-.76,2.68-1.8,6.26-3.07,9.29-.58,1.39-1.49,1.45-1.71,1.29-1.85-1.37-2.43-13.59-.69-16.59.57-.99,1.49-1.49,2.52-1.58Z"/>
          <path class="cls-43" d="m231.75,368.48c-.86,5.22.37,9.7.77,8.64s.73-9.5,2.34-11.26c1.61-1.76,1.55.42.8,3.31s-3.31,7.62-2.78,8.43c.44.67,1.86.08,3.74-4.63-.63,2.07-1.36,4.33-2.21,6.34-.58,1.39-1.49,1.45-1.71,1.29-1.85-1.37-2.43-13.59-.69-16.59.34-.59.81-1.01,1.36-1.27-.72.79-1.05,2.24-1.63,5.74Z"/>
          <path class="cls-14" d="m238.77,365.07c-.19-1.01-1.45-1.65-2.34-2.01-.89-.36-1.63-.25-2.28.21-.65.46-1.45,1.86-.76,2.29.69.42,1.53-1.26,2.37-1.07.84.19,1.28,1.12.83,2.91-.45,1.79.72,1.64,1.34.32.62-1.32.97-1.95.84-2.64Z"/>
          <path class="cls-14" d="m238.23,366.32c.02-.98-.86-2.31-2.03-2.86s-2.1-.36-2.25.18c-.16.53,1.36.25,2.16.84.8.59,2.09,3.26,2.12,1.84Z"/>
        </g>
        <path class="cls-47" d="m230.64,383.13l.99-.17s2,.72,2.08.75c.08.03,6.4.68,6.31.65-.09-.03-6.41-2.29-6.41-2.29,0,0-1.77-.15-1.82-.14-.05.02-1.15,1.2-1.15,1.2Z"/>
        <polygon class="cls-15" points="238.93 385.59 238.93 403.69 242.29 402.92 242.29 385.15 238.93 385.59"/>
        <path class="cls-44" d="m258.27,386.46l-41.77,7.44v1.36s30.01-5.43,35.04-5.54c5.03-.1,6.73.36,6.73.36v-3.63Z"/>
        <g>
          <path class="cls-11" d="m219.24,375.73c1.66-1.7,8.81.36,11.24,2.01,2.43,1.65,2.77,2.74,2.59,3.17-.19.43-13.8-.85-14.21-2.57s.39-2.61.39-2.61Z"/>
          <path class="cls-49" d="m218.85,378.34c-.41-1.71.39-2.61.39-2.61.4-.41,1.12-.6,2.02-.63-1.29.42-1.8,1.07-.99,1.67.95.69,4.73,1.31,7.87,1.53,2.52.17,3.39.65,3.63.82-.39-.33-2.11-1.72-4.12-2.73,1.16.43,2.17.91,2.84,1.36,2.43,1.65,2.77,2.74,2.59,3.17-.03.02-.06.03-.09.05-1.2.28-13.73-.97-14.12-2.61Z"/>
          <path class="cls-4" d="m233.07,380.91c-.73,2.38-10.99,5.92-13.96,4.71-2.96-1.22-2.9-6.99.13-9.89,0,0-.32,1.19,1.33,1.89,1.8.76,5.87.48,11,1.71,1.32.31,1.58,1.31,1.5,1.59Z"/>
          <path class="cls-43" d="m217.17,383.19c2.28,2.43,6.67,2.46,9.69,1.13,3.14-1.38,5.53-2.43,5.1-3.53-.36-.91-6.84-2.24-9.02-2.66,2.46.21,5.76.51,8.63,1.2,1.32.31,1.58,1.31,1.5,1.59-.73,2.38-10.99,5.92-13.96,4.71-.98-.4-1.62-1.3-1.95-2.42Z"/>
          <path class="cls-43" d="m222.98,384.86c4.64-.28,8.17-2.71,7.17-2.9-.99-.2-8.26,1.44-10.14.07-1.88-1.37-.01-1.82,2.63-1.68,2.64.14,7.27,1.86,7.83,1.09.47-.65-.37-2.08-4.83-3.05,1.91.2,4.01.49,5.92.94,1.32.31,1.58,1.31,1.5,1.59-.73,2.38-10.99,5.92-13.96,4.71-.59-.24-1.05-.66-1.41-1.2.85.61,2.15.63,5.27.44Z"/>
          <path class="cls-14" d="m218.41,377.89c-.82.45-1.06,2-1.16,3.08-.09,1.07.18,1.87.72,2.48.54.61,1.93,1.16,2.13.3s-1.44-1.4-1.48-2.38.65-1.69,2.28-1.61,1.22-1.18-.05-1.56c-1.27-.38-1.89-.61-2.45-.3Z"/>
          <path class="cls-14" d="m219.6,378.19c-.84.21-1.77,1.5-1.95,2.93s.2,2.41.69,2.46-.11-1.57.2-2.6c.31-1.03,2.28-3.09,1.07-2.78Z"/>
        </g>
        <g>
          <path class="cls-11" d="m226.63,365.73c2.22.27,5.67,7.71,6.22,10.88s.08,4.18-.33,4.32c-.41.13-8.69-12.28-7.85-13.77.84-1.49,1.96-1.42,1.96-1.42Z"/>
          <path class="cls-49" d="m224.67,367.15c.84-1.49,1.96-1.42,1.96-1.42.53.07,1.14.55,1.76,1.29-1.13-.81-1.91-.81-1.75.28.19,1.27,2.31,4.88,4.27,7.69,1.57,2.25,1.85,3.3,1.9,3.63-.05-.55-.29-2.94-.98-5.32.5,1.27.86,2.45,1.01,3.32.55,3.17.08,4.18-.33,4.32-.03-.02-.06-.03-.09-.05-.99-.83-8.56-12.29-7.76-13.73Z"/>
          <path class="cls-4" d="m232.51,380.92c-2.03.97-11.21-5.35-12.41-8.68-1.19-3.33,2.61-7.14,6.52-6.51,0,0-.99.53-.34,2.39.71,2.04,3.61,5.3,6.25,10.47.68,1.33.21,2.22-.03,2.33Z"/>
          <path class="cls-43" d="m220.38,368.97c-.05,3.56,2.86,7.3,5.75,8.97,3,1.74,5.29,3.06,5.71,1.96.35-.91-3.12-7.3-4.3-9.43,1.51,2.23,3.52,5.22,5,8.12.68,1.33.21,2.22-.03,2.33-2.03.97-11.21-5.35-12.41-8.68-.39-1.1-.24-2.25.27-3.27Z"/>
          <path class="cls-43" d="m223.19,375.01c3.29,3.75,7.23,5.11,6.69,4.14-.54-.97-6.47-6.04-6.83-8.55s1.18-1.23,2.85,1.11c1.68,2.34,3.65,7.41,4.53,7.37.74-.03,1.1-1.71-1.24-6.14,1.15,1.76,2.37,3.72,3.35,5.65.68,1.33.21,2.22-.03,2.33-2.03.97-11.21-5.35-12.41-8.68-.24-.66-.28-1.34-.16-2,.17,1.13,1.03,2.25,3.24,4.77Z"/>
          <path class="cls-14" d="m224.67,366.47c-.84-.39-2.01.44-2.78,1.08-.76.64-1.1,1.4-1.13,2.27-.03.87.53,2.41,1.23,2,.7-.41-.05-2.15.56-2.84.61-.69,1.53-.58,2.58.85,1.04,1.43,1.59.24.98-1.08-.6-1.33-.87-2.01-1.44-2.28Z"/>
          <path class="cls-14" d="m225.27,367.69c-.7-.57-2.16-.49-3.21.31s-1.44,1.78-1.14,2.23c.3.45.95-1.15,1.82-1.57.88-.42,3.54-.13,2.53-.96Z"/>
        </g>
        <g>
          <path class="cls-4" d="m231.88,379.39c-.26.34-.39.8-.43,1.25-.02.26,0,.52.08.76.2.57.74.87,1.23,1.11.13.06.25.13.39.13.26,0,.48-.2.67-.4.22-.23.43-.48.58-.77.15-.29.24-.64.19-.97-.1-.65-.7-1.12-1.18-1.43-.51-.33-1.15-.19-1.53.31Z"/>
          <path class="cls-11" d="m234.65,380.66c-.02-.16-.08-.3-.15-.43-.03.15-.09.29-.16.42-.15.29-.36.54-.58.77-.19.2-.41.41-.67.4-.14,0-.27-.07-.39-.13-.46-.23-.95-.5-1.18-1,0,.04,0,.07,0,.11-.02.26,0,.52.08.76.2.57.74.87,1.23,1.11.13.06.25.13.39.13.26,0,.48-.2.67-.4.22-.23.43-.48.58-.77.15-.29.24-.64.19-.97Z"/>
        </g>
      </g>
      <g>
        <polygon class="cls-27" points="101.88 379.88 101.88 401.43 116.72 407.82 116.72 385.2 101.88 379.88"/>
        <polygon class="cls-22" points="116.72 385.2 131.89 380.15 131.89 401.43 116.72 407.82 116.72 385.2"/>
        <path class="cls-45" d="m131.89,380.15v7.63c-.33-1.03-1.06-2.38-2.69-3.03-2.75-1.1-11.74,2.79-12.48,3.11-.03.01-.05.02-.05.02-3.08-2.59-12.31-5.93-14.79-6.8v-1.19l14.84,5.32,15.18-5.05Z"/>
        <polygon class="cls-26" points="101.28 379.73 116.72 385.2 116.72 378.26 101.28 373.16 101.28 379.73"/>
        <path class="cls-23" d="m116.72,378.26c.17-.06,15.74-4.77,15.74-4.77v6.65l-15.74,5.05v-6.94Z"/>
        <polygon class="cls-7" points="106.42 374.86 106.1 403.24 109.75 404.82 109 375.71 106.42 374.86"/>
        <polygon class="cls-18" points="123.71 376.14 123.84 404.82 127.34 403.35 126.46 375.21 123.71 376.14"/>
        <polygon class="cls-27" points="101.28 373.16 116.72 369.27 132.46 373.5 116.72 378.26 101.28 373.16"/>
        <polygon class="cls-7" points="109 375.71 125.71 371.69 122.51 370.83 106.42 374.86 109 375.71"/>
        <polygon class="cls-7" points="123.71 376.14 109.3 371.14 111.93 370.48 126.46 375.31 123.71 376.14"/>
        <path class="cls-18" d="m112.78,376.42c.34-.34.68-.69,1.08-.92-.02.52,0,1.03.07,1.54.48-1.07,1.41-1.69,2.12-2.54.1-.12.2-.27.21-.44,0-.17-.08-.33-.2-.42-.12-.09-.26-.13-.4-.14-.55-.07-1.17.1-1.62.5-.16.14-.26.35-.39.53-.19.26-.36.52-.5.82-.16.34-.28.7-.35,1.07Z"/>
        <path class="cls-7" d="m117.26,375.57c-.15.57-.42,1.08-.69,1.58.22-.08.44-.19.65-.3.36-.19.72-.38,1.08-.57.03.4,0,.8-.09,1.19.6-.61,1.08-1.39,1.4-2.26.05-.15.11-.3.11-.46,0-.15-.04-.3-.09-.43-.16-.4-.46-.71-.8-.89-.34-.18-.72-.22-1.08-.16-.15.02-.33.08-.44.22-.16.19-.1.34-.03.56.15.49.12,1.04,0,1.53Z"/>
        <path class="cls-46" d="m111.47,375.06c.21.04.78.05.99-.01,1.31-.41,2.24-.54,3.64-.88.22-.05.44-.06.65-.13.09-.03.2-.09.2-.21,0-.06-.02-.11-.05-.16-.1-.15-.27-.22-.42-.26-.91-.26-1.86-.21-2.79-.25-.5-.02-1-.08-1.49.02-.46.09-.95.33-1.26.78-.28.41.17,1.03.53,1.1Z"/>
        <path class="cls-18" d="m116.74,372.08c-.24-.68-.63-1.14-1.02-1.55-.64-.68-1.3-1.28-1.98-1.8-.39-.3-.81-.58-1.24-.52-.3.05-.62.32-.71.84-.11.57.1,1.18.33,1.61.72,1.37,1.77,2.05,2.81,2.3.45.11.9.14,1.36.1.13-.01.39.04.5-.14.14-.22.04-.62-.04-.85Z"/>
        <path class="cls-7" d="m114.84,371.68c-1.31-.62-3.29-1.92-2.89-3.08-.66.91-1.11,2.47-1.03,3.97.03.62.15,1.28.43,1.65.12.17.27.27.42.34.51.26,1.06.2,1.58.09,1.16-.22,2.3-.63,3.45-1.04.02-.25.23-1.03.07-1.03-.21,0-.4-.09-.55-.16-.45-.2-1.03-.54-1.48-.75Z"/>
        <path class="cls-46" d="m116.2,373.78c.08.06,2.07.72,2.07.72,0,0,.82.24,1.9.13.54-.06,1.16-.17,1.64-.26.25-.05.29-.4.06-.51-.15-.07-.27-.12-.28-.14-.05-.05-5.36-.61-5.36-.61l-.02.67Z"/>
        <path class="cls-18" d="m116.68,372.33c.21-.71.58-1.22.95-1.69.61-.76,1.24-1.46,1.9-2.07.38-.36.79-.7,1.22-.69.3,0,.63.24.75.73.13.55-.05,1.19-.26,1.65-.66,1.46-1.68,2.29-2.7,2.68-.44.17-.9.27-1.35.29-.13,0-.38.09-.5-.07-.14-.2-.07-.62,0-.85Z"/>
        <path class="cls-7" d="m118.6,371.67c1.28-.8,3.14-2.39,2.69-3.5.7.82,1.27,2.34,1.26,3.84,0,.63-.09,1.29-.35,1.71-.12.18-.26.31-.4.4-.5.33-1.04.34-1.58.31-1.16-.06-2.32-.31-3.48-.56-.03-.24-.27-1-.12-1.02.21-.03.4-.15.54-.23.44-.27,1-.68,1.44-.95Z"/>
        <g>
          <path class="cls-32" d="m119.65,377.69c-.08-.17-.16-.34-.22-.51-.17-.5-.23-1.02-.28-1.54.16.06.26.22.3.39.04.16.04.34.07.5.04.24.14.46.23.68.15.34.31.7.61.91.12.08.25.14.32.26.02.03.03.08.01.11-.01.02-.03.04-.05.05-.25.16-.38,0-.56-.19-.19-.19-.32-.42-.44-.66Z"/>
          <path class="cls-45" d="m123.18,376.63c-1.69-.65-2.39,1.53-2.5,1.94-.29-.07-2.68-.62-2.94,1.24-.47,3.42,5.15,2.53,5.15,2.53,0,0,3.51-4.47.29-5.71Zm-1.85,3.09c-.2.11-.44.04-.55-.16-.11-.2-.04-.44.16-.55.2-.11.44-.04.55.16.11.2.04.44-.16.55Z"/>
          <path class="cls-31" d="m122.89,376.16c-1.69-.65-2.39,1.53-2.5,1.94-.29-.07-2.68-.62-2.94,1.24-.47,3.42,5.15,2.53,5.15,2.53,0,0,3.51-4.47.29-5.71Zm-1.85,3.09c-.2.11-.44.04-.55-.16-.11-.2-.04-.44.16-.55.2-.11.44-.04.55.16.11.2.04.44-.16.55Z"/>
          <path class="cls-18" d="m117.7,374.34c.66.55,1.18,1.24,1.69,1.93.54.74,1.1,1.53,1.19,2.44.1.13.34.04.39-.13.05-.16-.02-.34-.1-.49-.81-1.67-1.93-3.2-3.37-4.37-.18-.15-.38-.3-.61-.36-.03,0-.07-.01-.09.01-.02.02-.02.05-.04.07.15.13.25.33.4.47.17.15.35.29.53.43Z"/>
        </g>
        <path class="cls-32" d="m116.73,371.55c-.11-.04-.22,0-.32.07-.14.08-.28.2-.35.42-.06.18-.06.39-.07.6,0,.18,0,.36,0,.55,0,.14.01.29.05.41.08.29.28.37.46.41.24.05.49.05.73,0,.1-.02.21-.05.29-.17.09-.15.12-.4.12-.62.01-.5-.04-1.01-.15-1.47-.02-.08-.04-.16-.07-.22-.07-.13-.17-.18-.27-.2-.24-.05-.48.04-.69.24h.25Z"/>
        <path class="cls-29" d="m117.54,371.77c-.02-.08-.04-.16-.07-.22-.05-.1-.12-.15-.19-.18.08.42.12.86.11,1.31,0,.23-.03.47-.12.62-.08.12-.19.16-.29.17-.24.04-.49.04-.73,0-.07-.01-.14-.03-.2-.07,0,.08.02.16.04.23.08.29.28.37.46.41.24.05.49.05.73,0,.1-.02.21-.05.29-.17.09-.15.12-.4.12-.62.01-.5-.04-1.01-.15-1.47Z"/>
        <path class="cls-46" d="m123,376.2c.91.5,1.55,4.05-.95,4.84-2.5.79-4.78-.82-4.37-2.37-.11.18-.2.4-.24.67-.47,3.42,5.15,2.53,5.15,2.53,0,0,3.43-4.36.4-5.66Z"/>
        <path class="cls-3" d="m106.1,403.24l3.66,1.57-.75-29.11c.01,5.75-.32,25.41-.91,27-.6,1.59-.04-5.41-.68-5.45-.56-.04-.11,4.78-.71,5.38-.6.6-.27-27.78-.27-27.78l-.33,28.39Z"/>
        <path class="cls-3" d="m124.83,403.37c-.77-.8-1.02-12.46-1.09-20.25l.1,21.7,3.49-1.47-.52-16.72c.19,7.21.31,15.24-.06,15.59-.53.5-.58-1.82-.83-3.93-.33-2.81-.59-.93-.26,1.25.2,1.32-.23,4.44-.82,3.82Z"/>
      </g>
    </g>
  </g>
</svg>