<?xml version="1.0" encoding="UTF-8"?>
<svg id="katman_2" data-name="katman 2" xmlns="http://www.w3.org/2000/svg" xmlns:xlink="http://www.w3.org/1999/xlink" viewBox="0 0 130.12 183.02">
  <defs>
    <style>
      .cls-1, .cls-2, .cls-3 {
        fill: none;
      }

      .cls-2 {
        stroke-width: .75px;
      }

      .cls-2, .cls-3 {
        stroke: #b88b32;
        stroke-linecap: round;
        stroke-linejoin: round;
      }

      .cls-4 {
        clip-path: url(#clippath);
      }

      .cls-5 {
        fill: #e5e5e5;
      }

      .cls-6 {
        fill: #b88b32;
      }

      .cls-7 {
        fill: #bfbdae;
      }

      .cls-8 {
        fill: #056b22;
      }

      .cls-9 {
        filter: url(#drop-shadow-1);
      }

      .cls-3 {
        stroke-width: .5px;
      }

      .cls-10 {
        opacity: .29;
      }

      .cls-11 {
        opacity: .45;
      }

      .cls-12 {
        opacity: .46;
      }

      .cls-13 {
        opacity: .42;
      }

      .cls-14 {
        opacity: .38;
      }

      .cls-15 {
        opacity: .36;
      }
    </style>
    <filter id="drop-shadow-1" filterUnits="userSpaceOnUse">
      <feOffset dx="3" dy="3"/>
      <feGaussianBlur result="blur" stdDeviation="4"/>
      <feFlood flood-color="#000" flood-opacity=".35"/>
      <feComposite in2="blur" operator="in"/>
      <feComposite in="SourceGraphic"/>
    </filter>
    <clipPath id="clippath">
      <rect class="cls-1" y="0" width="130.12" height="183.02"/>
    </clipPath>
  </defs>
  <g id="Objects">
    <g class="cls-9">
      <g>
        <g>
          <rect class="cls-8" width="130.12" height="183.02"/>
          <g class="cls-10">
            <g>
              <path class="cls-6" d="m74.39,148.21c-.16,0-.31-.12-.34-.28l-4.17-21.13c-.04-.19.08-.37.27-.41.19-.04.37.08.41.27l4.17,21.13c.04.19-.08.37-.27.41-.02,0-.04,0-.07,0Z"/>
              <path class="cls-6" d="m63.27,144.4c-.1,0-.2-.04-.27-.13-.12-.15-.1-.37.05-.49l17.37-14.2c.15-.12.37-.1.49.05.12.15.1.37-.05.49l-17.37,14.2c-.06.05-.14.08-.22.08Z"/>
              <path class="cls-6" d="m82.03,140.93s-.08,0-.12-.02l-19.8-6.93c-.18-.06-.28-.26-.21-.44.06-.18.26-.28.44-.21l19.8,6.93c.18.06.28.26.21.44-.05.14-.18.23-.33.23Z"/>
              <path class="cls-6" d="m75.61,141.8c-.07,0-.13-.02-.19-.06l-3.11-2.04c-.16-.1-.21-.32-.1-.48.11-.16.32-.2.48-.1l2.31,1.51-.83-2.69c-.05-.15.02-.32.15-.4l2.42-1.47-2.63-.5c-.15-.03-.26-.15-.28-.3l-.23-2.1-1.62,1.54c-.11.1-.27.13-.41.05l-2.34-1.27.77,2.54c.05.18-.05.38-.23.43-.18.06-.38-.05-.43-.23l-1.02-3.35c-.04-.13,0-.28.11-.37.11-.09.26-.1.39-.04l2.86,1.55,1.94-1.85c.1-.09.24-.12.36-.08.12.05.21.16.23.29l.28,2.54,3.26.62c.14.03.25.14.28.28.03.14-.04.28-.16.36l-2.96,1.79,1.03,3.35c.04.14,0,.29-.12.38-.06.05-.13.07-.21.07Z"/>
              <path class="cls-6" d="m70.4,142.49s-.07,0-.11-.02c-.14-.05-.24-.18-.24-.33l-.04-3.36-3.48-.46c-.15-.02-.27-.13-.3-.28-.03-.15.04-.3.17-.37l3.13-1.73c.17-.09.38-.03.47.13.09.17.03.38-.13.47l-2.21,1.22,2.74.36c.17.02.3.17.3.34l.03,2.66,1.62-2.11c.12-.15.33-.18.49-.06.15.12.18.33.06.49l-2.23,2.91c-.07.09-.17.14-.28.14Z"/>
              <path class="cls-6" d="m71.09,144.23c-.08,0-.15-.02-.22-.07-.15-.12-.18-.34-.06-.49l1.91-2.42c.11-.14.32-.17.47-.07l2.6,1.73c.16.11.2.32.1.48-.11.16-.32.2-.48.1l-2.34-1.56-1.71,2.17c-.07.09-.17.13-.27.13Z"/>
              <path class="cls-6" d="m72.13,145.78c-.08,0-.16-.03-.23-.09-.14-.13-.16-.35-.03-.49l1.39-1.56c.12-.13.31-.15.45-.06l1.74,1.17c.16.11.2.32.09.48-.11.16-.32.2-.48.09l-1.48-1-1.19,1.33c-.07.08-.16.12-.26.12Z"/>
              <path class="cls-6" d="m66.4,144.75s-.04,0-.05,0c-.19-.03-.32-.2-.29-.39l.4-2.61-2.55-.46c-.19-.03-.31-.21-.28-.4.03-.19.22-.31.4-.28l2.88.52c.18.03.31.21.28.39l-.45,2.95c-.03.17-.17.29-.34.29Z"/>
              <path class="cls-6" d="m68.49,143.36s-.01,0-.02,0c-.19-.01-.34-.17-.33-.37l.16-2.8-2.29-.3c-.19-.03-.32-.2-.3-.39.03-.19.2-.32.39-.3l2.61.35c.18.02.31.18.3.36l-.17,3.12c0,.18-.16.33-.35.33Z"/>
              <path class="cls-6" d="m65.18,137.3c-.12,0-.24-.06-.3-.17-.09-.17-.04-.38.13-.47l2.32-1.32-1.07-2.39c-.08-.18,0-.38.18-.46.17-.08.38,0,.46.17l1.2,2.68c.07.16.01.35-.14.44l-2.59,1.48c-.05.03-.11.05-.17.05Z"/>
              <path class="cls-6" d="m63.79,136.26c-.11,0-.22-.05-.28-.15-.11-.16-.07-.37.08-.48l1.52-1.08-.6-1.64c-.07-.18.03-.38.21-.45.18-.07.38.03.45.21l.7,1.89c.05.15,0,.31-.12.4l-1.74,1.23c-.06.04-.13.06-.2.06Z"/>
              <path class="cls-6" d="m71.38,132.86c-.07,0-.13-.02-.19-.06l-2.72-1.8c-.16-.11-.2-.32-.1-.48.11-.16.32-.2.48-.1l2.45,1.62,1.77-2.4c.11-.15.33-.19.49-.07.15.11.19.33.07.48l-1.97,2.67c-.07.09-.17.14-.28.14Z"/>
              <path class="cls-6" d="m70.94,130.48c-.06,0-.12-.02-.18-.05l-1.94-1.15c-.17-.1-.22-.31-.12-.48.1-.16.31-.22.48-.12l1.68,1,1.17-1.44c.12-.15.34-.17.49-.05.15.12.17.34.05.49l-1.36,1.67c-.07.08-.17.13-.27.13Z"/>
              <path class="cls-6" d="m75.26,134.67c-.1,0-.19-.04-.26-.12-.07-.08-.1-.18-.08-.29l.52-3.09c.03-.19.21-.31.4-.28.19.03.32.21.29.4l-.45,2.67,3.05-.13c.19-.01.35.14.36.33,0,.19-.14.35-.33.36l-3.47.15h-.02Z"/>
              <path class="cls-6" d="m79.43,133.14h-2.36c-.09,0-.18-.04-.25-.11-.07-.07-.1-.16-.1-.26l.1-2.25c0-.19.18-.34.36-.33.19,0,.34.17.33.36l-.08,1.89h2c.19,0,.35.15.35.35s-.16.35-.35.35Z"/>
              <path class="cls-6" d="m79.25,141.97c-.14,0-.26-.08-.32-.21l-1.04-2.47c-.04-.09-.04-.18,0-.27.04-.09.11-.15.2-.19l2.26-.82c.18-.07.38.03.45.21.07.18-.03.38-.21.44l-1.92.7.9,2.13c.07.18,0,.38-.18.45-.04.02-.09.03-.13.03Z"/>
              <path class="cls-6" d="m77.52,142.67c-.15,0-.28-.09-.33-.24l-1.27-3.85c-.05-.16.01-.32.15-.41l3.18-1.86c.16-.1.38-.04.47.12.1.17.04.38-.12.47l-2.93,1.72,1.18,3.59c.06.18-.04.38-.22.44-.04.01-.07.02-.11.02Z"/>
            </g>
            <polyline class="cls-6" points="69.68 136.15 68.66 132.79 71.74 134.47 73.87 132.45 74.18 135.24 77.69 135.91 74.5 137.85 75.61 141.45 72.5 139.41"/>
            <polyline class="cls-6" points="69.7 136.26 66.57 137.99 70.36 138.48 70.4 142.15 70.4 142.15 72.63 139.24"/>
          </g>
          <g class="cls-4">
            <g class="cls-11">
              <path class="cls-7" d="m112.44,189.12c-.4,0-.76-.28-.85-.69l-10.35-52.31c-.09-.46.21-.92.68-1.01.46-.09.92.21,1.01.67l10.36,52.31c.09.46-.21.92-.68,1.01-.06.01-.11.02-.17.02Z"/>
              <path class="cls-7" d="m83.97,181.41c-.25,0-.49-.1-.66-.31-.31-.36-.26-.9.1-1.21l44.01-36.87c.36-.31.91-.26,1.22.1.31.36.26.9-.1,1.21l-44.01,36.87c-.16.13-.36.2-.56.2Z"/>
              <path class="cls-7" d="m131.42,171.12c-.1,0-.19-.02-.29-.05l-49.18-17.15c-.45-.16-.69-.64-.53-1.09.16-.45.65-.68,1.1-.53l49.18,17.15c.45.16.69.65.53,1.09-.12.35-.46.57-.81.57Z"/>
              <path class="cls-7" d="m115.46,173.26c-.16,0-.33-.05-.47-.14l-7.73-5.05c-.4-.26-.51-.79-.25-1.19.26-.4.8-.51,1.2-.25l5.73,3.74-2.05-6.65c-.12-.38.04-.78.38-.98l6.02-3.63-6.53-1.24c-.37-.07-.65-.38-.7-.75l-.57-5.2-4.01,3.81c-.27.26-.68.31-1.01.13l-5.81-3.15,1.92,6.29c.14.45-.12.93-.58,1.07-.46.14-.94-.12-1.08-.57l-2.54-8.3c-.1-.33,0-.69.28-.91.27-.22.65-.25.96-.09l7.11,3.85,4.82-4.57c.24-.22.58-.3.89-.18.31.11.53.39.56.71l.69,6.29,8.1,1.53c.35.07.62.34.69.69.06.35-.09.7-.4.89l-7.36,4.44,2.56,8.29c.11.34-.02.72-.31.94-.15.11-.34.17-.52.17Z"/>
              <path class="cls-7" d="m102.52,174.98c-.09,0-.18-.01-.27-.04-.35-.12-.59-.44-.59-.8l-.09-8.33-8.65-1.12c-.37-.05-.67-.33-.74-.69-.07-.36.1-.73.43-.91l7.77-4.29c.42-.23.94-.08,1.17.33.23.41.08.94-.33,1.17l-5.48,3.03,6.8.88c.43.06.75.41.75.84l.07,6.58,4.02-5.22c.29-.38.83-.45,1.21-.16.38.29.45.83.16,1.2l-5.54,7.2c-.17.22-.42.34-.69.34Z"/>
              <path class="cls-7" d="m104.24,179.26c-.19,0-.37-.06-.53-.18-.37-.29-.44-.83-.15-1.2l4.75-6c.28-.35.78-.43,1.16-.18l6.47,4.29c.4.26.5.8.24,1.19-.26.39-.8.5-1.2.24l-5.81-3.85-4.25,5.38c-.17.22-.42.33-.68.33Z"/>
              <path class="cls-7" d="m106.83,183.12c-.21,0-.41-.07-.57-.22-.36-.31-.39-.86-.07-1.21l3.45-3.86c.29-.32.77-.38,1.13-.14l4.31,2.89c.39.27.5.8.23,1.19-.27.39-.8.49-1.2.23l-3.69-2.48-2.95,3.3c-.17.19-.41.29-.64.29Z"/>
              <path class="cls-7" d="m92.6,180.55s-.09,0-.13,0c-.47-.07-.8-.51-.72-.98l.99-6.46-6.33-1.14c-.47-.08-.78-.53-.7-1,.08-.47.53-.77,1-.69l7.16,1.29c.46.08.77.51.7.97l-1.12,7.29c-.07.42-.43.73-.85.73Z"/>
              <path class="cls-7" d="m97.77,177.12s-.03,0-.05,0c-.48-.03-.84-.43-.81-.9l.39-6.92-5.68-.75c-.47-.06-.8-.5-.74-.96.06-.47.5-.8.97-.74l6.47.86c.45.06.77.45.75.9l-.43,7.72c-.03.46-.41.81-.86.81Z"/>
              <path class="cls-7" d="m89.58,162.11c-.3,0-.59-.15-.75-.43-.24-.41-.09-.93.32-1.17l5.76-3.27-2.66-5.92c-.19-.43,0-.94.44-1.13.43-.19.95,0,1.14.43l2.98,6.63c.18.4.02.88-.36,1.09l-6.43,3.66c-.13.08-.28.11-.43.11Z"/>
              <path class="cls-7" d="m86.12,159.54c-.27,0-.54-.13-.7-.36-.28-.39-.19-.92.2-1.2l3.78-2.67-1.5-4.06c-.16-.44.06-.94.51-1.1.45-.16.94.07,1.11.51l1.72,4.67c.13.36,0,.77-.31.99l-4.31,3.05c-.15.11-.33.16-.5.16Z"/>
              <path class="cls-7" d="m104.97,151.14c-.16,0-.33-.05-.48-.14l-6.77-4.46c-.4-.26-.5-.79-.24-1.19.26-.39.8-.5,1.2-.24l6.08,4.01,4.39-5.95c.28-.38.82-.47,1.21-.18.38.28.47.82.18,1.2l-4.88,6.61c-.17.23-.43.35-.7.35Z"/>
              <path class="cls-7" d="m103.88,145.25c-.15,0-.3-.04-.44-.12l-4.81-2.86c-.41-.24-.54-.77-.3-1.18.25-.41.77-.54,1.18-.3l4.17,2.47,2.91-3.57c.3-.37.85-.42,1.21-.12.37.3.43.84.13,1.21l-3.39,4.14c-.17.21-.42.32-.67.32Z"/>
              <path class="cls-7" d="m114.6,155.62c-.25,0-.48-.11-.65-.29-.17-.19-.25-.46-.2-.71l1.29-7.65c.08-.47.52-.78.99-.7.47.08.79.52.71.99l-1.12,6.61,7.57-.32c.47-.03.88.35.9.82.02.47-.35.87-.83.89l-8.63.36h-.04Z"/>
              <path class="cls-7" d="m124.95,151.82h-5.86c-.23,0-.46-.1-.62-.26-.16-.17-.25-.4-.24-.63l.25-5.58c.02-.47.44-.85.9-.82.48.02.84.42.82.89l-.21,4.68h4.96c.48,0,.86.38.86.86s-.39.86-.86.86Z"/>
              <path class="cls-7" d="m124.52,173.69c-.34,0-.66-.2-.8-.53l-2.59-6.11c-.09-.22-.09-.46,0-.67.09-.21.27-.38.5-.46l5.61-2.04c.45-.16.94.07,1.11.51.16.44-.07.94-.52,1.1l-4.76,1.73,2.24,5.28c.18.44-.02.94-.46,1.12-.11.04-.22.07-.33.07Z"/>
              <path class="cls-7" d="m120.21,175.4c-.36,0-.7-.23-.82-.59l-3.14-9.54c-.13-.38.03-.8.38-1.01l7.89-4.61c.41-.24.94-.1,1.18.3.24.41.1.93-.31,1.17l-7.29,4.26,2.93,8.88c.15.45-.1.93-.55,1.08-.09.03-.18.04-.27.04Z"/>
            </g>
            <g class="cls-14">
              <g>
                <path class="cls-5" d="m18.97,103.18c-.21,0-.4-.15-.45-.37l-5.47-27.64c-.05-.25.11-.48.36-.53.25-.05.49.11.53.36l5.47,27.64c.05.25-.11.48-.36.53-.03,0-.06,0-.09,0Z"/>
                <path class="cls-5" d="m4.38,98.19c-.13,0-.26-.06-.35-.17-.16-.19-.13-.48.06-.64l22.8-18.58c.19-.16.48-.13.64.06.16.19.13.48-.06.64l-22.8,18.58c-.08.07-.19.1-.29.1Z"/>
                <path class="cls-5" d="m29,93.66c-.05,0-.1,0-.15-.03l-25.99-9.06c-.24-.08-.36-.34-.28-.58.08-.24.34-.36.58-.28l25.99,9.06c.24.08.36.34.28.58-.07.19-.24.3-.43.3Z"/>
                <path class="cls-5" d="m20.56,94.8c-.09,0-.17-.02-.25-.07l-4.09-2.67c-.21-.14-.27-.42-.13-.63.14-.21.42-.27.63-.13l3.03,1.98-1.08-3.52c-.06-.2.02-.41.2-.52l3.18-1.92-3.45-.65c-.2-.04-.35-.2-.37-.4l-.3-2.75-2.12,2.01c-.14.14-.36.16-.53.07l-3.07-1.66,1.02,3.33c.07.24-.06.49-.3.57-.24.07-.5-.06-.57-.3l-1.34-4.39c-.05-.18,0-.37.15-.48.14-.12.34-.14.51-.05l3.76,2.03,2.55-2.42c.13-.12.31-.16.47-.1.16.06.28.21.3.38l.37,3.32,4.28.81c.19.03.33.18.36.36.03.18-.05.37-.21.47l-3.89,2.35,1.35,4.38c.06.18,0,.38-.16.5-.08.06-.18.09-.27.09Z"/>
                <path class="cls-5" d="m13.72,95.7s-.1,0-.14-.02c-.19-.06-.31-.23-.31-.43l-.05-4.4-4.57-.59c-.2-.03-.35-.17-.39-.37-.04-.19.05-.38.23-.48l4.1-2.27c.22-.12.5-.04.62.18.12.22.04.49-.18.62l-2.9,1.6,3.59.47c.23.03.39.22.4.44l.04,3.48,2.12-2.76c.15-.2.44-.24.64-.09.2.15.24.44.08.64l-2.93,3.8c-.09.12-.22.18-.36.18Z"/>
                <path class="cls-5" d="m14.64,97.97c-.1,0-.2-.03-.28-.1-.2-.16-.23-.44-.08-.64l2.51-3.17c.15-.19.41-.23.61-.1l3.42,2.27c.21.14.27.42.13.63-.14.21-.42.26-.63.12l-3.07-2.03-2.25,2.84c-.09.11-.22.17-.36.17Z"/>
                <path class="cls-5" d="m16,100.01c-.11,0-.22-.04-.3-.12-.19-.17-.2-.45-.04-.64l1.82-2.04c.15-.17.41-.2.6-.07l2.28,1.53c.21.14.26.42.12.63-.14.21-.42.26-.63.12l-1.95-1.31-1.56,1.74c-.09.1-.22.15-.34.15Z"/>
                <path class="cls-5" d="m8.48,98.65s-.05,0-.07,0c-.25-.04-.42-.27-.38-.51l.52-3.42-3.34-.6c-.25-.04-.41-.28-.37-.53.04-.25.28-.41.53-.37l3.78.68c.24.04.41.27.37.51l-.59,3.85c-.04.22-.23.39-.45.39Z"/>
                <path class="cls-5" d="m11.22,96.83s-.02,0-.03,0c-.25-.01-.44-.23-.43-.48l.2-3.66-3-.4c-.25-.03-.42-.26-.39-.51.03-.25.26-.42.51-.39l3.42.45c.24.03.41.24.4.47l-.23,4.08c-.01.24-.21.43-.45.43Z"/>
                <path class="cls-5" d="m6.89,88.91c-.16,0-.31-.08-.4-.23-.12-.22-.05-.49.17-.62l3.04-1.73-1.41-3.13c-.1-.23,0-.5.23-.6.23-.1.5,0,.6.23l1.58,3.5c.1.21.01.46-.19.58l-3.4,1.93c-.07.04-.15.06-.23.06Z"/>
                <path class="cls-5" d="m5.06,87.54c-.14,0-.28-.07-.37-.19-.15-.2-.1-.49.11-.63l2-1.41-.79-2.14c-.09-.24.04-.5.27-.58.24-.09.5.03.58.27l.91,2.47c.07.19,0,.41-.16.53l-2.28,1.61c-.08.06-.17.08-.26.08Z"/>
                <path class="cls-5" d="m15.02,83.11c-.09,0-.17-.02-.25-.08l-3.58-2.36c-.21-.14-.27-.42-.13-.63.14-.21.42-.27.63-.13l3.21,2.12,2.32-3.14c.15-.2.43-.25.64-.1.2.15.25.43.1.63l-2.58,3.49c-.09.12-.23.19-.37.19Z"/>
                <path class="cls-5" d="m14.44,79.99c-.08,0-.16-.02-.23-.06l-2.54-1.51c-.22-.13-.29-.41-.16-.62.13-.21.41-.28.63-.16l2.2,1.31,1.54-1.88c.16-.19.45-.22.64-.07.2.16.22.44.07.64l-1.79,2.19c-.09.11-.22.17-.35.17Z"/>
                <path class="cls-5" d="m20.11,85.47c-.13,0-.25-.06-.34-.15-.09-.1-.13-.24-.11-.38l.68-4.04c.04-.25.28-.41.53-.37.25.04.42.28.37.52l-.59,3.49,4-.17c.25-.02.46.18.47.43.01.25-.18.46-.44.47l-4.56.19h-.02Z"/>
                <path class="cls-5" d="m25.58,83.47h-3.1c-.12,0-.24-.05-.33-.14-.09-.09-.13-.21-.13-.33l.13-2.95c.01-.25.23-.45.48-.43.25.01.45.22.44.47l-.11,2.47h2.62c.25,0,.46.2.46.45s-.2.45-.46.45Z"/>
                <path class="cls-5" d="m25.35,95.02c-.18,0-.35-.1-.42-.28l-1.37-3.23c-.05-.12-.05-.24,0-.36.05-.11.14-.2.26-.24l2.96-1.08c.24-.08.5.03.58.27.09.23-.04.5-.27.58l-2.51.91,1.18,2.79c.1.23-.01.5-.24.59-.06.02-.12.04-.18.04Z"/>
                <path class="cls-5" d="m23.07,95.93c-.19,0-.37-.12-.43-.31l-1.66-5.04c-.07-.2.02-.42.2-.53l4.17-2.44c.22-.13.5-.05.62.16.13.22.06.49-.16.62l-3.85,2.25,1.55,4.69c.08.24-.05.49-.29.57-.05.02-.1.02-.14.02Z"/>
              </g>
              <polyline class="cls-5" points="12.78 87.4 11.44 83.01 15.49 85.21 18.28 82.56 18.69 86.22 23.3 87.09 19.11 89.62 20.57 94.34 16.48 91.67"/>
              <polyline class="cls-5" points="12.81 87.55 8.71 89.81 13.67 90.46 13.73 95.25 13.73 95.25 16.65 91.45"/>
            </g>
            <g class="cls-12">
              <rect class="cls-7" x="112.6" y="25.64" width=".46" height="23.74" transform="translate(-4.95 21.22) rotate(-10.51)"/>
              <polygon class="cls-7" points="103.51 45.49 103.22 45.15 121.46 29.74 121.75 30.09 103.51 45.49"/>
              <polygon class="cls-7" points="123.35 41.46 101.46 33.75 101.62 33.33 123.5 41.03 123.35 41.46"/>
              <polygon class="cls-7" points="117.68 43.82 113.06 40.8 113.31 40.42 116.87 42.75 115.55 38.46 119.38 36.14 115.19 35.35 114.82 31.98 112.24 34.42 108.53 32.42 109.71 36.27 109.27 36.4 107.77 31.49 112.16 33.87 115.17 31.02 115.6 34.97 120.63 35.92 116.09 38.67 117.68 43.82"/>
              <polygon class="cls-7" points="110.21 44.85 110.15 39.59 104.7 38.89 109.41 36.29 109.63 36.68 106.13 38.61 110.61 39.2 110.65 43.53 113.18 40.25 113.54 40.52 110.21 44.85"/>
              <polygon class="cls-7" points="111.52 46.59 111.16 46.31 113.8 42.98 117.4 45.36 117.15 45.74 113.9 43.59 111.52 46.59"/>
              <polygon class="cls-7" points="112.88 48.64 112.54 48.34 114.5 46.16 116.94 47.8 116.69 48.17 114.57 46.75 112.88 48.64"/>
              <polygon class="cls-7" points="105.64 46.03 105.19 45.97 105.52 43.47 103.1 43.05 103.17 42.6 106.03 43.1 105.64 46.03"/>
              <polygon class="cls-7" points="108.38 45.09 107.92 45.09 107.92 41.45 104.49 41.24 104.52 40.79 108.38 41.03 108.38 45.09"/>
              <polygon class="cls-7" points="103.71 37.59 103.48 37.19 106.7 35.36 105.21 32.05 105.62 31.86 107.28 35.55 103.71 37.59"/>
              <polygon class="cls-7" points="101.9 36.22 101.64 35.85 103.77 34.34 102.92 32.03 103.35 31.87 104.32 34.51 101.9 36.22"/>
              <polygon class="cls-7" points="111.77 31.89 108.03 29.42 108.28 29.04 111.68 31.29 113.9 28.64 114.25 28.93 111.77 31.89"/>
              <polygon class="cls-7" points="111.2 28.77 108.49 27.16 108.72 26.77 111.1 28.18 112.53 26.37 112.89 26.66 111.2 28.77"/>
              <polygon class="cls-7" points="115.14 34.88 115.77 30.11 116.35 30.18 115.8 34.33 121.36 34.12 121.39 34.65 115.14 34.88"/>
              <polygon class="cls-7" points="122.29 32.18 118.97 32.18 118.87 29.7 119.32 29.68 119.41 31.73 122.29 31.73 122.29 32.18"/>
              <polygon class="cls-7" points="121.62 42.92 120.38 40.15 123.58 38.99 123.73 39.42 121 40.41 122.04 42.74 121.62 42.92"/>
              <polygon class="cls-7" points="119.34 43.36 117.84 39.27 122.17 36.74 122.4 37.13 118.4 39.47 119.77 43.2 119.34 43.36"/>
            </g>
            <g class="cls-13">
              <g>
                <path class="cls-7" d="m26.46,131.84c-.19,0-.36-.13-.39-.33l-.15-.79c-.04-.22.1-.42.32-.47.22-.04.43.1.47.32l.15.79c.04.22-.1.43-.32.47-.03,0-.05,0-.07,0Z"/>
                <path class="cls-7" d="m33.52,169.87c-.19,0-.36-.13-.39-.33l-.29-1.59c-.04-.22.1-.42.32-.46.22-.04.43.1.47.32l.29,1.58c.04.22-.1.42-.32.46-.02,0-.05,0-.07,0Zm-.59-3.17c-.19,0-.36-.13-.4-.33l-.29-1.58c-.04-.22.1-.42.32-.46.22-.04.43.1.47.32l.29,1.59c.04.22-.1.42-.32.47-.02,0-.05,0-.07,0Zm-.59-3.17c-.19,0-.36-.13-.4-.33l-.29-1.58c-.04-.22.1-.43.32-.47.22-.04.43.1.47.32l.29,1.58c.04.22-.1.43-.32.47-.03,0-.05,0-.07,0Zm-.59-3.17c-.19,0-.36-.13-.4-.33l-.29-1.58c-.04-.22.1-.43.32-.47.22-.04.43.1.47.32l.29,1.58c.04.22-.1.43-.32.46-.03,0-.05,0-.07,0Zm-.59-3.17c-.19,0-.36-.13-.4-.33l-.29-1.58c-.04-.22.1-.43.32-.47.22-.04.43.1.47.32l.29,1.58c.04.22-.1.42-.32.47-.02,0-.05,0-.07,0Zm-.59-3.17c-.19,0-.36-.13-.39-.33l-.29-1.58c-.04-.22.1-.43.32-.47.22-.04.43.1.47.32l.29,1.58c.04.22-.1.43-.32.47-.03,0-.05,0-.07,0Zm-.59-3.17c-.19,0-.36-.13-.39-.33l-.29-1.58c-.04-.22.1-.43.32-.47.22-.04.43.1.47.32l.29,1.58c.04.22-.1.43-.32.47-.03,0-.05,0-.07,0Zm-.59-3.17c-.19,0-.36-.14-.4-.33l-.29-1.59c-.04-.22.1-.42.32-.47.22-.04.43.1.47.32l.29,1.58c.04.22-.1.42-.32.46-.02,0-.05,0-.07,0Zm-.59-3.17c-.19,0-.36-.13-.4-.33l-.29-1.58c-.04-.22.1-.43.32-.47.22-.04.43.1.47.32l.29,1.59c.04.22-.1.42-.32.46-.02,0-.05,0-.07,0Zm-.59-3.17c-.19,0-.36-.13-.4-.33l-.29-1.58c-.04-.22.1-.43.32-.47.22-.04.43.1.47.32l.29,1.58c.04.22-.1.43-.32.47-.02,0-.05,0-.07,0Zm-.59-3.17c-.19,0-.36-.13-.4-.33l-.29-1.58c-.04-.22.1-.43.32-.47.22-.04.43.1.47.32l.29,1.58c.04.22-.1.42-.32.47-.02,0-.05,0-.07,0Zm-.59-3.17c-.19,0-.36-.13-.4-.33l-.29-1.59c-.04-.22.1-.42.32-.47.22-.04.43.1.47.32l.29,1.58c.04.22-.1.42-.32.46-.03,0-.05,0-.07,0Z"/>
                <path class="cls-7" d="m33.96,172.24c-.19,0-.36-.13-.4-.33l-.15-.79c-.04-.22.1-.43.32-.46.22-.04.43.1.47.32l.15.79c.04.22-.1.42-.32.46-.02,0-.05,0-.07,0Z"/>
              </g>
              <g>
                <path class="cls-7" d="m45.02,138.77c-.11,0-.23-.05-.31-.14-.14-.17-.12-.42.05-.56l.61-.52c.17-.14.42-.12.57.05.14.17.12.42-.05.56l-.61.52c-.08.06-.17.09-.26.09Z"/>
                <path class="cls-7" d="m15.29,163.87c-.11,0-.23-.05-.31-.14-.14-.17-.12-.42.05-.56l1.24-1.05c.17-.14.42-.12.57.05.14.17.12.42-.05.56l-1.24,1.05c-.08.06-.17.09-.26.09Zm2.48-2.09c-.11,0-.23-.05-.31-.14-.14-.17-.12-.42.05-.56l1.24-1.05c.17-.14.42-.12.57.05.14.17.12.42-.05.56l-1.24,1.05c-.08.06-.17.09-.26.09Zm2.48-2.09c-.11,0-.23-.05-.31-.14-.14-.17-.12-.42.05-.56l1.24-1.05c.17-.14.42-.12.57.04.14.17.12.42-.05.56l-1.24,1.05c-.08.06-.17.09-.26.09Zm2.48-2.09c-.11,0-.23-.05-.31-.14-.14-.17-.12-.42.05-.56l1.24-1.05c.17-.14.42-.12.57.05.14.17.12.42-.05.56l-1.24,1.05c-.08.06-.17.1-.26.1Zm2.48-2.09c-.11,0-.23-.05-.31-.14-.14-.17-.12-.42.05-.56l1.24-1.05c.17-.14.42-.12.57.04.14.17.12.42-.04.56l-1.24,1.05c-.08.06-.17.1-.26.1Zm2.48-2.09c-.11,0-.23-.05-.31-.14-.14-.17-.12-.42.05-.56l1.24-1.05c.17-.14.42-.12.57.05.14.17.12.42-.05.56l-1.24,1.05c-.08.06-.17.09-.26.09Zm2.48-2.09c-.11,0-.23-.05-.31-.14-.14-.17-.12-.42.05-.56l1.24-1.05c.17-.14.42-.12.57.05.14.17.12.42-.05.56l-1.24,1.05c-.08.06-.17.1-.26.1Zm2.48-2.09c-.11,0-.23-.05-.31-.14-.14-.17-.12-.42.05-.56l1.24-1.05c.17-.14.42-.12.57.04.14.17.12.42-.05.56l-1.24,1.05c-.08.06-.17.09-.26.09Zm2.48-2.09c-.11,0-.23-.05-.31-.14-.14-.17-.12-.42.05-.56l1.24-1.05c.17-.14.42-.12.57.05.14.17.12.42-.05.56l-1.24,1.05c-.08.07-.17.1-.26.1Zm2.48-2.09c-.11,0-.23-.05-.31-.14-.14-.17-.12-.42.05-.56l1.24-1.05c.17-.14.42-.12.57.05.14.17.12.42-.05.56l-1.24,1.05c-.08.06-.17.1-.26.1Zm2.48-2.09c-.11,0-.23-.05-.31-.14-.14-.17-.12-.42.05-.56l1.24-1.05c.17-.14.42-.12.57.05.14.17.12.42-.05.56l-1.24,1.05c-.08.06-.17.1-.26.1Zm2.48-2.09c-.11,0-.23-.05-.31-.14-.14-.17-.12-.42.05-.56l1.24-1.05c.17-.14.42-.12.57.05.14.17.12.42-.05.56l-1.24,1.05c-.08.06-.17.09-.26.09Z"/>
                <path class="cls-7" d="m13.44,165.44c-.11,0-.23-.05-.31-.14-.14-.17-.12-.42.05-.56l.61-.52c.17-.14.42-.12.57.05.14.17.12.42-.05.56l-.61.52c-.08.06-.17.09-.26.09Z"/>
              </g>
              <g>
                <path class="cls-7" d="m10.98,144.91s-.09,0-.13-.02l-.76-.27c-.21-.07-.32-.3-.25-.51.07-.21.3-.32.51-.24l.76.27c.21.07.32.3.24.51-.06.16-.21.27-.38.27Z"/>
                <path class="cls-7" d="m46.61,157.45s-.09,0-.13-.02l-1.48-.52c-.21-.07-.32-.3-.25-.51.07-.21.3-.32.51-.24l1.48.52c.21.07.32.3.24.51-.06.16-.21.27-.38.27Zm-2.97-1.04s-.09,0-.13-.02l-1.48-.52c-.21-.07-.32-.3-.25-.51.07-.21.3-.32.51-.24l1.48.52c.21.07.32.3.24.51-.06.16-.21.27-.38.27Zm-2.97-1.04s-.09,0-.13-.02l-1.49-.52c-.21-.07-.32-.3-.24-.51.08-.21.3-.32.51-.24l1.48.52c.21.07.32.3.24.51-.06.16-.21.27-.38.27Zm-2.97-1.04s-.09,0-.13-.02l-1.48-.52c-.21-.07-.32-.3-.25-.51.07-.21.3-.32.51-.24l1.48.52c.21.07.32.3.25.51-.06.16-.21.27-.38.27Zm-2.97-1.04s-.09,0-.13-.02l-1.48-.52c-.21-.07-.32-.3-.25-.51.07-.21.3-.32.51-.24l1.48.52c.21.07.32.3.24.51-.06.16-.21.27-.38.27Zm-2.97-1.05s-.09,0-.13-.02l-1.48-.52c-.21-.07-.32-.3-.25-.51s.3-.32.51-.24l1.48.52c.21.07.32.3.25.51-.06.16-.21.27-.38.27Zm-2.97-1.04s-.09,0-.13-.02l-1.48-.52c-.21-.07-.32-.3-.25-.51.08-.21.3-.32.51-.24l1.49.52c.21.07.32.3.24.51-.06.16-.21.27-.38.27Zm-2.97-1.04s-.09,0-.13-.02l-1.48-.52c-.21-.07-.32-.3-.24-.51s.3-.32.51-.24l1.48.52c.21.07.32.3.24.51-.06.16-.21.27-.38.27Zm-2.97-1.04s-.09,0-.13-.02l-1.49-.52c-.21-.07-.32-.3-.24-.51.07-.21.3-.32.51-.24l1.48.52c.21.07.32.3.24.51-.06.16-.21.27-.38.27Zm-2.97-1.04s-.09,0-.13-.02l-1.48-.52c-.21-.07-.32-.3-.25-.51s.3-.32.51-.24l1.48.52c.21.07.32.3.25.51-.06.16-.21.27-.38.27Zm-2.97-1.04s-.09,0-.13-.02l-1.48-.52c-.21-.07-.32-.3-.25-.51.08-.21.3-.32.51-.24l1.49.52c.21.07.32.3.24.51-.06.16-.21.27-.38.27Zm-2.97-1.04s-.09,0-.13-.02l-1.48-.52c-.21-.07-.32-.3-.24-.51s.3-.32.51-.24l1.49.52c.21.07.32.3.24.51-.06.16-.21.27-.38.27Z"/>
                <path class="cls-7" d="m48.85,158.24s-.09,0-.13-.02l-.76-.27c-.21-.07-.32-.3-.25-.51.07-.21.3-.32.51-.24l.76.27c.21.07.32.3.25.51-.06.16-.21.27-.38.27Z"/>
              </g>
              <g>
                <path class="cls-7" d="m24.26,149.58c-.17,0-.33-.11-.38-.28l-.23-.77c-.06-.21.06-.43.27-.5.21-.06.44.06.5.27l.23.76c.06.21-.06.44-.27.5-.04.01-.08.02-.12.02Z"/>
                <path class="cls-7" d="m23.64,147.58c-.17,0-.33-.11-.39-.28l-.38-1.24c-.06-.21.06-.43.27-.5.21-.06.44.06.5.27l.38,1.24c.06.21-.06.43-.27.5-.04.01-.08.02-.12.02Zm-.76-2.48c-.17,0-.33-.11-.38-.28l-.38-1.24c-.06-.21.05-.43.27-.5.22-.07.44.05.5.27l.38,1.24c.06.21-.06.43-.27.5-.04.01-.08.02-.12.02Z"/>
                <path class="cls-7" d="m22.12,142.61c-.17,0-.33-.11-.38-.28l-.23-.76c-.05-.16,0-.32.13-.43.13-.1.3-.12.45-.04l.71.38c.2.11.27.35.16.54-.08.16-.26.23-.42.2,0,.17-.12.32-.29.37-.04.01-.08.02-.12.02Z"/>
                <path class="cls-7" d="m27.19,144.71c-.06,0-.13-.02-.19-.05l-1.15-.62c-.2-.11-.27-.35-.16-.54.11-.19.35-.26.54-.16l1.15.62c.2.11.27.35.16.54-.07.13-.21.21-.35.21Zm-2.29-1.24c-.06,0-.13-.02-.19-.05l-1.15-.62c-.19-.11-.27-.35-.16-.54.11-.19.35-.27.55-.16l1.15.62c.19.11.27.35.16.54-.07.13-.21.21-.35.21Z"/>
                <path class="cls-7" d="m29.04,145.13c-.07,0-.13,0-.19-.03l-.71-.22c-.2-.06-.27-.2-.16-.31.11-.11.35-.15.55-.09l.45.14.37-.2c.16-.09.41-.08.57,0,.15.09.15.23-.01.32l-.58.31c-.08.04-.18.06-.28.06Z"/>
                <path class="cls-7" d="m30.87,143.98c-.11,0-.21-.04-.29-.12-.15-.16-.15-.41.01-.57l1.25-1.19c.16-.15.41-.15.57.01.15.16.15.41-.01.57l-1.25,1.19c-.08.07-.18.11-.28.11Z"/>
                <path class="cls-7" d="m34.05,141.84c-.2,0-.37-.15-.4-.35-.16.15-.41.14-.56-.02-.15-.16-.15-.41.01-.57l.58-.55c.11-.1.27-.14.42-.09.14.05.25.18.26.33l.09.8c.02.22-.14.42-.36.44-.01,0-.03,0-.04,0Z"/>
                <path class="cls-7" d="m34.41,145.09c-.2,0-.38-.15-.4-.36l-.18-1.62c-.02-.22.13-.42.36-.44.22-.02.42.13.44.35l.18,1.62c.02.22-.13.42-.36.44-.01,0-.03,0-.04,0Z"/>
                <path class="cls-7" d="m35.47,147.65s-.05,0-.08,0l-.79-.15c-.17-.03-.31-.18-.33-.35l-.09-.8c-.02-.22.13-.42.36-.44.22-.03.42.13.44.35l.05.5.5.09c.22.04.36.25.32.47-.04.19-.21.32-.39.32Z"/>
                <path class="cls-7" d="m40.71,148.65s-.05,0-.08,0l-1.31-.25c-.22-.04-.36-.25-.32-.47.04-.22.25-.36.47-.32l1.31.25c.22.04.36.25.32.47-.04.19-.21.32-.4.32Zm-2.62-.5s-.05,0-.08,0l-1.31-.25c-.22-.04-.36-.25-.32-.47.04-.22.25-.36.47-.32l1.31.25c.22.04.36.25.32.47-.04.19-.21.33-.39.33Z"/>
                <path class="cls-7" d="m42.13,149.46c-.14,0-.27-.07-.34-.19-.09-.14-.07-.31.02-.44-.13-.09-.2-.24-.17-.41.04-.22.25-.36.47-.32l.79.15c.16.03.29.16.32.32.03.16-.04.33-.19.41l-.69.41c-.06.04-.14.06-.21.06Z"/>
                <path class="cls-7" d="m37.31,152.37c-.14,0-.27-.07-.34-.19-.12-.19-.05-.43.13-.55l1.2-.73c.19-.12.44-.05.55.13.12.19.05.43-.13.55l-1.2.73c-.07.04-.14.06-.21.06Zm2.41-1.46c-.14,0-.27-.07-.34-.19-.12-.19-.05-.43.13-.55l1.2-.73c.19-.11.44-.05.55.13.12.19.05.43-.13.55l-1.21.73c-.06.04-.14.06-.21.06Z"/>
                <path class="cls-7" d="m35.65,154.28c-.17,0-.33-.11-.39-.28l-.24-.76c-.05-.18.02-.36.17-.46l.69-.41c.19-.12.44-.06.55.13.12.19.05.43-.13.55l-.42.25.14.47c.07.21-.05.43-.27.5-.04.01-.08.02-.12.02Z"/>
                <path class="cls-7" d="m37.33,159.72c-.17,0-.33-.11-.38-.28l-.42-1.36c-.07-.21.05-.44.27-.5.21-.07.44.05.5.27l.42,1.36c.07.21-.05.43-.27.5-.04.01-.08.02-.12.02Zm-.84-2.72c-.17,0-.33-.11-.38-.28l-.42-1.36c-.06-.21.05-.43.27-.5.21-.07.44.05.5.27l.42,1.36c.07.21-.05.43-.27.5-.04.01-.08.02-.12.02Z"/>
                <path class="cls-7" d="m37.99,161.84c-.08,0-.15-.02-.22-.06l-.67-.44c-.19-.12-.24-.37-.12-.55.09-.13.23-.19.38-.18.03-.14.13-.26.28-.31.21-.06.44.05.5.27l.24.76c.05.16,0,.34-.14.44-.07.05-.16.08-.24.08Z"/>
                <path class="cls-7" d="m36.14,160.63c-.08,0-.15-.02-.22-.06l-1.17-.77c-.19-.12-.24-.37-.12-.55.12-.18.37-.23.56-.11l1.17.77c.19.12.24.37.12.55-.08.12-.21.18-.34.18Zm-2.35-1.53c-.08,0-.15-.02-.22-.07l-1.17-.77c-.19-.12-.24-.37-.12-.55.12-.18.37-.24.56-.11l1.17.77c.19.12.24.37.12.55-.08.12-.21.18-.34.18Z"/>
                <path class="cls-7" d="m31.45,157.57c-.08,0-.15-.02-.22-.07l-.67-.44c-.19-.12-.24-.37-.12-.55.12-.18.37-.24.56-.12l.67.44c.19.12.24.37.12.55-.08.12-.21.18-.34.18Z"/>
              </g>
              <g>
                <path class="cls-7" d="m23.6,150.23c-.14,0-.28-.07-.35-.2-.11-.19-.04-.44.16-.54l.7-.39c.2-.11.44-.04.55.16s.04.44-.16.54l-.7.39c-.06.03-.13.05-.2.05Z"/>
                <path class="cls-7" d="m18.93,152.81c-.14,0-.28-.07-.35-.21-.11-.19-.04-.44.16-.54l1.17-.64c.19-.11.44-.04.55.16.11.19.04.44-.16.54l-1.17.65c-.06.03-.13.05-.2.05Zm2.33-1.29c-.14,0-.28-.07-.35-.21-.11-.19-.04-.44.16-.54l1.17-.64c.19-.11.44-.04.55.16.11.19.04.44-.16.54l-1.17.64c-.06.04-.13.05-.19.05Z"/>
                <path class="cls-7" d="m17.86,153.95s-.03,0-.05,0l-.8-.1c-.17-.02-.31-.15-.34-.32-.03-.17.05-.34.2-.42l.7-.39c.19-.11.44-.04.55.16.07.12.06.27,0,.38.1.08.16.22.14.36-.03.2-.2.35-.4.35Z"/>
                <path class="cls-7" d="m23.59,154.69s-.04,0-.05,0l-1.43-.19c-.22-.03-.38-.23-.35-.45.03-.22.23-.38.45-.34l1.43.19c.22.03.38.23.35.45-.03.2-.2.35-.4.35Zm-2.87-.37s-.03,0-.05,0l-1.43-.19c-.22-.03-.37-.23-.35-.45.03-.22.23-.38.45-.34l1.43.19c.22.03.38.23.35.45-.03.2-.2.35-.4.35Z"/>
                <path class="cls-7" d="m25.83,155.78c-.22,0-.4-.18-.4-.4v-.45s-.46-.06-.46-.06c-.22-.03-.38-.23-.35-.45.03-.22.23-.38.45-.34l.8.1c.2.03.35.19.35.39v.8c.01.22-.17.4-.39.4h0Z"/>
                <path class="cls-7" d="m25.89,161.27c-.22,0-.4-.18-.4-.4l-.02-1.37c0-.22.18-.4.4-.4.22.03.41.17.41.4l.02,1.37c0,.22-.18.4-.4.4h0Zm-.03-2.74c-.22,0-.4-.18-.4-.4l-.02-1.37c0-.22.18-.4.4-.4.25.01.4.17.41.4l.02,1.37c0,.22-.18.4-.4.4h0Z"/>
                <path class="cls-7" d="m25.91,163.44s-.08,0-.13-.02c-.16-.05-.27-.21-.28-.38v-.8c-.01-.22.17-.4.39-.4.18,0,.28.08.35.2.13-.05.28-.04.4.05.18.14.21.39.07.56l-.49.63c-.08.1-.2.16-.32.16Z"/>
                <path class="cls-7" d="m27.24,161.72c-.08,0-.17-.03-.24-.08-.18-.13-.21-.38-.08-.56l.84-1.09c.13-.18.39-.21.56-.07.18.13.21.38.07.56l-.84,1.09c-.08.1-.2.16-.32.16Zm1.68-2.18c-.08,0-.17-.03-.24-.08-.18-.13-.21-.38-.07-.56l.84-1.09c.13-.18.39-.21.56-.08.18.13.21.39.08.56l-.84,1.09c-.08.1-.2.16-.32.16Z"/>
                <path class="cls-7" d="m30.59,157.36c-.08,0-.17-.03-.24-.08-.18-.13-.21-.39-.07-.56l.49-.64c.14-.17.39-.21.56-.07.18.13.21.39.08.56l-.49.64c-.08.1-.2.16-.32.16Z"/>
              </g>
              <g>
                <path class="cls-7" d="m27.52,167.44c-.09,0-.17-.03-.25-.09-.17-.14-.21-.39-.07-.56l.5-.63c.14-.17.39-.2.57-.07.17.14.2.39.07.56l-.5.63c-.08.1-.2.15-.32.15Z"/>
                <path class="cls-7" d="m29.16,165.36c-.09,0-.17-.03-.25-.09-.17-.14-.2-.39-.07-.56l1.14-1.45c.14-.17.39-.21.56-.07.17.14.21.39.07.56l-1.14,1.45c-.08.1-.2.15-.32.15Z"/>
                <path class="cls-7" d="m31.45,162.47c-.09,0-.17-.03-.25-.09-.17-.14-.2-.39-.07-.56l.5-.63c.13-.16.36-.2.54-.09l.67.44c.18.12.23.37.11.55-.12.18-.37.23-.56.11l-.36-.24-.27.34c-.08.1-.2.15-.32.15Z"/>
                <path class="cls-7" d="m35.75,164.36c-.08,0-.15-.02-.22-.07l-1.56-1.04c-.19-.12-.24-.37-.11-.55.12-.18.37-.23.56-.11l1.57,1.04c.19.12.24.37.11.55-.08.11-.21.18-.34.18Z"/>
                <path class="cls-7" d="m37.99,165.84c-.08,0-.15-.02-.22-.07l-.67-.44c-.18-.12-.23-.37-.11-.55.12-.18.37-.23.56-.11l.67.44c.18.12.24.37.11.55-.08.12-.21.18-.34.18Z"/>
              </g>
              <g>
                <path class="cls-7" d="m29.94,171.04c-.09,0-.19-.03-.27-.1-.17-.15-.18-.4-.03-.56l.54-.6c.15-.16.4-.18.57-.03.17.15.18.4.03.56l-.53.6c-.08.09-.19.13-.3.13Z"/>
                <path class="cls-7" d="m31.19,169.64c-.09,0-.19-.03-.27-.1-.17-.15-.18-.4-.03-.56l.72-.8c.15-.17.4-.18.57-.03.17.15.18.4.03.56l-.72.8c-.08.09-.19.13-.3.13Z"/>
                <path class="cls-7" d="m32.62,168.04c-.1,0-.19-.03-.27-.1-.17-.15-.18-.4-.03-.56l.53-.6c.13-.15.36-.18.53-.07l.67.45c.18.12.23.37.11.56-.12.18-.37.23-.56.11l-.37-.25-.3.34c-.08.09-.19.13-.3.13Z"/>
                <path class="cls-7" d="m35.62,169.09c-.08,0-.16-.02-.22-.07l-.9-.6c-.18-.12-.23-.37-.11-.56.12-.18.37-.23.56-.11l.9.6c.18.12.23.37.11.56-.08.11-.2.18-.33.18Z"/>
                <path class="cls-7" d="m37.18,170.14c-.08,0-.16-.02-.22-.07l-.67-.45c-.18-.12-.23-.37-.11-.55.12-.18.37-.23.56-.11l.67.45c.18.12.23.37.11.55-.08.12-.21.18-.33.18Z"/>
              </g>
              <g>
                <path class="cls-7" d="m17.06,166.64s-.04,0-.05,0c-.22-.03-.37-.23-.35-.45l.11-.79c.03-.22.23-.37.45-.34.22.03.37.23.35.45l-.11.79c-.03.2-.2.35-.4.35Z"/>
                <path class="cls-7" d="m17.31,164.77s-.04,0-.05,0c-.22-.03-.37-.23-.35-.45l.14-1.07c.03-.22.24-.37.45-.34.22.03.37.23.35.45l-.14,1.07c-.03.2-.2.35-.4.35Z"/>
                <path class="cls-7" d="m17.6,162.63s-.04,0-.05,0c-.22-.03-.37-.23-.35-.45l.05-.41-.41-.07c-.22-.04-.37-.24-.33-.46.04-.22.25-.36.46-.33l.79.14c.21.04.36.23.33.45l-.11.79c-.03.2-.2.35-.4.35Z"/>
                <path class="cls-7" d="m15.88,161.53s-.05,0-.07,0l-1.03-.18c-.22-.04-.37-.25-.33-.46.04-.22.25-.36.46-.33l1.03.18c.22.04.37.24.33.46-.03.19-.2.33-.4.33Z"/>
                <path class="cls-7" d="m13.83,161.17s-.05,0-.07,0l-.79-.14c-.22-.04-.37-.24-.33-.46.04-.22.25-.36.46-.33l.79.14c.22.04.37.25.33.46-.03.19-.2.33-.4.33Z"/>
              </g>
              <g>
                <path class="cls-7" d="m16.26,157.89s-.02,0-.03,0l-.8-.05c-.22-.01-.39-.2-.38-.42.01-.22.2-.39.43-.37l.8.05c.22.01.39.2.38.42-.01.21-.19.38-.4.38Z"/>
                <path class="cls-7" d="m19.48,158.09s-.02,0-.03,0l-1.61-.1c-.22-.01-.39-.2-.38-.42.01-.22.2-.38.43-.37l1.61.1c.22.01.39.2.38.42-.01.21-.19.38-.4.38Z"/>
                <path class="cls-7" d="m21.89,159.04c-.22,0-.4-.18-.4-.4v-.42l-.43-.03c-.22-.01-.39-.2-.38-.42s.21-.38.43-.37l.8.05c.21.01.38.19.38.4v.8c0,.22-.18.4-.4.4Z"/>
                <path class="cls-7" d="m21.89,162.51c-.22,0-.4-.18-.4-.4v-1.73c0-.22.18-.4.4-.4s.4.18.4.4v1.73c0,.22-.18.4-.4.4Z"/>
                <path class="cls-7" d="m21.89,165.04c-.22,0-.4-.18-.4-.4v-.8c0-.22.18-.4.4-.4s.4.18.4.4v.8c0,.22-.18.4-.4.4Z"/>
              </g>
              <g>
                <path class="cls-7" d="m17.39,142.58c-.15,0-.3-.09-.37-.24l-.33-.73c-.09-.2,0-.44.2-.53.21-.09.44,0,.53.2l.33.73c.09.2,0,.44-.2.53-.05.02-.11.04-.16.04Z"/>
                <path class="cls-7" d="m18.81,145.73c-.15,0-.3-.09-.37-.24l-.71-1.58c-.09-.2,0-.44.2-.53.2-.09.44,0,.53.2l.71,1.58c.09.2,0,.44-.2.53-.05.02-.11.03-.16.03Z"/>
                <path class="cls-7" d="m19.15,148.43c-.14,0-.27-.07-.35-.2-.11-.19-.04-.44.15-.54l.38-.22-.18-.4c-.09-.2,0-.44.2-.53.2-.09.44,0,.53.2l.33.73c.08.19.01.41-.17.51l-.7.4c-.06.04-.13.05-.2.05Z"/>
                <path class="cls-7" d="m16.08,150.17c-.14,0-.28-.07-.35-.2-.11-.19-.04-.44.15-.55l1.53-.87c.19-.11.44-.04.55.15.11.19.04.44-.15.54l-1.54.87c-.06.04-.13.05-.2.05Z"/>
                <path class="cls-7" d="m13.84,151.44c-.14,0-.28-.07-.35-.2-.11-.19-.04-.44.15-.55l.7-.4c.19-.11.44-.04.55.15.11.19.04.44-.15.54l-.7.4c-.06.04-.13.05-.2.05Z"/>
              </g>
              <g>
                <path class="cls-7" d="m13.32,142.6c-.16,0-.32-.1-.38-.26l-.28-.75c-.08-.21.03-.44.24-.51.21-.08.44.03.52.24l.28.75c.08.21-.03.44-.24.51-.05.02-.09.02-.14.02Z"/>
                <path class="cls-7" d="m14.02,144.5c-.16,0-.32-.1-.38-.26l-.35-.95c-.08-.21.03-.44.24-.51.21-.08.44.03.52.24l.35.95c.08.21-.03.44-.24.51-.05.02-.09.02-.14.02Z"/>
                <path class="cls-7" d="m13.99,146.67c-.13,0-.25-.06-.33-.17-.13-.18-.09-.43.09-.56l.41-.29-.17-.46c-.08-.21.03-.44.24-.51.21-.08.44.03.52.24l.28.75c.06.17,0,.36-.14.46l-.66.46c-.07.05-.15.07-.23.07Z"/>
                <path class="cls-7" d="m12.19,147.94c-.13,0-.25-.06-.33-.17-.13-.18-.09-.43.09-.56l.9-.64c.18-.13.43-.09.56.09.13.18.09.43-.09.56l-.9.64c-.07.05-.15.07-.23.07Z"/>
                <path class="cls-7" d="m10.63,149.04c-.13,0-.25-.06-.33-.17-.13-.18-.09-.43.09-.56l.66-.46c.18-.13.43-.09.56.09.13.18.09.43-.09.56l-.66.46c-.07.05-.15.07-.23.07Z"/>
              </g>
              <g>
                <path class="cls-7" d="m31.84,136.86c-.09,0-.18-.03-.26-.09-.17-.14-.19-.39-.05-.56l.51-.62c.14-.17.39-.19.57-.05.17.14.19.39.05.56l-.51.62c-.08.09-.19.14-.31.14Z"/>
                <path class="cls-7" d="m29.76,139.35c-.09,0-.18-.03-.26-.09-.17-.14-.19-.39-.05-.56l1.04-1.25c.14-.17.4-.19.57-.05.17.14.19.39.05.56l-1.04,1.24c-.08.09-.19.14-.31.14Z"/>
                <path class="cls-7" d="m28.2,141.21c-.08,0-.15-.02-.22-.07l-.67-.44c-.19-.12-.24-.37-.11-.55s.37-.23.56-.11l.37.24.28-.34c.14-.17.4-.19.57-.05.17.14.19.39.05.56l-.51.62c-.08.1-.19.15-.31.15Z"/>
                <path class="cls-7" d="m25.88,139.68c-.08,0-.15-.02-.22-.07l-1.66-1.09c-.19-.12-.24-.37-.11-.55.12-.18.37-.23.56-.11l1.66,1.09c.19.12.24.37.11.55-.08.12-.2.18-.33.18Z"/>
                <path class="cls-7" d="m22.56,137.49c-.08,0-.15-.02-.22-.07l-.67-.44c-.18-.12-.24-.37-.11-.55.12-.18.37-.24.56-.11l.67.44c.19.12.24.37.11.55-.08.12-.2.18-.33.18Z"/>
              </g>
              <g>
                <path class="cls-7" d="m29.44,132.88c-.09,0-.18-.03-.25-.09-.17-.14-.2-.39-.07-.56l.5-.63c.14-.17.39-.2.57-.06.17.14.2.39.07.56l-.5.63c-.08.1-.2.15-.32.15Z"/>
                <path class="cls-7" d="m28.27,134.35c-.09,0-.18-.03-.25-.09-.17-.14-.2-.39-.07-.56l.59-.74c.14-.17.39-.2.57-.07.17.14.2.39.07.56l-.59.74c-.08.1-.2.15-.32.15Z"/>
                <path class="cls-7" d="m27.18,135.71c-.07,0-.14-.02-.21-.06l-.69-.41c-.19-.11-.25-.36-.14-.55.11-.19.36-.25.55-.14l.39.23.28-.35c.14-.17.39-.2.57-.07.17.14.2.39.07.56l-.5.63c-.08.1-.2.15-.32.15Z"/>
                <path class="cls-7" d="m25.46,134.69c-.07,0-.14-.02-.21-.06l-1.03-.61c-.19-.11-.25-.36-.14-.55.11-.19.36-.25.55-.14l1.04.61c.19.11.25.36.14.55-.08.12-.21.19-.34.19Z"/>
                <path class="cls-7" d="m23.39,133.46c-.07,0-.14-.02-.21-.06l-.69-.41c-.19-.11-.25-.36-.14-.55.11-.19.36-.25.55-.14l.69.41c.19.11.25.36.14.55-.08.12-.21.19-.35.19Z"/>
              </g>
              <g>
                <path class="cls-7" d="m37.89,139.44s-.03,0-.05,0c-.22-.03-.38-.22-.35-.44l.09-.8c.03-.22.23-.38.45-.35.22.03.38.22.35.44l-.1.79c-.02.2-.2.35-.4.35Z"/>
                <path class="cls-7" d="m37.48,142.87s-.03,0-.05,0c-.22-.03-.38-.23-.35-.45l.21-1.71c.03-.22.22-.38.45-.35.22.03.38.22.35.44l-.21,1.72c-.02.2-.2.35-.4.35Z"/>
                <path class="cls-7" d="m37.18,145.39c-.11,0-.22-.05-.3-.13-.08-.09-.12-.2-.1-.32l.09-.79c.03-.22.23-.38.45-.35.22.03.38.23.35.45l-.04.33h.33c.22-.02.41.15.42.37,0,.22-.16.41-.38.42l-.8.03s-.01,0-.02,0Z"/>
                <path class="cls-7" d="m39.27,145.3c-.21,0-.39-.17-.4-.38,0-.22.16-.41.38-.42l1.29-.05c.21-.01.41.16.42.38,0,.22-.16.41-.38.42l-1.29.05h-.02Zm2.58-.11c-.21,0-.39-.17-.4-.38,0-.22.16-.41.39-.42l1.29-.05c.21,0,.41.16.42.38,0,.22-.16.41-.39.42l-1.29.05h-.02Z"/>
                <path class="cls-7" d="m44.42,145.08c-.21,0-.39-.17-.4-.38,0-.22.16-.41.38-.42l.8-.03c.23,0,.41.16.42.38,0,.22-.16.41-.38.42l-.8.03h-.02Z"/>
              </g>
              <g>
                <path class="cls-7" d="m46.84,141.85h-.8c-.22,0-.4-.18-.4-.4s.18-.4.4-.4h.8c.22,0,.4.18.4.4s-.18.4-.4.4Z"/>
                <path class="cls-7" d="m44.75,141.85h-1.29c-.22,0-.4-.18-.4-.4s.18-.4.4-.4h1.29c.22,0,.4.18.4.4s-.18.4-.4.4Z"/>
                <path class="cls-7" d="m42.17,141.85h-.8c-.22,0-.39-.17-.4-.38l-.03-.8c0-.22.16-.41.38-.42.23-.01.41.16.42.38l.02.42h.42c.22,0,.4.18.4.4s-.18.4-.4.4Z"/>
                <path class="cls-7" d="m41.3,140.25c-.21,0-.39-.17-.4-.38l-.03-.8c0-.22.16-.41.38-.42.2,0,.41.16.42.38l.03.8c0,.22-.16.41-.39.42h-.02Z"/>
                <path class="cls-7" d="m41.24,138.65c-.21,0-.39-.17-.4-.38l-.03-.8c0-.22.16-.41.39-.42.22-.02.41.16.42.38l.03.8c0,.22-.16.41-.39.42h-.02Z"/>
              </g>
              <g>
                <path class="cls-7" d="m48.5,154.92c-.16,0-.32-.1-.38-.26-.08-.21.03-.44.24-.51l.76-.27c.21-.07.44.03.52.24.08.21-.03.44-.24.51l-.76.28s-.09.02-.14.02Z"/>
                <path class="cls-7" d="m46.02,155.82c-.16,0-.32-.1-.38-.26-.08-.21.03-.44.24-.51l1.24-.45c.21-.07.44.03.52.24.08.21-.03.44-.24.51l-1.24.45s-.09.02-.14.02Z"/>
                <path class="cls-7" d="m44.35,157.27c-.15,0-.3-.09-.37-.24l-.33-.73c-.04-.1-.05-.22,0-.32.04-.1.13-.18.23-.22l.76-.27c.21-.07.44.03.52.24.08.21-.03.44-.24.51l-.35.13.15.34c.09.2,0,.44-.2.53-.05.02-.11.03-.16.03Z"/>
                <path class="cls-7" d="m45.25,159.3c-.15,0-.3-.09-.37-.24l-.45-1.01c-.09-.2,0-.44.21-.53.2-.09.44,0,.53.2l.45,1.01c.09.2,0,.44-.2.53-.05.02-.11.04-.16.04Z"/>
                <path class="cls-7" d="m46.03,161.04c-.15,0-.3-.09-.37-.24l-.33-.73c-.09-.2,0-.44.2-.53.2-.09.44,0,.53.2l.33.73c.09.2,0,.44-.2.53-.05.02-.11.03-.16.03Z"/>
              </g>
              <g>
                <path class="cls-7" d="m46.14,151.05c-.14,0-.27-.07-.35-.2-.11-.19-.05-.44.14-.55l.69-.41c.19-.11.44-.05.55.14.11.19.05.44-.14.55l-.69.41c-.06.04-.13.06-.2.06Z"/>
                <path class="cls-7" d="m41.37,153.84c-.14,0-.27-.07-.35-.2-.11-.19-.05-.44.14-.55l1.19-.7c.19-.11.44-.05.55.14.11.19.05.43-.14.55l-1.19.7c-.06.04-.13.06-.2.06Zm2.39-1.4c-.14,0-.27-.07-.35-.2-.11-.19-.05-.44.14-.55l1.19-.7c.19-.11.44-.05.55.14.11.19.05.44-.14.55l-1.19.7c-.06.04-.13.05-.2.05Z"/>
                <path class="cls-7" d="m39.76,155.69c-.16,0-.32-.1-.38-.26l-.28-.75c-.07-.18,0-.38.17-.48l.69-.41c.19-.11.44-.05.55.14.11.19.05.44-.14.55l-.4.24.16.44c.08.21-.03.44-.24.51-.05.02-.09.02-.14.02Z"/>
                <path class="cls-7" d="m41.08,159.29c-.17,0-.32-.1-.38-.26l-.66-1.8c-.08-.21.03-.44.24-.51.21-.07.44.03.52.24l.66,1.8c.08.21-.03.44-.24.51-.04.02-.09.02-.14.02Z"/>
                <path class="cls-7" d="m42.01,161.84c-.16,0-.32-.1-.38-.26l-.28-.75c-.08-.21.03-.44.24-.51.21-.08.44.03.52.24l.28.75c.08.21-.03.44-.24.51-.05.02-.09.02-.14.02Z"/>
              </g>
            </g>
            <g class="cls-15">
              <g>
                <path class="cls-7" d="m50.48,32.02l-.31-1.69.83-.15.31,1.69-.83.15Zm-.47-2.54l-.31-1.69.83-.15.31,1.69-.83.15Zm-.47-2.54l-.31-1.69.83-.15.31,1.69-.83.15Zm-.47-2.54l-.31-1.69.83-.15.31,1.69-.83.15Zm-.47-2.54l-.31-1.69.83-.15.31,1.69-.83.15Zm-.47-2.54l-.31-1.69.83-.15.31,1.69-.83.15Zm-.47-2.54l-.31-1.69.83-.15.31,1.69-.83.15Zm-.47-2.54l-.31-1.69.83-.15.31,1.69-.83.15Zm-.47-2.54l-.31-1.69.83-.15.31,1.69-.83.15Zm-.47-2.54l-.31-1.69.83-.15.31,1.69-.83.15Zm-.47-2.54l-.31-1.69.83-.15.31,1.69-.83.15Zm-.47-2.54l-.31-1.69.83-.15.31,1.69-.83.15Zm-.47-2.54l-.31-1.69.83-.15.31,1.69-.83.15Zm-.47-2.54l-.31-1.69.83-.15.31,1.69-.83.15Zm-.47-2.54l-.31-1.69.83-.15.31,1.69-.83.15Zm-.47-2.54l-.31-1.69.83-.15.31,1.69-.83.15Z"/>
                <polygon class="cls-7" points="50.79 33.69 50.63 32.86 51.46 32.71 51.62 33.54 50.79 33.69"/>
              </g>
              <g>
                <path class="cls-7" d="m31.27,25.75l-.54-.64,1.25-1.05.55.64-1.25,1.05Zm1.87-1.58l-.54-.64,1.25-1.05.54.64-1.25,1.05Zm1.87-1.58l-.54-.64,1.25-1.05.54.64-1.25,1.05Zm1.87-1.58l-.54-.64,1.25-1.05.54.64-1.25,1.05Zm1.87-1.58l-.54-.64,1.25-1.05.55.64-1.25,1.05Zm1.87-1.58l-.55-.64,1.25-1.05.54.64-1.25,1.05Zm1.87-1.58l-.54-.64,1.25-1.05.54.64-1.25,1.05Zm1.87-1.58l-.54-.64,1.25-1.05.54.64-1.25,1.05Zm1.87-1.58l-.55-.64,1.25-1.05.54.64-1.25,1.05Zm1.87-1.58l-.54-.64,1.25-1.05.55.64-1.25,1.05Zm1.87-1.58l-.54-.64,1.25-1.05.54.64-1.25,1.05Zm1.87-1.58l-.54-.64,1.25-1.05.54.64-1.25,1.05Zm1.87-1.58l-.55-.64,1.25-1.05.55.64-1.25,1.05Zm1.87-1.58l-.55-.64,1.25-1.05.54.64-1.25,1.05Zm1.87-1.58l-.54-.64,1.25-1.05.54.64-1.25,1.05Zm1.87-1.58l-.54-.64,1.25-1.05.54.64-1.25,1.05Zm1.87-1.58l-.54-.64,1.25-1.05.54.64-1.25,1.05Z"/>
                <polygon class="cls-7" points="30.01 26.82 29.46 26.18 30.1 25.64 30.65 26.28 30.01 26.82"/>
              </g>
              <g>
                <polygon class="cls-7" points="27.02 5.42 26.22 5.14 26.51 4.35 27.3 4.63 27.02 5.42"/>
                <path class="cls-7" d="m65.05,18.81l-1.58-.56.28-.79,1.58.56-.28.79Zm-2.38-.84l-1.58-.56.28-.79,1.58.56-.28.79Zm-2.38-.84l-1.58-.56.28-.79,1.58.56-.28.79Zm-2.38-.84l-1.58-.56.28-.79,1.58.56-.28.79Zm-2.38-.84l-1.58-.56.28-.79,1.58.56-.28.79Zm-2.38-.84l-1.58-.56.28-.79,1.58.56-.28.79Zm-2.38-.84l-1.58-.56.28-.79,1.59.56-.28.79Zm-2.38-.84l-1.58-.56.28-.79,1.58.56-.28.79Zm-2.38-.84l-1.58-.56.28-.79,1.58.56-.28.79Zm-2.38-.84l-1.58-.56.28-.79,1.58.56-.28.79Zm-2.38-.84l-1.58-.56.28-.79,1.58.56-.28.79Zm-2.38-.84l-1.59-.56.28-.79,1.58.56-.28.79Zm-2.38-.84l-1.58-.56.28-.79,1.58.56-.28.79Zm-2.38-.84l-1.58-.56.28-.79,1.58.56-.28.79Zm-2.38-.84l-1.58-.56.28-.79,1.58.56-.28.79Zm-2.38-.84l-1.58-.56.28-.79,1.58.56-.28.79Z"/>
                <polygon class="cls-7" points="66.63 19.36 65.84 19.08 66.12 18.3 66.92 18.58 66.63 19.36"/>
              </g>
              <g>
                <polygon class="cls-7" points="40.64 10.04 40.4 9.24 41.2 8.99 41.45 9.79 40.64 10.04"/>
                <path class="cls-7" d="m40.12,8.31l-.57-1.86.81-.24.57,1.86-.81.24Zm-.85-2.78l-.57-1.86.81-.24.57,1.86-.81.24Z"/>
                <polygon class="cls-7" points="38.41 2.74 37.87 .96 39.51 1.85 39.2 2.43 39.22 2.5 39.15 2.52 39.11 2.59 39.04 2.55 38.41 2.74"/>
                <path class="cls-7" d="m44.25,5.37l-1.71-.93.4-.74,1.71.93-.4.74Zm-2.57-1.39l-1.71-.93.4-.74,1.71.93-.4.74Z"/>
                <polygon class="cls-7" points="46.12 6.38 45.11 5.83 45.51 5.1 45.98 5.35 46.37 4.99 46.95 5.59 46.12 6.38"/>
                <path class="cls-7" d="m47.51,5.06l-.58-.6,1.12-1.07.58.61-1.12,1.06Zm1.68-1.6l-.58-.61,1.12-1.06.58.6-1.12,1.07Z"/>
                <polygon class="cls-7" points="50.88 1.86 50.88 1.86 50.87 1.86 50.87 1.85 50.3 1.26 51.53 .09 51.71 1.77 50.88 1.86"/>
                <path class="cls-7" d="m51.36,6.22l-.16-1.45.84-.09.16,1.45-.84.09Zm-.24-2.18l-.16-1.46.84-.09.16,1.45-.84.09Z"/>
                <polygon class="cls-7" points="52.69 8.3 51.56 8.09 51.44 6.95 52.27 6.86 52.33 7.38 52.85 7.48 52.69 8.3"/>
                <path class="cls-7" d="m58.58,9.42l-1.96-.37.16-.82,1.96.37-.16.82Zm-2.94-.56l-1.96-.37.16-.82,1.96.37-.16.82Z"/>
                <polygon class="cls-7" points="59.96 10.14 59.64 9.62 59.56 9.6 59.57 9.51 59.52 9.43 59.6 9.38 59.71 8.78 61.61 9.14 59.96 10.14"/>
                <path class="cls-7" d="m54.29,13.57l-.44-.72,1.26-.76.44.72-1.26.76Zm1.89-1.14l-.44-.71,1.26-.76.44.71-1.26.76Zm1.89-1.14l-.44-.71,1.26-.76.44.71-1.26.76Z"/>
                <polygon class="cls-7" points="52.57 14.95 52.22 13.83 53.22 13.23 53.66 13.95 53.22 14.21 53.37 14.7 52.57 14.95"/>
                <path class="cls-7" d="m54.54,21.35l-.44-1.42.8-.25.44,1.42-.81.24Zm-.66-2.13l-.44-1.42.8-.25.44,1.42-.8.25Zm-.66-2.13l-.44-1.42.8-.24.44,1.42-.8.25Z"/>
                <polygon class="cls-7" points="56.16 23.72 54.48 22.62 54.79 22.15 54.76 22.06 54.87 22.02 54.94 21.93 55.02 21.98 55.57 21.81 56.16 23.72"/>
                <path class="cls-7" d="m53.86,22.22l-1.23-.8.46-.7,1.23.8-.46.7Zm-1.84-1.2l-1.23-.8.46-.7,1.23.8-.46.7Zm-1.84-1.2l-1.23-.8.46-.7,1.23.8-.46.7Z"/>
                <polygon class="cls-7" points="48.34 18.62 47.63 18.16 48.1 17.46 48.8 17.92 48.34 18.62"/>
              </g>
              <g>
                <polygon class="cls-7" points="40.57 10.96 40.16 10.22 40.89 9.82 41.3 10.55 40.57 10.96"/>
                <path class="cls-7" d="m35.33,13.85l-.41-.73,1.74-.96.41.73-1.74.96Zm2.62-1.44l-.41-.73,1.74-.96.41.73-1.74.96Z"/>
                <polygon class="cls-7" points="34.3 14.89 32.2 14.62 34.05 13.6 34.31 14.05 34.41 14.06 34.39 14.2 34.46 14.33 34.37 14.38 34.3 14.89"/>
                <path class="cls-7" d="m41.05,15.77l-1.5-.19.11-.83,1.5.19-.11.83Zm-2.25-.29l-1.5-.2.11-.83,1.5.19-.11.83Zm-2.25-.29l-1.5-.19.11-.83,1.5.19-.11.83Z"/>
                <polygon class="cls-7" points="42.27 16.4 42.27 15.92 41.8 15.86 41.91 15.03 43.1 15.19 43.12 16.39 42.27 16.4"/>
                <path class="cls-7" d="m42.34,22.86l-.02-1.43h.84s.02,1.42.02,1.42h-.84Zm-.02-2.14l-.02-1.44h.84s.02,1.43.02,1.43h-.84Zm-.02-2.14l-.02-1.44h.84s.02,1.43.02,1.43h-.84Z"/>
                <polygon class="cls-7" points="42.37 25.62 42.35 23.57 42.9 23.57 42.96 23.49 43.06 23.57 43.19 23.57 43.2 23.67 43.63 24 42.37 25.62"/>
                <path class="cls-7" d="m44.07,23.43l-.67-.51.88-1.14.67.51-.88,1.14Zm1.32-1.71l-.67-.51.88-1.14.67.51-.88,1.14Zm1.32-1.71l-.67-.51.88-1.14.67.51-.88,1.14Z"/>
                <polygon class="cls-7" points="48.01 18.3 47.34 17.8 47.86 17.13 48.52 17.64 48.01 18.3"/>
              </g>
              <g>
                <polygon class="cls-7" points="44.8 28.85 44.13 28.33 44.66 27.67 45.32 28.19 44.8 28.85"/>
                <path class="cls-7" d="m45.83,27.54l-.66-.52,1.03-1.3.66.52-1.03,1.3Zm1.54-1.95l-.66-.52,1.02-1.3.66.52-1.03,1.3Z"/>
                <polygon class="cls-7" points="48.91 23.65 48.25 23.13 49.01 22.17 50.03 22.85 49.56 23.55 49.19 23.3 48.91 23.65"/>
                <path class="cls-7" d="m53.77,26.33l-1.4-.93.47-.7,1.4.93-.47.7Zm-2.11-1.39l-1.4-.93.47-.7,1.4.93-.47.7Z"/>
                <polygon class="cls-7" points="55.18 27.27 54.48 26.8 54.94 26.11 55.64 26.57 55.18 27.27"/>
              </g>
              <g>
                <polygon class="cls-7" points="47.31 32.63 46.68 32.08 47.24 31.45 47.87 32.01 47.31 32.63"/>
                <polygon class="cls-7" points="48.43 31.38 47.8 30.82 48.92 29.57 49.55 30.12 48.43 31.38"/>
                <polygon class="cls-7" points="50.11 29.49 49.48 28.94 50.29 28.04 51.29 28.71 50.82 29.41 50.43 29.14 50.11 29.49"/>
                <polygon class="cls-7" points="52.93 30.82 51.53 29.88 52 29.18 53.4 30.13 52.93 30.82"/>
                <polygon class="cls-7" points="54.33 31.76 53.63 31.29 54.11 30.6 54.8 31.07 54.33 31.76"/>
              </g>
              <g>
                <polygon class="cls-7" points="33.94 27.81 33.1 27.7 33.21 26.87 34.05 26.98 33.94 27.81"/>
                <rect class="cls-7" x="33.01" y="24.82" width="1.7" height=".84" transform="translate(4.43 55.54) rotate(-82.54)"/>
                <polygon class="cls-7" points="34.5 23.62 33.66 23.51 33.72 23.08 33.29 23 33.43 22.18 34.66 22.39 34.5 23.62"/>
                <rect class="cls-7" x="31.33" y="21.5" width=".84" height="1.63" transform="translate(4.4 49.85) rotate(-80.29)"/>
                <rect class="cls-7" x="29.31" y="21.55" width=".84" height=".84" transform="translate(3.07 47.57) rotate(-80.31)"/>
              </g>
              <g>
                <polygon class="cls-7" points="32.65 19.02 31.81 18.97 31.86 18.13 32.7 18.19 32.65 19.02"/>
                <path class="cls-7" d="m36.98,19.29l-1.44-.09.05-.83,1.44.09-.05.83Zm-2.17-.13l-1.44-.09.05-.83,1.44.09-.05.83Z"/>
                <polygon class="cls-7" points="38.99 19.81 38.15 19.81 38.15 19.36 37.71 19.33 37.76 18.5 38.99 18.58 38.99 19.81"/>
                <path class="cls-7" d="m38.99,24.47h-.84v-1.55h.84v1.55Zm0-2.33h-.84v-1.55h.84v1.55Z"/>
                <rect class="cls-7" x="38.15" y="25.24" width=".84" height=".84"/>
              </g>
              <g>
                <polygon class="cls-7" points="33.48 2.75 33.14 1.99 33.91 1.65 34.25 2.41 33.48 2.75"/>
                <path class="cls-7" d="m35.39,6.99l-.63-1.41.77-.34.63,1.41-.77.34Zm-.95-2.12l-.63-1.41.77-.34.63,1.41-.77.34Z"/>
                <polygon class="cls-7" points="35.91 9.07 35.49 8.34 35.89 8.11 35.7 7.7 36.47 7.35 36.97 8.46 35.91 9.07"/>
                <path class="cls-7" d="m31.78,11.42l-.42-.73,1.38-.78.42.72-1.38.78Zm2.06-1.17l-.42-.72,1.37-.78.42.73-1.38.78Z"/>
                <polygon class="cls-7" points="30.36 12.22 29.95 11.49 30.68 11.08 31.09 11.81 30.36 12.22"/>
              </g>
              <g>
                <polygon class="cls-7" points="29.21 2.75 28.92 1.96 29.71 1.67 30 2.46 29.21 2.75"/>
                <polygon class="cls-7" points="30.04 4.99 29.48 3.49 30.27 3.21 30.83 4.7 30.04 4.99"/>
                <polygon class="cls-7" points="30.55 7.2 30.07 6.52 30.49 6.22 30.31 5.73 31.1 5.45 31.5 6.53 30.55 7.2"/>
                <polygon class="cls-7" points="28.43 8.7 27.94 8.02 29.36 7.02 29.84 7.7 28.43 8.7"/>
                <polygon class="cls-7" points="27.03 9.69 26.54 9.01 27.23 8.52 27.72 9.2 27.03 9.69"/>
              </g>
              <g>
                <path class="cls-7" d="m46.5.22l-.65-.53.93-1.12.65.54-.93,1.12Zm1.4-1.67l-.65-.54.93-1.12.65.53-.93,1.12Z"/>
                <polygon class="cls-7" points="45.26 1.71 44.24 1.04 44.71 .34 45.09 .6 45.39 .24 46.04 .78 45.26 1.71"/>
                <path class="cls-7" d="m43.5.55l-1.49-.98.47-.7,1.49.98-.47.7Zm-2.23-1.47l-1.49-.98.46-.7,1.49.98-.46.7Z"/>
              </g>
              <g>
                <path class="cls-7" d="m55.18,3.97l-.84-.1.18-1.54.84.1-.18,1.54Zm.28-2.31l-.84-.1.18-1.54.84.1-.18,1.54Z"/>
                <polygon class="cls-7" points="54.09 5.96 54.25 4.64 55.09 4.74 55.04 5.08 55.39 5.07 55.43 5.9 54.09 5.96"/>
                <path class="cls-7" d="m56.39,5.86l-.04-.84,1.92-.08.04.84-1.92.08Zm2.89-.12l-.04-.84,1.92-.08.04.84-1.92.08Z"/>
                <rect class="cls-7" x="62.15" y="4.76" width=".84" height=".84" transform="translate(-.17 2.7) rotate(-2.47)"/>
              </g>
              <g>
                <rect class="cls-7" x="63.83" y="1.4" width=".84" height=".84"/>
                <rect class="cls-7" x="60.8" y="1.4" width="2.02" height=".84"/>
                <polygon class="cls-7" points="59.79 2.24 58.55 2.24 58.5 1 59.34 .97 59.35 1.4 59.79 1.4 59.79 2.24"/>
                <rect class="cls-7" x="58.44" y="-.9" width=".84" height="1.26" transform="translate(.06 2.43) rotate(-2.36)"/>
              </g>
              <g>
                <polygon class="cls-7" points="66.55 15.88 66.26 15.1 67.05 14.81 67.34 15.6 66.55 15.88"/>
                <polygon class="cls-7" points="63.63 16.94 63.34 16.16 65.29 15.45 65.58 16.24 63.63 16.94"/>
                <polygon class="cls-7" points="61.68 18.13 61.16 16.95 62.37 16.51 62.66 17.3 62.29 17.43 62.45 17.79 61.68 18.13"/>
                <polygon class="cls-7" points="62.75 20.51 62.04 18.92 62.81 18.58 63.52 20.17 62.75 20.51"/>
                <polygon class="cls-7" points="63.44 22.07 63.1 21.3 63.87 20.96 64.21 21.73 63.44 22.07"/>
              </g>
              <g>
                <polygon class="cls-7" points="64.16 11.81 63.73 11.08 64.46 10.66 64.88 11.38 64.16 11.81"/>
                <path class="cls-7" d="m58.54,15.09l-.43-.72,1.25-.73.43.72-1.25.73Zm1.87-1.09l-.43-.72,1.25-.73.43.72-1.25.73Zm1.87-1.1l-.43-.72,1.25-.73.43.72-1.25.73Z"/>
                <polygon class="cls-7" points="56.87 16.45 56.46 15.34 57.49 14.74 57.91 15.46 57.49 15.7 57.66 16.16 56.87 16.45"/>
                <path class="cls-7" d="m58.64,21.29l-.59-1.61.79-.29.59,1.61-.79.29Zm-.89-2.42l-.59-1.61.79-.29.59,1.61-.79.29Z"/>
                <polygon class="cls-7" points="59.22 22.88 58.94 22.09 59.73 21.81 60.01 22.59 59.22 22.88"/>
              </g>
            </g>
          </g>
          <g>
            <path class="cls-6" d="m96.94,21.64c-.12,0-.22-.08-.24-.2l-2.96-14.99c-.03-.13.06-.26.19-.29.13-.03.26.06.29.19l2.96,14.99c.03.13-.06.26-.19.29-.02,0-.03,0-.05,0Z"/>
            <path class="cls-6" d="m88.81,19.43c-.07,0-.14-.03-.19-.09-.09-.1-.07-.26.03-.35l12.57-10.57c.1-.09.26-.07.35.03.09.1.07.26-.03.35l-12.57,10.57s-.1.06-.16.06Z"/>
            <path class="cls-6" d="m102.37,16.48s-.05,0-.08-.01l-14.05-4.92c-.13-.04-.2-.18-.15-.31.05-.13.19-.2.31-.15l14.05,4.92c.13.04.2.19.15.31-.04.1-.13.17-.23.17Z"/>
            <path class="cls-6" d="m97.81,17.1s-.1-.01-.14-.04l-2.21-1.45c-.11-.08-.15-.23-.07-.34.08-.11.23-.15.34-.07l1.64,1.07-.59-1.91c-.03-.11.01-.22.11-.28l1.72-1.04-1.86-.35c-.11-.02-.19-.11-.2-.21l-.16-1.49-1.15,1.09c-.08.07-.19.09-.29.04l-1.66-.9.55,1.8c.04.13-.03.27-.16.31-.13.04-.27-.03-.31-.16l-.72-2.38c-.03-.1,0-.2.08-.26.08-.06.19-.07.27-.03l2.03,1.1,1.38-1.31c.07-.06.17-.09.25-.05.09.03.15.11.16.2l.2,1.8,2.31.44c.1.02.18.1.2.2.02.1-.03.2-.12.25l-2.1,1.27.73,2.38c.03.1,0,.21-.09.27-.04.03-.1.05-.15.05Z"/>
            <path class="cls-6" d="m94.11,17.59s-.05,0-.08-.01c-.1-.03-.17-.13-.17-.23l-.03-2.39-2.47-.32c-.11-.01-.19-.09-.21-.2-.02-.1.03-.21.12-.26l2.22-1.23c.12-.07.27-.02.33.09.07.12.02.27-.09.33l-1.57.87,1.94.25c.12.02.21.12.22.24l.02,1.89,1.15-1.5c.08-.11.24-.13.35-.05.11.08.13.24.05.34l-1.58,2.06c-.05.06-.12.1-.2.1Z"/>
            <path class="cls-6" d="m94.6,18.82c-.05,0-.11-.02-.15-.05-.11-.08-.13-.24-.04-.34l1.36-1.72c.08-.1.22-.12.33-.05l1.85,1.23c.11.08.14.23.07.34-.08.11-.23.14-.34.07l-1.66-1.1-1.21,1.54c-.05.06-.12.09-.19.09Z"/>
            <path class="cls-6" d="m95.34,19.92c-.06,0-.12-.02-.16-.06-.1-.09-.11-.25-.02-.35l.99-1.11c.08-.09.22-.11.32-.04l1.23.83c.11.08.14.23.07.34s-.23.14-.34.07l-1.05-.71-.84.95c-.05.05-.12.08-.18.08Z"/>
            <path class="cls-6" d="m91.28,19.18s-.03,0-.04,0c-.13-.02-.23-.15-.21-.28l.28-1.85-1.81-.33c-.13-.02-.22-.15-.2-.29.02-.13.15-.22.29-.2l2.04.37c.13.02.22.15.2.28l-.32,2.09c-.02.12-.12.21-.24.21Z"/>
            <path class="cls-6" d="m92.75,18.2h-.01c-.14,0-.24-.12-.23-.26l.11-1.98-1.62-.22c-.13-.02-.23-.14-.21-.28.02-.13.14-.23.28-.21l1.85.25c.13.02.22.13.21.26l-.12,2.21c0,.13-.12.23-.25.23Z"/>
            <path class="cls-6" d="m90.41,13.9c-.09,0-.17-.05-.21-.12-.07-.12-.03-.27.09-.34l1.64-.94-.76-1.7c-.06-.12,0-.27.12-.33.12-.05.27,0,.33.12l.85,1.9c.05.12,0,.25-.1.31l-1.84,1.05s-.08.03-.12.03Z"/>
            <path class="cls-6" d="m89.43,13.16c-.08,0-.15-.04-.2-.1-.08-.11-.05-.26.06-.34l1.08-.76-.43-1.16c-.05-.13.02-.27.15-.32.13-.05.27.02.32.15l.49,1.34c.04.1,0,.22-.09.28l-1.23.87s-.09.05-.14.05Z"/>
            <path class="cls-6" d="m94.81,10.76s-.09-.01-.14-.04l-1.93-1.28c-.11-.08-.14-.23-.07-.34s.23-.14.34-.07l1.74,1.15,1.25-1.71c.08-.11.24-.13.34-.05.11.08.13.23.05.34l-1.39,1.89c-.05.06-.12.1-.2.1Z"/>
            <path class="cls-6" d="m94.5,9.07s-.09-.01-.13-.04l-1.37-.82c-.12-.07-.15-.22-.08-.34.07-.12.22-.15.34-.08l1.19.71.83-1.02c.09-.11.24-.12.35-.04.11.08.12.24.04.35l-.97,1.19c-.05.06-.12.09-.19.09Z"/>
            <path class="cls-6" d="m97.56,12.04c-.07,0-.14-.03-.18-.08-.05-.06-.07-.13-.06-.2l.37-2.19c.02-.13.15-.22.28-.2.14.02.23.15.2.28l-.32,1.89,2.16-.09c.13,0,.25.1.26.24,0,.14-.1.25-.24.26l-2.46.1h-.01Z"/>
            <path class="cls-6" d="m100.52,10.95h-1.67c-.07,0-.13-.03-.18-.08-.05-.05-.07-.11-.07-.18l.07-1.6c0-.14.12-.24.26-.24.14,0,.24.12.23.26l-.06,1.34h1.42c.14,0,.25.11.25.25s-.11.25-.25.25Z"/>
            <path class="cls-6" d="m100.39,17.22c-.1,0-.19-.06-.23-.15l-.74-1.75c-.03-.06-.03-.13,0-.19.03-.06.08-.11.14-.13l1.6-.58c.13-.05.27.02.32.15.05.13-.02.27-.15.32l-1.36.49.64,1.51c.05.12,0,.27-.13.32-.03.01-.06.02-.1.02Z"/>
            <path class="cls-6" d="m99.16,17.71c-.1,0-.2-.07-.23-.17l-.9-2.73c-.04-.11,0-.23.11-.29l2.25-1.32c.12-.07.27-.03.34.09.07.12.03.27-.09.34l-2.08,1.22.84,2.55c.04.13-.03.27-.16.31-.02,0-.05.01-.08.01Z"/>
          </g>
          <g class="cls-13">
            <g>
              <rect class="cls-6" x="111.9" y="64.35" width=".45" height=".45" transform="translate(-9.94 21.67) rotate(-10.57)"/>
              <path class="cls-6" d="m116.02,86.82l-.17-.92.45-.08.17.92-.45.08Zm-.25-1.37l-.17-.92.45-.08.17.92-.45.08Zm-.25-1.38l-.17-.92.45-.08.17.92-.45.08Zm-.25-1.38l-.17-.92.45-.08.17.91-.45.08Zm-.25-1.37l-.17-.91.45-.08.17.92-.45.08Zm-.25-1.37l-.17-.92.45-.08.17.92-.45.08Zm-.25-1.37l-.17-.92.45-.08.17.92-.45.08Zm-.25-1.37l-.17-.92.45-.08.17.92-.45.08Zm-.25-1.38l-.17-.92.45-.08.17.92-.45.08Zm-.25-1.37l-.17-.91.45-.08.17.92-.45.08Zm-.25-1.37l-.17-.92.45-.08.17.92-.45.08Zm-.25-1.37l-.17-.92.45-.08.17.92-.45.08Zm-.25-1.37l-.17-.92.45-.08.17.92-.45.08Zm-.25-1.38l-.17-.92.45-.08.17.92-.45.08Zm-.25-1.37l-.17-.92.45-.08.17.92-.45.08Zm-.25-1.37l-.17-.92.45-.08.17.92-.45.08Z"/>
              <polygon class="cls-6" points="116.18 87.73 116.1 87.28 116.55 87.2 116.63 87.65 116.18 87.73"/>
            </g>
            <g>
              <polygon class="cls-6" points="122.8 68.89 122.5 68.55 122.85 68.25 123.14 68.6 122.8 68.89"/>
              <path class="cls-6" d="m105.65,83.43l-.29-.35.67-.57.29.34-.67.57Zm1.01-.85l-.29-.35.67-.57.29.34-.67.57Zm1.01-.86l-.29-.35.67-.57.29.34-.67.57Zm1.01-.86l-.29-.35.67-.57.29.34-.67.57Zm1.01-.85l-.29-.35.67-.57.29.34-.67.57Zm1.01-.86l-.29-.34.67-.57.29.35-.67.57Zm1.01-.86l-.29-.34.67-.57.29.35-.67.57Zm1.01-.85l-.29-.34.67-.57.29.34-.67.57Zm1.01-.85l-.29-.35.67-.57.29.34-.67.57Zm1.01-.86l-.29-.34.67-.57.29.34-.67.57Zm1.01-.86l-.29-.34.67-.57.29.35-.67.57Zm1.01-.85l-.29-.34.67-.57.29.34-.67.57Zm1.01-.85l-.29-.35.67-.57.29.35-.67.57Zm1.01-.86l-.29-.34.67-.57.29.35-.67.57Zm1.01-.85l-.29-.34.67-.57.29.34-.67.57Zm1.01-.85l-.29-.35.67-.57.29.34-.67.57Zm1.01-.86l-.29-.34.67-.57.29.34-.67.57Z"/>
              <rect class="cls-6" x="104.77" y="83.46" width=".45" height=".45" transform="translate(-29.2 88.13) rotate(-40.45)"/>
            </g>
            <g>
              <rect class="cls-6" x="102.99" y="71.9" width=".45" height=".45" transform="translate(.78 145.36) rotate(-70.51)"/>
              <path class="cls-6" d="m123.88,79.67l-.85-.3.15-.43.86.3-.15.43Zm-1.28-.45l-.86-.3.15-.43.86.3-.15.43Zm-1.28-.45l-.86-.3.15-.43.86.3-.15.43Zm-1.28-.45l-.86-.3.15-.43.86.3-.15.43Zm-1.28-.45l-.86-.3.15-.43.86.3-.15.43Zm-1.28-.45l-.86-.3.15-.43.86.3-.15.43Zm-1.28-.45l-.86-.3.15-.43.86.3-.15.43Zm-1.28-.45l-.86-.3.15-.43.85.3-.15.43Zm-1.28-.45l-.86-.3.15-.43.85.3-.15.43Zm-1.28-.45l-.85-.3.15-.43.86.3-.15.43Zm-1.28-.45l-.86-.3.15-.43.86.3-.15.43Zm-1.28-.45l-.86-.3.15-.43.85.3-.15.43Zm-1.28-.45l-.85-.3.15-.43.85.3-.15.43Zm-1.28-.45l-.85-.3.15-.43.85.3-.15.43Zm-1.28-.45l-.85-.3.15-.43.86.3-.15.43Zm-1.28-.45l-.86-.3.15-.43.86.3-.15.43Z"/>
              <polygon class="cls-6" points="124.74 79.97 124.31 79.82 124.46 79.39 124.89 79.54 124.74 79.97"/>
            </g>
            <g>
              <rect class="cls-6" x="110.63" y="74.41" width=".45" height=".45" transform="translate(-16.91 35.47) rotate(-16.91)"/>
              <path class="cls-6" d="m110.42,73.98l-.31-1,.44-.13.31,1-.44.13Zm-.46-1.51l-.31-1,.43-.13.31,1-.43.13Z"/>
              <polygon class="cls-6" points="109.51 70.97 109.21 70 110.1 70.48 109.93 70.8 109.94 70.83 109.9 70.85 109.88 70.88 109.85 70.86 109.51 70.97"/>
              <path class="cls-6" d="m112.66,72.39l-.92-.5.22-.4.92.5-.22.4Zm-1.39-.75l-.92-.5.22-.4.92.5-.22.4Z"/>
              <polygon class="cls-6" points="113.67 72.94 113.12 72.64 113.34 72.24 113.59 72.38 113.8 72.18 114.11 72.51 113.67 72.94"/>
              <path class="cls-6" d="m114.42,72.22l-.31-.33.61-.58.31.33-.61.58Zm.91-.87l-.31-.33.61-.58.31.33-.61.58Z"/>
              <polygon class="cls-6" points="116.24 70.49 116.23 70.49 116.23 70.49 116.23 70.49 115.92 70.16 116.58 69.53 116.68 70.44 116.24 70.49"/>
              <path class="cls-6" d="m116.49,72.85l-.09-.79.45-.05.09.79-.45.05Zm-.13-1.18l-.09-.79.45-.05.09.79-.45.05Z"/>
              <polygon class="cls-6" points="117.21 73.98 116.6 73.86 116.54 73.25 116.99 73.2 117.02 73.48 117.3 73.53 117.21 73.98"/>
              <path class="cls-6" d="m120.39,74.58l-1.06-.2.08-.45,1.06.2-.09.44Zm-1.59-.3l-1.06-.2.08-.45,1.06.2-.09.45Z"/>
              <polygon class="cls-6" points="121.14 74.97 120.96 74.69 120.92 74.68 120.93 74.63 120.9 74.59 120.94 74.56 121 74.24 122.03 74.43 121.14 74.97"/>
              <path class="cls-6" d="m118.08,76.83l-.24-.39.68-.41.24.39-.68.41Zm1.02-.62l-.24-.39.68-.41.24.39-.68.41Zm1.02-.62l-.24-.39.68-.41.24.39-.68.41Z"/>
              <polygon class="cls-6" points="117.14 77.58 116.96 76.97 117.5 76.65 117.74 77.04 117.5 77.18 117.58 77.44 117.14 77.58"/>
              <path class="cls-6" d="m118.21,81.04l-.24-.77.43-.13.24.77-.43.13Zm-.36-1.16l-.24-.77.43-.13.24.77-.43.13Zm-.35-1.16l-.24-.77.43-.13.24.77-.43.13Z"/>
              <polygon class="cls-6" points="119.08 82.33 118.18 81.74 118.34 81.48 118.33 81.43 118.39 81.41 118.42 81.36 118.47 81.39 118.76 81.29 119.08 82.33"/>
              <path class="cls-6" d="m117.84,81.52l-.66-.43.25-.38.66.43-.25.38Zm-.99-.65l-.66-.44.25-.38.66.43-.25.38Zm-.99-.65l-.66-.43.25-.38.66.44-.25.38Z"/>
              <rect class="cls-6" x="114.57" y="79.02" width=".45" height=".45" transform="translate(-14.48 131.66) rotate(-56.69)"/>
            </g>
            <g>
              <polygon class="cls-6" points="110.67 75.42 110.45 75.02 110.84 74.8 111.07 75.2 110.67 75.42"/>
              <path class="cls-6" d="m107.84,76.98l-.22-.4.94-.52.22.4-.94.52Zm1.41-.78l-.22-.4.94-.52.22.4-.94.52Z"/>
              <polygon class="cls-6" points="107.29 77.55 106.15 77.4 107.15 76.85 107.29 77.09 107.35 77.1 107.34 77.17 107.37 77.24 107.32 77.27 107.29 77.55"/>
              <path class="cls-6" d="m110.93,78.02l-.81-.11.06-.45.81.11-.06.45Zm-1.21-.16l-.81-.11.06-.45.81.1-.06.45Zm-1.21-.16l-.81-.11.06-.45.81.11-.06.45Z"/>
              <polygon class="cls-6" points="111.59 78.36 111.59 78.11 111.33 78.07 111.39 77.62 112.04 77.71 112.04 78.36 111.59 78.36"/>
              <path class="cls-6" d="m111.63,81.86v-.78s.45,0,.45,0v.78s-.45,0-.45,0Zm-.01-1.17v-.78s.45,0,.45,0v.78s-.45,0-.45,0Zm-.01-1.17v-.78s.45,0,.45,0v.78s-.45,0-.45,0Z"/>
              <polygon class="cls-6" points="111.64 83.36 111.63 82.25 111.93 82.25 111.96 82.2 112.02 82.25 112.09 82.25 112.09 82.3 112.32 82.48 111.64 83.36"/>
              <path class="cls-6" d="m112.56,82.17l-.36-.28.47-.62.36.28-.47.62Zm.71-.92l-.36-.27.47-.62.36.28-.47.62Zm.71-.92l-.36-.27.47-.62.36.28-.47.62Z"/>
              <rect class="cls-6" x="114.42" y="78.85" width=".45" height=".45" transform="translate(-17.8 122.16) rotate(-52.61)"/>
            </g>
            <g>
              <polygon class="cls-6" points="112.95 85.11 112.59 84.83 112.87 84.47 113.23 84.75 112.95 85.11"/>
              <path class="cls-6" d="m113.51,84.4l-.36-.28.55-.7.36.28-.55.7Zm.83-1.05l-.36-.28.55-.7.36.28-.55.7Z"/>
              <polygon class="cls-6" points="115.17 82.29 114.81 82.01 115.22 81.49 115.78 81.86 115.52 82.24 115.32 82.1 115.17 82.29"/>
              <path class="cls-6" d="m117.8,83.75l-.76-.5.25-.38.76.5-.25.38Zm-1.14-.75l-.76-.5.25-.38.76.5-.25.38Z"/>
              <polygon class="cls-6" points="118.55 84.25 118.18 84 118.43 83.62 118.81 83.87 118.55 84.25"/>
            </g>
            <g>
              <polygon class="cls-6" points="114.31 87.16 113.97 86.86 114.27 86.52 114.61 86.82 114.31 87.16"/>
              <polygon class="cls-6" points="114.91 86.48 114.57 86.18 115.18 85.5 115.52 85.8 114.91 86.48"/>
              <polygon class="cls-6" points="115.82 85.46 115.48 85.16 115.92 84.67 116.46 85.03 116.2 85.41 115.99 85.27 115.82 85.46"/>
              <polygon class="cls-6" points="117.34 86.17 116.58 85.66 116.84 85.29 117.6 85.8 117.34 86.17"/>
              <rect class="cls-6" x="117.81" y="86.14" width=".45" height=".45" transform="translate(-19.6 135.86) rotate(-55.97)"/>
            </g>
            <g>
              <polygon class="cls-6" points="107.09 84.54 106.64 84.48 106.7 84.04 107.15 84.09 107.09 84.54"/>
              <rect class="cls-6" x="106.59" y="82.93" width=".92" height=".45" transform="translate(10.77 178.57) rotate(-82.58)"/>
              <polygon class="cls-6" points="107.39 82.27 106.94 82.21 106.97 81.98 106.74 81.94 106.82 81.5 107.48 81.61 107.39 82.27"/>
              <rect class="cls-6" x="105.68" y="81.13" width=".45" height=".88" transform="translate(7.46 172) rotate(-80.17)"/>
              <polygon class="cls-6" points="105 81.64 104.56 81.57 104.63 81.12 105.08 81.2 105 81.64"/>
            </g>
            <g>
              <rect class="cls-6" x="105.96" y="79.32" width=".45" height=".45" transform="translate(20.18 180.56) rotate(-86.43)"/>
              <path class="cls-6" d="m108.74,79.93l-.78-.05.03-.45.78.05-.03.45Zm-1.17-.07l-.78-.05.03-.45.78.05-.03.45Z"/>
              <polygon class="cls-6" points="109.82 80.21 109.37 80.21 109.37 79.97 109.12 79.95 109.15 79.5 109.82 79.54 109.82 80.21"/>
              <path class="cls-6" d="m109.82,82.73h-.45v-.84h.45v.84Zm0-1.26h-.45v-.84h.45v.84Z"/>
              <rect class="cls-6" x="109.37" y="83.16" width=".45" height=".45"/>
            </g>
            <g>
              <polygon class="cls-6" points="106.84 70.97 106.66 70.56 107.07 70.37 107.26 70.79 106.84 70.97"/>
              <path class="cls-6" d="m107.87,73.27l-.34-.76.41-.18.34.76-.42.18Zm-.51-1.15l-.34-.77.41-.18.34.76-.41.19Z"/>
              <polygon class="cls-6" points="108.15 74.39 107.93 74 108.14 73.88 108.04 73.65 108.46 73.46 108.73 74.07 108.15 74.39"/>
              <path class="cls-6" d="m105.93,75.66l-.23-.39.74-.42.23.39-.74.42Zm1.11-.64l-.23-.39.74-.42.23.39-.74.42Z"/>
              <rect class="cls-6" x="105.02" y="75.56" width=".45" height=".45" transform="translate(-23.73 62.12) rotate(-29.71)"/>
            </g>
            <g>
              <polygon class="cls-6" points="104.54 70.97 104.38 70.54 104.81 70.39 104.96 70.81 104.54 70.97"/>
              <rect class="cls-6" x="104.82" y="71.27" width=".45" height=".86" transform="translate(-18.3 40.69) rotate(-20.2)"/>
              <polygon class="cls-6" points="105.26 73.38 105 73.01 105.23 72.85 105.13 72.59 105.56 72.43 105.78 73.02 105.26 73.38"/>
              <rect class="cls-6" x="103.9" y="73.51" width=".94" height=".45" transform="translate(-23.42 74) rotate(-35.36)"/>
              <polygon class="cls-6" points="103.36 74.73 103.1 74.36 103.47 74.1 103.73 74.47 103.36 74.73"/>
            </g>
            <g>
              <polygon class="cls-6" points="115.38 67.79 115.03 67.5 115.32 67.15 115.67 67.44 115.38 67.79"/>
              <path class="cls-6" d="m113.87,69.6l-.35-.29.5-.6.35.29-.5.6Zm.75-.91l-.35-.29.5-.61.35.29-.5.6Z"/>
              <polygon class="cls-6" points="113.2 70.41 112.65 70.05 112.9 69.67 113.11 69.8 113.27 69.61 113.62 69.9 113.2 70.41"/>
              <path class="cls-6" d="m112.25,69.78l-.8-.53.25-.38.8.53-.25.38Zm-1.2-.8l-.8-.53.25-.38.8.53-.25.38Z"/>
              <rect class="cls-6" x="109.55" y="67.65" width=".45" height=".45" transform="translate(-7.5 121.77) rotate(-56.41)"/>
            </g>
            <g>
              <rect class="cls-6" x="113.77" y="64.98" width=".45" height=".45" transform="translate(-7.81 114.31) rotate(-51.72)"/>
              <polygon class="cls-6" points="113.29 66.46 112.93 66.18 113.43 65.56 113.78 65.84 113.29 66.46"/>
              <polygon class="cls-6" points="112.63 67.29 112.07 66.95 112.31 66.56 112.53 66.69 112.68 66.5 113.04 66.78 112.63 67.29"/>
              <polygon class="cls-6" points="111.63 66.69 110.76 66.17 110.99 65.78 111.87 66.3 111.63 66.69"/>
              <polygon class="cls-6" points="110.32 65.91 109.93 65.68 110.16 65.29 110.55 65.52 110.32 65.91"/>
            </g>
            <g>
              <polygon class="cls-6" points="118.85 69.13 118.4 69.08 118.45 68.63 118.91 68.68 118.85 69.13"/>
              <path class="cls-6" d="m118.55,71.63l-.45-.05.1-.83.45.05-.1.83Zm.15-1.25l-.45-.05.1-.83.45.05-.1.83Z"/>
              <polygon class="cls-6" points="117.97 72.71 118.05 72 118.5 72.05 118.48 72.23 118.67 72.23 118.69 72.68 117.97 72.71"/>
              <path class="cls-6" d="m119.21,72.66l-.02-.45,1.04-.04.02.45-1.04.04Zm1.56-.07l-.02-.45,1.04-.04.02.45-1.04.04Z"/>
              <polygon class="cls-6" points="122.33 72.53 122.31 72.07 122.76 72.05 122.78 72.5 122.33 72.53"/>
            </g>
            <g>
              <rect class="cls-6" x="123.22" y="70.24" width=".46" height=".45"/>
              <rect class="cls-6" x="121.59" y="70.24" width="1.09" height=".45"/>
              <polygon class="cls-6" points="121.04 70.69 120.37 70.69 120.34 70.02 120.8 70 120.81 70.24 121.04 70.24 121.04 70.69"/>
              <rect class="cls-6" x="120.32" y="68.99" width=".45" height=".68" transform="translate(-2.69 4.89) rotate(-2.3)"/>
              <rect class="cls-6" x="120.28" y="68.2" width=".45" height=".45" transform="translate(-2.83 5.24) rotate(-2.46)"/>
            </g>
            <g>
              <rect class="cls-6" x="124.6" y="77.57" width=".45" height=".45" transform="translate(-19.18 47.86) rotate(-20.19)"/>
              <rect class="cls-6" x="123.01" y="78.03" width="1.12" height=".45" transform="translate(-19.37 47.25) rotate(-20.11)"/>
              <polygon class="cls-6" points="122.07 79.3 121.78 78.66 122.44 78.42 122.59 78.85 122.39 78.92 122.48 79.12 122.07 79.3"/>
              <polygon class="cls-6" points="122.64 80.59 122.26 79.73 122.67 79.54 123.06 80.41 122.64 80.59"/>
              <rect class="cls-6" x="122.9" y="80.91" width=".45" height=".45" transform="translate(-22.32 56.88) rotate(-23.92)"/>
            </g>
            <g>
              <polygon class="cls-6" points="123.4 75.88 123.17 75.49 123.56 75.26 123.79 75.65 123.4 75.88"/>
              <path class="cls-6" d="m120.37,77.66l-.23-.39.67-.39.23.39-.67.4Zm1.01-.59l-.23-.39.67-.4.23.39-.67.4Zm1.01-.59l-.23-.39.67-.4.23.39-.68.4Z"/>
              <polygon class="cls-6" points="119.47 78.39 119.25 77.79 119.8 77.46 120.03 77.85 119.8 77.99 119.89 78.24 119.47 78.39"/>
              <path class="cls-6" d="m120.42,81.01l-.32-.87.43-.16.32.87-.43.15Zm-.48-1.31l-.32-.87.43-.15.32.87-.43.16Z"/>
              <polygon class="cls-6" points="120.74 81.87 120.58 81.45 121.01 81.29 121.16 81.72 120.74 81.87"/>
            </g>
          </g>
          <g>
            <rect class="cls-6" x="19.16" y="38.98" width=".34" height="17.95" transform="translate(-8.4 4.32) rotate(-10.48)"/>
            <polygon class="cls-6" points="12.31 53.99 12.09 53.73 25.84 42.08 26.06 42.34 12.31 53.99"/>
            <rect class="cls-6" x="18.9" y="39.12" width=".34" height="17.5" transform="translate(-32.41 49.91) rotate(-70.55)"/>
            <polygon class="cls-6" points="22.99 52.72 19.51 50.45 19.7 50.16 22.38 51.92 21.38 48.67 24.27 46.92 21.11 46.32 20.83 43.77 18.89 45.62 16.09 44.1 16.98 47.02 16.65 47.12 15.52 43.4 18.83 45.2 21.1 43.05 21.42 46.03 25.22 46.75 21.79 48.83 22.99 52.72"/>
            <polygon class="cls-6" points="17.36 53.51 17.32 49.53 13.21 49 16.76 47.03 16.92 47.33 14.29 48.79 17.66 49.23 17.69 52.51 19.6 50.03 19.87 50.23 17.36 53.51"/>
            <polygon class="cls-6" points="18.35 54.83 18.08 54.61 20.07 52.09 22.78 53.89 22.59 54.18 20.14 52.55 18.35 54.83"/>
            <polygon class="cls-6" points="19.37 56.38 19.12 56.15 20.59 54.49 22.43 55.74 22.24 56.02 20.65 54.95 19.37 56.38"/>
            <polygon class="cls-6" points="13.92 54.4 13.58 54.35 13.83 52.46 12 52.15 12.06 51.81 14.21 52.18 13.92 54.4"/>
            <polygon class="cls-6" points="15.98 53.69 15.64 53.69 15.64 50.94 13.05 50.78 13.07 50.44 15.98 50.62 15.98 53.69"/>
            <polygon class="cls-6" points="12.46 48.01 12.29 47.72 14.71 46.33 13.59 43.82 13.9 43.68 15.15 46.48 12.46 48.01"/>
            <polygon class="cls-6" points="11.1 46.98 10.9 46.7 12.51 45.56 11.87 43.81 12.19 43.69 12.92 45.68 11.1 46.98"/>
            <polygon class="cls-6" points="18.54 43.71 15.71 41.84 15.9 41.55 18.47 43.25 20.14 41.24 20.41 41.46 18.54 43.71"/>
            <polygon class="cls-6" points="18.11 41.35 16.06 40.13 16.24 39.83 18.03 40.9 19.11 39.53 19.38 39.75 18.11 41.35"/>
            <polygon class="cls-6" points="22.14 45.45 22.51 42.36 22.85 42.4 22.53 45.09 25.77 44.95 25.78 45.29 22.14 45.45"/>
            <polygon class="cls-6" points="26.46 43.92 23.96 43.92 23.89 42.05 24.23 42.03 24.29 43.58 26.46 43.58 26.46 43.92"/>
            <polygon class="cls-6" points="25.96 52.05 25.03 49.95 27.44 49.08 27.55 49.4 25.49 50.15 26.28 51.91 25.96 52.05"/>
            <polygon class="cls-6" points="24.24 52.38 23.11 49.29 26.38 47.38 26.55 47.67 23.53 49.44 24.56 52.26 24.24 52.38"/>
          </g>
          <polygon class="cls-3" points="16.83 17.46 15.18 17.34 14.57 18.87 13.85 17.38 12.21 17.62 13.14 16.25 12.12 14.96 13.77 15.08 14.38 13.55 15.1 15.04 16.74 14.8 15.81 16.16 16.83 17.46"/>
          <polygon class="cls-2" points="119.15 116.72 115.72 116.47 114.44 119.66 112.95 116.57 109.54 117.05 111.47 114.22 109.35 111.52 112.78 111.77 114.06 108.59 115.55 111.68 118.96 111.19 117.02 114.03 119.15 116.72"/>
          <polygon class="cls-3" points="22.2 124.39 20.07 124.24 19.28 126.21 18.35 124.3 16.24 124.6 17.44 122.84 16.12 121.17 18.25 121.33 19.04 119.35 19.97 121.27 22.08 120.96 20.88 122.72 22.2 124.39"/>
        </g>
        <polygon class="cls-6" points="73.56 53.78 70.13 53.53 68.85 56.71 67.35 53.62 63.95 54.11 65.88 51.27 63.76 48.58 67.19 48.83 68.47 45.64 69.96 48.73 73.37 48.25 71.43 51.08 73.56 53.78"/>
      </g>
    </g>
  </g>
</svg>