<?xml version="1.0" encoding="UTF-8"?>
<svg id="katman_2" data-name="katman 2" xmlns="http://www.w3.org/2000/svg" xmlns:xlink="http://www.w3.org/1999/xlink" viewBox="0 0 131.2 182.82">
  <defs>
    <style>
      .cls-1 {
        fill: #e5e5e5;
      }

      .cls-2 {
        fill: #b88b32;
      }

      .cls-3 {
        fill: #a31111;
      }

      .cls-4 {
        fill: #c63030;
      }

      .cls-5 {
        fill: #a33a3a;
      }

      .cls-6 {
        filter: url(#drop-shadow-1);
      }
    </style>
    <filter id="drop-shadow-1" filterUnits="userSpaceOnUse">
      <feOffset dx="3" dy="3"/>
      <feGaussianBlur result="blur" stdDeviation="4"/>
      <feFlood flood-color="#000" flood-opacity=".35"/>
      <feComposite in2="blur" operator="in"/>
      <feComposite in="SourceGraphic"/>
    </filter>
  </defs>
  <g id="Objects">
    <g class="cls-6">
      <rect class="cls-4" width="131.2" height="182.82"/>
      <path class="cls-3" d="m117.5,100.39l-5.17,4.05c-.2.16-.17.47.06.58l.91.45c.21.1.26.38.1.55l-4.39,4.75c-.18.2-.08.52.18.58l1.2.25c.25.05.36.36.2.56l-3.53,4.36c-.16.2-.06.49.18.55l11.41,3.03c.23.06.45-.12.43-.35l-.29-5.21c-.01-.23.19-.4.41-.36l.84.16c.24.05.44-.16.41-.39l-1.05-6.89c-.03-.22.15-.42.38-.4l.69.07c.27.03.46-.25.35-.5l-2.78-5.72c-.1-.2-.35-.26-.52-.12Z"/>
      <path class="cls-3" d="m66.59,26.9l-2.74,3.91c-.11.15-.02.36.16.39l.73.12c.17.03.26.21.19.36l-2.05,4.23c-.09.18.05.38.25.36l.89-.08c.19-.02.33.17.25.34l-1.53,3.78c-.07.17.06.35.24.35l8.57-.31c.17,0,.29-.18.23-.34l-1.31-3.56c-.06-.16.05-.32.21-.34l.62-.06c.17-.02.28-.2.2-.36l-2.18-4.56c-.07-.15.02-.32.18-.36l.5-.1c.19-.04.27-.27.13-.42l-3.14-3.39c-.11-.12-.3-.1-.39.03Z"/>
      <path class="cls-3" d="m18.44,102.22l-3.34,5.66c-.13.22.01.5.27.52l1.01.09c.23.02.38.26.29.47l-2.36,6.03c-.1.25.11.51.38.47l1.21-.2c.25-.04.46.2.39.45l-1.7,5.35c-.08.24.12.48.37.45l11.73-1.33c.23-.03.37-.27.28-.49l-2.17-4.75c-.1-.21.03-.44.25-.48l.84-.15c.23-.04.36-.31.24-.51l-3.49-6.03c-.11-.2-.01-.45.21-.51l.67-.19c.26-.07.34-.4.14-.59l-4.68-4.32c-.16-.15-.42-.11-.53.08Z"/>
      <polygon class="cls-1" points="25.9 136.81 23.6 136.64 22.74 138.78 21.74 136.7 19.46 137.03 20.75 135.12 19.33 133.31 21.63 133.48 22.48 131.34 23.49 133.42 25.77 133.09 24.47 134.99 25.9 136.81"/>
      <polygon class="cls-5" points="48.64 26.08 46.02 25.89 45.04 28.33 43.9 25.96 41.29 26.34 42.77 24.16 41.15 22.09 43.77 22.29 44.75 19.85 45.89 22.21 48.49 21.84 47.01 24.01 48.64 26.08"/>
      <polygon class="cls-3" points="98.18 29.35 94.82 29.1 93.57 32.22 92.11 29.19 88.77 29.67 90.67 26.89 88.59 24.24 91.94 24.49 93.2 21.36 94.66 24.39 97.99 23.92 96.1 26.7 98.18 29.35"/>
      <polygon class="cls-5" points="110.62 141.64 106.85 141.37 105.44 144.88 103.8 141.47 100.06 142.01 102.18 138.88 99.85 135.91 103.62 136.19 105.02 132.68 106.67 136.08 110.41 135.55 108.28 138.67 110.62 141.64"/>
      <polygon class="cls-2" points="108.52 59.46 106.22 59.29 105.36 61.43 104.36 59.35 102.08 59.68 103.38 57.77 101.95 55.96 104.25 56.13 105.11 53.99 106.11 56.07 108.39 55.74 107.09 57.64 108.52 59.46"/>
      <polygon class="cls-2" points="29.18 52.02 26.88 51.85 26.03 53.99 25.02 51.91 22.74 52.24 24.04 50.33 22.61 48.52 24.91 48.69 25.77 46.55 26.77 48.63 29.05 48.3 27.76 50.2 29.18 52.02"/>
      <polygon class="cls-2" points="72.78 150.93 68.92 150.64 67.47 154.24 65.79 150.75 61.95 151.3 64.13 148.09 61.73 145.04 65.6 145.33 67.04 141.73 68.73 145.22 72.57 144.67 70.39 147.88 72.78 150.93"/>
    </g>
  </g>
</svg>