<?xml version="1.0" encoding="UTF-8"?>
<svg id="katman_2" data-name="katman 2" xmlns="http://www.w3.org/2000/svg" xmlns:xlink="http://www.w3.org/1999/xlink" viewBox="0 0 131.2 182.82">
  <defs>
    <style>
      .cls-1 {
        fill: #a07600;
      }

      .cls-2 {
        fill: #cc9600;
      }

      .cls-3 {
        filter: url(#drop-shadow-1);
      }
    </style>
    <filter id="drop-shadow-1" filterUnits="userSpaceOnUse">
      <feOffset dx="3" dy="3"/>
      <feGaussianBlur result="blur" stdDeviation="4"/>
      <feFlood flood-color="#000" flood-opacity=".35"/>
      <feComposite in2="blur" operator="in"/>
      <feComposite in="SourceGraphic"/>
    </filter>
  </defs>
  <g id="Objects">
    <g class="cls-3">
      <rect class="cls-2" width="131.2" height="182.82"/>
      <g>
        <path class="cls-1" d="m109.01,124.85c-.08,0-.15-.05-.16-.13l-1.97-9.99c-.02-.09.04-.18.13-.19.09-.02.18.04.19.13l1.97,9.99c.02.09-.04.18-.13.19-.01,0-.02,0-.03,0Z"/>
        <path class="cls-1" d="m103.59,123.38s-.09-.02-.12-.06c-.06-.07-.05-.17.02-.23l8.38-7.04c.07-.06.17-.05.23.02.06.07.05.17-.02.23l-8.38,7.04s-.07.04-.11.04Z"/>
        <path class="cls-1" d="m112.62,121.41s-.04,0-.05,0l-9.36-3.28c-.09-.03-.13-.12-.1-.21.03-.09.12-.13.21-.1l9.36,3.28c.09.03.13.12.1.21-.02.07-.09.11-.15.11Z"/>
        <path class="cls-1" d="m109.58,121.82s-.06,0-.09-.03l-1.47-.96c-.08-.05-.1-.15-.05-.23.05-.08.15-.1.23-.05l1.09.71-.39-1.27c-.02-.07,0-.15.07-.19l1.15-.69-1.24-.24c-.07-.01-.13-.07-.13-.14l-.11-.99-.76.73c-.05.05-.13.06-.19.03l-1.11-.6.37,1.2c.03.09-.02.18-.11.2-.09.03-.18-.02-.2-.11l-.48-1.59c-.02-.06,0-.13.05-.17.05-.04.12-.05.18-.02l1.35.74.92-.87s.11-.06.17-.04c.06.02.1.07.11.14l.13,1.2,1.54.29c.07.01.12.07.13.13.01.07-.02.13-.08.17l-1.4.85.49,1.58c.02.07,0,.14-.06.18-.03.02-.06.03-.1.03Z"/>
        <path class="cls-1" d="m107.12,122.15s-.04,0-.05,0c-.07-.02-.11-.08-.11-.15l-.02-1.59-1.65-.21c-.07,0-.13-.06-.14-.13-.01-.07.02-.14.08-.17l1.48-.82c.08-.04.18-.02.22.06.04.08.02.18-.06.22l-1.04.58,1.29.17c.08.01.14.08.14.16v1.26s.78-1,.78-1c.06-.07.16-.09.23-.03.07.05.09.16.03.23l-1.05,1.38s-.08.06-.13.06Z"/>
        <path class="cls-1" d="m107.45,122.97s-.07-.01-.1-.04c-.07-.06-.08-.16-.03-.23l.9-1.15c.05-.07.15-.08.22-.04l1.23.82c.08.05.1.15.05.23s-.15.1-.23.04l-1.11-.73-.81,1.03s-.08.06-.13.06Z"/>
        <path class="cls-1" d="m107.94,123.71s-.08-.01-.11-.04c-.07-.06-.07-.16-.01-.23l.66-.74c.05-.06.15-.07.21-.03l.82.55c.08.05.1.15.04.23-.05.08-.15.09-.23.04l-.7-.47-.56.63s-.08.05-.12.05Z"/>
        <path class="cls-1" d="m105.23,123.21s-.02,0-.02,0c-.09-.01-.15-.1-.14-.19l.19-1.24-1.21-.22c-.09-.02-.15-.1-.13-.19.02-.09.1-.15.19-.13l1.36.25c.09.02.15.1.13.19l-.21,1.39c-.01.08-.08.14-.16.14Z"/>
        <path class="cls-1" d="m106.22,122.56s0,0,0,0c-.09,0-.16-.08-.16-.17l.07-1.32-1.08-.14c-.09-.01-.15-.09-.14-.18.01-.09.1-.15.18-.14l1.23.16c.09.01.15.09.14.17l-.08,1.47c0,.09-.08.16-.16.16Z"/>
        <path class="cls-1" d="m104.66,119.69c-.06,0-.11-.03-.14-.08-.04-.08-.02-.18.06-.22l1.1-.62-.51-1.13c-.04-.08,0-.18.08-.22.08-.04.18,0,.22.08l.57,1.27c.03.08,0,.17-.07.21l-1.23.7s-.05.02-.08.02Z"/>
        <path class="cls-1" d="m104,119.2c-.05,0-.1-.02-.13-.07-.05-.07-.04-.18.04-.23l.72-.51-.29-.77c-.03-.09.01-.18.1-.21.08-.03.18.01.21.1l.33.89c.03.07,0,.15-.06.19l-.82.58s-.06.03-.09.03Z"/>
        <path class="cls-1" d="m107.59,117.6s-.06,0-.09-.03l-1.29-.85c-.08-.05-.1-.15-.05-.23.05-.08.15-.1.23-.05l1.16.77.84-1.14c.05-.07.16-.09.23-.04.07.05.09.16.04.23l-.93,1.26s-.08.07-.13.07Z"/>
        <path class="cls-1" d="m107.38,116.47s-.06,0-.08-.02l-.92-.54c-.08-.05-.1-.15-.06-.22.05-.08.15-.1.22-.06l.79.47.55-.68c.06-.07.16-.08.23-.02.07.06.08.16.02.23l-.64.79s-.08.06-.13.06Z"/>
        <path class="cls-1" d="m109.42,118.45s-.09-.02-.12-.06c-.03-.04-.05-.09-.04-.14l.25-1.46c.01-.09.1-.15.19-.13.09.02.15.1.13.19l-.21,1.26,1.44-.06c.09,0,.17.07.17.16s-.07.17-.16.17l-1.64.07h0Z"/>
        <path class="cls-1" d="m111.39,117.73h-1.12s-.09-.02-.12-.05c-.03-.03-.05-.08-.05-.12l.05-1.07c0-.09.08-.16.17-.16.09,0,.16.08.16.17l-.04.89h.94c.09,0,.16.07.16.16s-.07.16-.16.16Z"/>
        <path class="cls-1" d="m111.31,121.9c-.06,0-.13-.04-.15-.1l-.49-1.17s-.02-.09,0-.13c.02-.04.05-.07.09-.09l1.07-.39c.09-.03.18.01.21.1.03.08-.01.18-.1.21l-.91.33.43,1.01c.03.08,0,.18-.09.21-.02,0-.04.01-.06.01Z"/>
        <path class="cls-1" d="m110.49,122.23c-.07,0-.13-.04-.16-.11l-.6-1.82c-.02-.07,0-.15.07-.19l1.5-.88c.08-.05.18-.02.23.06.05.08.02.18-.06.22l-1.39.81.56,1.7c.03.09-.02.18-.1.21-.02,0-.03,0-.05,0Z"/>
      </g>
      <g>
        <path class="cls-1" d="m18.3,99.61c-.12,0-.22-.08-.24-.2l-2.96-14.99c-.03-.13.06-.26.19-.29.13-.03.26.06.29.19l2.96,14.99c.03.13-.06.26-.19.29-.02,0-.03,0-.05,0Z"/>
        <path class="cls-1" d="m10.17,97.4c-.07,0-.14-.03-.19-.09-.09-.1-.07-.26.03-.35l12.57-10.57c.1-.09.26-.07.35.03s.07.26-.03.35l-12.57,10.57s-.1.06-.16.06Z"/>
        <path class="cls-1" d="m23.72,94.45s-.05,0-.08-.01l-14.05-4.92c-.13-.04-.2-.19-.15-.31.04-.13.19-.2.31-.15l14.05,4.92c.13.04.2.18.15.31-.04.1-.13.16-.23.16Z"/>
        <path class="cls-1" d="m19.16,95.06s-.09-.01-.13-.04l-2.21-1.45c-.11-.07-.14-.23-.07-.34.08-.11.23-.15.34-.07l1.64,1.07-.59-1.91c-.03-.11.01-.22.11-.28l1.72-1.04-1.86-.35c-.11-.02-.19-.11-.2-.21l-.16-1.49-1.15,1.09c-.08.07-.19.09-.29.04l-1.66-.9.55,1.8c.04.13-.03.27-.16.31-.13.04-.27-.03-.31-.16l-.72-2.38c-.03-.09,0-.2.08-.26.08-.06.19-.07.27-.02l2.03,1.1,1.38-1.31c.07-.07.17-.09.25-.05.09.03.15.11.16.2l.2,1.8,2.31.44c.1.02.18.1.2.2.02.1-.03.2-.11.25l-2.1,1.27.73,2.38c.03.1,0,.21-.09.27-.04.03-.1.05-.15.05Z"/>
        <path class="cls-1" d="m15.46,95.55s-.05,0-.08-.01c-.1-.03-.17-.13-.17-.23l-.03-2.39-2.47-.32c-.11-.01-.19-.09-.21-.2s.03-.21.12-.26l2.22-1.23c.12-.07.27-.02.33.1.07.12.02.27-.1.33l-1.57.87,1.94.25c.12.02.21.12.21.24l.02,1.89,1.15-1.5c.08-.11.24-.13.34-.05.11.08.13.24.05.34l-1.58,2.06c-.05.06-.12.1-.2.1Z"/>
        <path class="cls-1" d="m15.96,96.78c-.05,0-.11-.02-.15-.05-.11-.08-.13-.24-.04-.35l1.36-1.72c.08-.1.22-.12.33-.05l1.85,1.23c.11.08.14.23.07.34-.08.11-.23.14-.34.07l-1.66-1.1-1.21,1.54c-.05.06-.12.09-.19.09Z"/>
        <path class="cls-1" d="m16.7,97.89c-.06,0-.12-.02-.16-.06-.1-.09-.11-.25-.02-.35l.99-1.11c.08-.09.22-.11.32-.04l1.23.83c.11.08.14.23.07.34-.08.11-.23.14-.34.07l-1.05-.71-.84.95c-.05.05-.12.08-.18.08Z"/>
        <path class="cls-1" d="m12.63,97.15s-.02,0-.04,0c-.13-.02-.23-.15-.21-.28l.28-1.85-1.81-.33c-.13-.02-.22-.15-.2-.29s.15-.22.29-.2l2.04.37c.13.02.22.15.2.28l-.32,2.09c-.02.12-.12.21-.24.21Z"/>
        <path class="cls-1" d="m14.11,96.17s0,0-.01,0c-.14,0-.24-.12-.23-.26l.11-1.99-1.62-.22c-.13-.02-.23-.14-.21-.28.02-.13.14-.23.28-.21l1.85.25c.13.02.22.13.21.26l-.12,2.21c0,.13-.12.23-.25.23Z"/>
        <path class="cls-1" d="m11.77,91.87c-.09,0-.17-.04-.21-.12-.07-.12-.03-.27.09-.33l1.64-.94-.76-1.7c-.06-.12,0-.27.12-.32.12-.06.27,0,.33.12l.85,1.9c.05.12,0,.25-.1.31l-1.84,1.05s-.08.03-.12.03Z"/>
        <path class="cls-1" d="m10.78,91.13c-.08,0-.15-.04-.2-.1-.08-.11-.05-.26.06-.34l1.08-.76-.43-1.16c-.05-.13.02-.27.15-.32s.27.02.32.15l.49,1.34c.04.1,0,.22-.09.29l-1.23.87s-.09.04-.14.04Z"/>
        <path class="cls-1" d="m16.16,88.72s-.09-.01-.14-.04l-1.93-1.28c-.11-.08-.14-.23-.07-.34.08-.11.23-.14.34-.07l1.74,1.15,1.25-1.71c.08-.11.23-.13.34-.05.11.08.13.23.05.34l-1.39,1.89c-.05.07-.12.1-.2.1Z"/>
        <path class="cls-1" d="m15.85,87.03s-.09-.01-.13-.04l-1.37-.82c-.12-.07-.16-.22-.08-.34.07-.12.22-.15.34-.09l1.19.71.83-1.02c.09-.1.24-.12.35-.04.11.09.12.24.04.35l-.97,1.19c-.05.06-.12.09-.19.09Z"/>
        <path class="cls-1" d="m18.91,90c-.07,0-.14-.03-.18-.08-.05-.06-.07-.13-.06-.2l.37-2.19c.02-.13.15-.22.28-.2.13.02.22.15.2.28l-.32,1.89,2.16-.09c.13,0,.25.1.26.24,0,.13-.1.25-.24.25l-2.46.1s0,0-.01,0Z"/>
        <path class="cls-1" d="m21.87,88.92h-1.67c-.07,0-.13-.03-.18-.08-.05-.05-.07-.11-.07-.18l.07-1.6c0-.14.12-.24.26-.23.14,0,.24.12.24.26l-.06,1.34h1.42c.14,0,.25.11.25.25s-.11.25-.25.25Z"/>
        <path class="cls-1" d="m21.75,95.18c-.1,0-.19-.06-.23-.15l-.74-1.75c-.03-.06-.03-.13,0-.19.03-.06.08-.11.14-.13l1.6-.58c.13-.05.27.02.32.15.05.13-.02.27-.15.31l-1.36.5.64,1.51c.05.12,0,.27-.13.32-.03.01-.06.02-.1.02Z"/>
        <path class="cls-1" d="m20.52,95.67c-.1,0-.2-.07-.23-.17l-.9-2.73c-.04-.11,0-.23.11-.29l2.25-1.32c.12-.07.27-.03.34.09.07.12.03.27-.09.34l-2.08,1.22.84,2.55c.04.13-.03.27-.16.31-.03,0-.05.01-.08.01Z"/>
      </g>
      <g>
        <path class="cls-1" d="m70.9,31.32c-.12,0-.22-.08-.24-.2l-2.96-14.99c-.03-.13.06-.26.19-.29.13-.03.26.06.29.19l2.96,14.99c.03.13-.06.26-.19.29-.02,0-.03,0-.05,0Z"/>
        <path class="cls-1" d="m62.76,29.11c-.07,0-.14-.03-.19-.09-.09-.1-.07-.26.03-.35l12.57-10.57c.1-.09.26-.07.35.03.09.1.07.26-.03.35l-12.57,10.57s-.1.06-.16.06Z"/>
        <path class="cls-1" d="m76.32,26.16s-.05,0-.08-.01l-14.05-4.92c-.13-.04-.2-.18-.15-.31.04-.13.19-.2.31-.15l14.05,4.92c.13.04.2.18.15.31-.04.1-.13.17-.23.17Z"/>
        <path class="cls-1" d="m71.76,26.77s-.09-.01-.14-.04l-2.21-1.45c-.11-.07-.15-.23-.07-.34.07-.11.23-.14.34-.07l1.64,1.07-.59-1.91c-.03-.11.01-.22.11-.28l1.72-1.04-1.86-.35c-.11-.02-.19-.11-.2-.21l-.16-1.49-1.15,1.09c-.08.07-.19.09-.29.04l-1.66-.9.55,1.8c.04.13-.03.27-.16.31-.13.04-.27-.03-.31-.16l-.72-2.38c-.03-.09,0-.2.08-.26.08-.06.19-.07.27-.03l2.03,1.1,1.38-1.31c.07-.06.17-.09.25-.05.09.03.15.11.16.2l.2,1.8,2.31.44c.1.02.18.1.2.2.02.1-.03.2-.11.25l-2.1,1.27.73,2.38c.03.1,0,.21-.09.27-.04.03-.1.05-.15.05Z"/>
        <path class="cls-1" d="m68.06,27.26s-.05,0-.08-.01c-.1-.03-.17-.12-.17-.23l-.03-2.39-2.47-.32c-.11-.01-.19-.09-.21-.2-.02-.1.03-.21.12-.26l2.22-1.23c.12-.07.27-.02.34.1.07.12.02.27-.1.33l-1.56.87,1.94.25c.12.02.21.12.21.24l.02,1.89,1.15-1.5c.08-.11.24-.13.35-.05.11.08.13.24.05.34l-1.58,2.06c-.05.06-.12.1-.2.1Z"/>
        <path class="cls-1" d="m68.56,28.49c-.05,0-.11-.02-.15-.05-.11-.08-.13-.24-.04-.34l1.36-1.72c.08-.1.22-.12.33-.05l1.85,1.23c.11.08.14.23.07.34-.08.11-.23.14-.34.07l-1.66-1.1-1.21,1.54c-.05.06-.12.09-.19.09Z"/>
        <path class="cls-1" d="m69.3,29.6c-.06,0-.12-.02-.16-.06-.1-.09-.11-.25-.02-.35l.99-1.11c.08-.09.22-.11.32-.04l1.23.83c.11.08.14.23.07.34-.08.11-.23.14-.34.07l-1.05-.71-.84.95c-.05.05-.12.08-.18.08Z"/>
        <path class="cls-1" d="m65.23,28.86s-.03,0-.04,0c-.13-.02-.23-.15-.21-.28l.28-1.85-1.81-.33c-.13-.02-.22-.15-.2-.29.02-.13.15-.22.29-.2l2.04.37c.13.02.22.15.2.28l-.32,2.09c-.02.12-.12.21-.24.21Z"/>
        <path class="cls-1" d="m66.71,27.88h-.01c-.14,0-.24-.12-.23-.26l.11-1.99-1.62-.22c-.13-.02-.23-.14-.21-.28.02-.13.14-.23.28-.21l1.85.25c.13.02.22.13.21.26l-.12,2.21c0,.13-.12.23-.25.23Z"/>
        <path class="cls-1" d="m64.37,23.58c-.09,0-.17-.04-.21-.12-.07-.12-.03-.27.09-.34l1.64-.94-.76-1.7c-.06-.12,0-.27.12-.33.12-.06.27,0,.33.12l.85,1.9c.05.12,0,.25-.1.31l-1.84,1.05s-.08.03-.12.03Z"/>
        <path class="cls-1" d="m63.38,22.84c-.08,0-.15-.04-.2-.1-.08-.11-.05-.26.06-.34l1.08-.76-.43-1.16c-.05-.13.02-.27.15-.32.13-.05.27.02.32.15l.49,1.34c.04.1,0,.22-.09.28l-1.23.87s-.09.05-.14.05Z"/>
        <path class="cls-1" d="m68.76,20.43s-.09-.01-.14-.04l-1.93-1.28c-.11-.08-.14-.23-.07-.34.08-.11.23-.14.34-.07l1.74,1.15,1.25-1.71c.08-.11.24-.13.35-.05.11.08.13.23.05.34l-1.39,1.89c-.05.07-.12.1-.2.1Z"/>
        <path class="cls-1" d="m68.45,18.74s-.09-.01-.13-.03l-1.37-.82c-.12-.07-.15-.22-.08-.34.07-.12.22-.16.34-.09l1.19.71.83-1.02c.09-.11.24-.12.35-.04.11.09.12.24.04.35l-.97,1.19c-.05.06-.12.09-.19.09Z"/>
        <path class="cls-1" d="m71.51,21.71c-.07,0-.14-.03-.19-.08-.05-.06-.07-.13-.06-.2l.37-2.19c.02-.13.15-.22.28-.2.13.02.22.15.2.28l-.32,1.89,2.16-.09c.13,0,.25.1.26.24,0,.14-.1.25-.24.26l-2.46.1s0,0,0,0Z"/>
        <path class="cls-1" d="m74.47,20.63h-1.67c-.07,0-.13-.03-.18-.08-.05-.05-.07-.11-.07-.18l.07-1.6c0-.14.12-.24.26-.23.14,0,.24.12.24.26l-.06,1.34h1.42c.14,0,.25.11.25.25s-.11.25-.25.25Z"/>
        <path class="cls-1" d="m74.35,26.89c-.1,0-.19-.06-.23-.15l-.74-1.75c-.03-.06-.03-.13,0-.19.03-.06.08-.11.14-.13l1.6-.58c.13-.05.27.02.32.15.05.13-.02.27-.15.31l-1.36.5.64,1.51c.05.13,0,.27-.13.32-.03.01-.06.02-.1.02Z"/>
        <path class="cls-1" d="m73.12,27.39c-.1,0-.2-.07-.23-.17l-.9-2.73c-.04-.11,0-.23.11-.29l2.25-1.32c.12-.07.27-.03.34.09.07.12.03.27-.09.34l-2.08,1.22.84,2.55c.04.13-.03.27-.16.31-.03,0-.05.01-.08.01Z"/>
      </g>
      <g>
        <path class="cls-1" d="m20.25,28.69c-.11,0-.22-.08-.24-.2l-2.93-14.84c-.03-.13.06-.26.19-.29.13-.03.26.06.29.19l2.93,14.84c.03.13-.06.26-.19.29-.02,0-.03,0-.05,0Z"/>
        <path class="cls-1" d="m12.2,26.5c-.07,0-.14-.03-.19-.09-.09-.1-.07-.26.03-.34l12.44-10.46c.1-.09.26-.07.34.03.09.1.07.26-.03.34l-12.44,10.46s-.1.06-.16.06Z"/>
        <path class="cls-1" d="m25.62,23.58s-.05,0-.08-.01l-13.9-4.87c-.13-.04-.19-.18-.15-.31.04-.13.18-.19.31-.15l13.91,4.87c.13.04.19.18.15.31-.04.1-.13.16-.23.16Z"/>
        <path class="cls-1" d="m21.11,24.18s-.09-.01-.13-.04l-2.19-1.43c-.11-.07-.14-.22-.07-.34.07-.11.22-.14.34-.07l1.62,1.06-.58-1.89c-.03-.11.01-.22.11-.28l1.7-1.03-1.84-.35c-.11-.02-.18-.11-.2-.21l-.16-1.47-1.13,1.08c-.08.07-.19.09-.29.04l-1.64-.89.54,1.79c.04.13-.03.26-.16.3-.13.04-.27-.03-.3-.16l-.72-2.35c-.03-.09,0-.2.08-.26.08-.06.18-.07.27-.02l2.01,1.09,1.36-1.3c.07-.06.16-.08.25-.05.09.03.15.11.16.2l.2,1.79,2.29.44c.1.02.18.1.19.2.02.1-.03.2-.11.25l-2.08,1.26.72,2.35c.03.1,0,.2-.09.27-.04.03-.09.05-.15.05Z"/>
        <path class="cls-1" d="m17.45,24.67s-.05,0-.08-.01c-.1-.03-.17-.12-.17-.23l-.03-2.36-2.45-.32c-.1-.01-.19-.09-.21-.2-.02-.1.03-.21.12-.26l2.2-1.22c.12-.07.27-.02.33.09.07.12.02.27-.09.33l-1.55.86,1.92.25c.12.02.21.12.21.24l.02,1.87,1.14-1.48c.08-.11.23-.13.34-.04.11.08.13.23.05.34l-1.57,2.04c-.05.06-.12.1-.19.1Z"/>
        <path class="cls-1" d="m17.94,25.89c-.05,0-.11-.02-.15-.05-.11-.08-.12-.24-.04-.34l1.34-1.7c.08-.1.22-.12.33-.05l1.83,1.22c.11.07.14.23.07.34-.07.11-.23.14-.34.07l-1.64-1.09-1.2,1.53c-.05.06-.12.09-.19.09Z"/>
        <path class="cls-1" d="m18.67,26.98c-.06,0-.12-.02-.16-.06-.1-.09-.11-.24-.02-.34l.98-1.09c.08-.09.22-.11.32-.04l1.22.82c.11.08.14.23.07.34-.08.11-.23.14-.34.07l-1.04-.7-.83.94c-.05.05-.12.08-.18.08Z"/>
        <path class="cls-1" d="m14.64,26.25s-.02,0-.04,0c-.13-.02-.22-.14-.2-.28l.28-1.83-1.79-.32c-.13-.02-.22-.15-.2-.28.02-.13.15-.22.28-.2l2.02.36c.13.02.22.15.2.28l-.32,2.07c-.02.12-.12.21-.24.21Z"/>
        <path class="cls-1" d="m16.11,25.28s0,0-.01,0c-.13,0-.24-.12-.23-.26l.11-1.96-1.61-.21c-.13-.02-.23-.14-.21-.27.02-.13.14-.23.27-.21l1.83.24c.13.02.22.13.21.25l-.12,2.19c0,.13-.12.23-.24.23Z"/>
        <path class="cls-1" d="m13.79,21.02c-.08,0-.17-.04-.21-.12-.07-.12-.03-.26.09-.33l1.63-.93-.75-1.68c-.06-.12,0-.27.12-.32.12-.05.27,0,.32.12l.84,1.88c.05.11,0,.25-.1.31l-1.82,1.04s-.08.03-.12.03Z"/>
        <path class="cls-1" d="m12.81,20.29c-.08,0-.15-.04-.2-.1-.08-.11-.05-.26.06-.34l1.07-.76-.42-1.15c-.05-.13.02-.27.15-.31.13-.05.27.02.31.14l.49,1.33c.04.1,0,.22-.09.28l-1.22.86s-.09.04-.14.04Z"/>
        <path class="cls-1" d="m18.14,17.91s-.09-.01-.13-.04l-1.91-1.27c-.11-.07-.14-.22-.07-.34.07-.11.22-.14.34-.07l1.72,1.14,1.24-1.69c.08-.11.23-.13.34-.05.11.08.13.23.05.34l-1.38,1.88c-.05.06-.12.1-.2.1Z"/>
        <path class="cls-1" d="m17.83,16.24s-.09-.01-.12-.03l-1.36-.81c-.12-.07-.15-.22-.08-.33.07-.12.22-.15.33-.08l1.18.7.82-1.01c.08-.1.24-.12.34-.04.1.09.12.24.04.34l-.96,1.17c-.05.06-.12.09-.19.09Z"/>
        <path class="cls-1" d="m20.86,19.18c-.07,0-.14-.03-.18-.08-.05-.05-.07-.13-.06-.2l.37-2.17c.02-.13.15-.22.28-.2.13.02.22.15.2.28l-.32,1.88,2.14-.09c.13,0,.25.1.25.23,0,.13-.1.25-.23.25l-2.44.1h-.01Z"/>
        <path class="cls-1" d="m23.79,18.1h-1.66c-.07,0-.13-.03-.18-.08-.05-.05-.07-.11-.07-.18l.07-1.58c0-.13.12-.24.25-.23.13,0,.24.12.23.25l-.06,1.33h1.4c.13,0,.24.11.24.24s-.11.24-.24.24Z"/>
        <path class="cls-1" d="m23.67,24.31c-.09,0-.19-.06-.23-.15l-.73-1.73c-.03-.06-.03-.13,0-.19.03-.06.08-.11.14-.13l1.59-.58c.12-.04.27.02.31.15.05.13-.02.27-.14.31l-1.35.49.63,1.5c.05.12,0,.27-.13.32-.03.01-.06.02-.09.02Z"/>
        <path class="cls-1" d="m22.45,24.79c-.1,0-.2-.06-.23-.17l-.89-2.71c-.04-.11,0-.23.11-.29l2.23-1.31c.12-.07.27-.03.33.09.07.12.03.27-.09.33l-2.06,1.21.83,2.52c.04.13-.03.26-.16.31-.02,0-.05.01-.08.01Z"/>
      </g>
      <g>
        <path class="cls-1" d="m35.79,65.35c-.06,0-.12-.04-.13-.11l-1.65-8.37c-.02-.07.03-.15.11-.16.07-.01.15.03.16.11l1.65,8.37c.01.07-.03.15-.11.16,0,0-.02,0-.03,0Z"/>
        <path class="cls-1" d="m31.25,64.12s-.08-.02-.11-.05c-.05-.06-.04-.14.02-.19l7.02-5.9c.06-.05.14-.04.19.02.05.06.04.14-.02.19l-7.02,5.9s-.06.03-.09.03Z"/>
        <path class="cls-1" d="m38.82,62.47s-.03,0-.04,0l-7.85-2.75c-.07-.03-.11-.1-.08-.17.03-.07.1-.11.17-.08l7.85,2.75c.07.03.11.1.08.18-.02.06-.07.09-.13.09Z"/>
        <path class="cls-1" d="m36.27,62.81s-.05,0-.08-.02l-1.23-.81c-.06-.04-.08-.13-.04-.19.04-.06.13-.08.19-.04l.91.6-.33-1.06c-.02-.06,0-.12.06-.16l.96-.58-1.04-.2c-.06-.01-.11-.06-.11-.12l-.09-.83-.64.61s-.11.05-.16.02l-.93-.5.31,1.01c.02.07-.02.15-.09.17-.07.02-.15-.02-.17-.09l-.4-1.33c-.02-.05,0-.11.04-.15.04-.04.1-.04.15-.01l1.13.62.77-.73s.09-.05.14-.03c.05.02.08.06.09.11l.11,1.01,1.29.25c.06.01.1.05.11.11,0,.06-.01.11-.06.14l-1.17.71.41,1.33c.02.06,0,.12-.05.15-.02.02-.05.03-.08.03Z"/>
        <path class="cls-1" d="m34.21,63.09s-.03,0-.04,0c-.06-.02-.09-.07-.09-.13v-1.33s-1.39-.18-1.39-.18c-.06,0-.11-.05-.12-.11-.01-.06.02-.12.07-.15l1.24-.69c.07-.04.15-.01.19.05.04.07.01.15-.05.19l-.87.48,1.08.14c.07,0,.12.07.12.13v1.05s.65-.84.65-.84c.05-.06.13-.07.19-.03.06.05.07.13.03.19l-.88,1.15s-.07.05-.11.05Z"/>
        <path class="cls-1" d="m34.48,63.77s-.06,0-.08-.03c-.06-.05-.07-.13-.02-.19l.76-.96c.04-.06.12-.07.18-.03l1.03.69c.06.04.08.13.04.19-.04.06-.13.08-.19.04l-.93-.62-.68.86s-.07.05-.11.05Z"/>
        <path class="cls-1" d="m34.9,64.39s-.07-.01-.09-.04c-.06-.05-.06-.14-.01-.19l.55-.62c.05-.05.12-.06.18-.02l.69.46c.06.04.08.13.04.19-.04.06-.13.08-.19.04l-.59-.4-.47.53s-.06.05-.1.05Z"/>
        <path class="cls-1" d="m32.63,63.98s-.01,0-.02,0c-.08-.01-.13-.08-.12-.16l.16-1.03-1.01-.18c-.08-.01-.12-.08-.11-.16.01-.08.09-.12.16-.11l1.14.21c.07.01.12.08.11.16l-.18,1.17c-.01.07-.07.12-.14.12Z"/>
        <path class="cls-1" d="m33.45,63.43s0,0,0,0c-.08,0-.13-.07-.13-.14l.06-1.11-.91-.12c-.08-.01-.13-.08-.12-.15,0-.08.08-.13.15-.12l1.03.14c.07,0,.12.07.12.14l-.07,1.24c0,.07-.06.13-.14.13Z"/>
        <path class="cls-1" d="m32.14,61.03s-.09-.02-.12-.07c-.04-.07-.02-.15.05-.19l.92-.52-.42-.95c-.03-.07,0-.15.07-.18.07-.03.15,0,.18.07l.48,1.06c.03.06,0,.14-.06.17l-1.03.59s-.04.02-.07.02Z"/>
        <path class="cls-1" d="m31.59,60.62s-.08-.02-.11-.06c-.04-.06-.03-.15.03-.19l.6-.43-.24-.65c-.03-.07.01-.15.08-.18.07-.03.15.01.18.08l.28.75c.02.06,0,.12-.05.16l-.69.49s-.05.03-.08.03Z"/>
        <path class="cls-1" d="m34.6,59.27s-.05,0-.08-.02l-1.08-.71c-.06-.04-.08-.13-.04-.19s.13-.08.19-.04l.97.64.7-.95c.04-.06.13-.07.19-.03.06.04.07.13.03.19l-.78,1.06s-.07.06-.11.06Z"/>
        <path class="cls-1" d="m34.43,58.33s-.05,0-.07-.02l-.77-.46c-.06-.04-.09-.12-.05-.19.04-.07.12-.09.19-.05l.66.4.46-.57c.05-.06.13-.07.19-.02.06.05.07.13.02.19l-.54.66s-.07.05-.11.05Z"/>
        <path class="cls-1" d="m36.14,59.99s-.08-.02-.1-.05c-.03-.03-.04-.07-.03-.11l.21-1.23c.01-.07.08-.12.16-.11.08.01.13.08.11.16l-.18,1.06,1.21-.05c.08,0,.14.06.14.13,0,.08-.06.14-.13.14l-1.38.06h0Z"/>
        <path class="cls-1" d="m37.79,59.38h-.93s-.07-.01-.1-.04c-.03-.03-.04-.06-.04-.1l.04-.89c0-.08.07-.14.14-.13.08,0,.13.07.13.14l-.03.75h.79c.08,0,.14.06.14.14s-.06.14-.14.14Z"/>
        <path class="cls-1" d="m37.72,62.88c-.05,0-.1-.03-.13-.08l-.41-.98s-.01-.07,0-.11c.01-.03.04-.06.08-.07l.89-.33c.07-.03.15.01.18.08.03.07-.01.15-.08.18l-.76.28.36.84c.03.07,0,.15-.07.18-.02,0-.04.01-.05.01Z"/>
        <path class="cls-1" d="m37.03,63.16c-.06,0-.11-.04-.13-.09l-.5-1.53c-.02-.06,0-.13.06-.16l1.26-.74c.07-.04.15-.02.19.05.04.07.02.15-.05.19l-1.16.68.47,1.42c.02.07-.02.15-.09.17-.01,0-.03,0-.04,0Z"/>
      </g>
      <g>
        <path class="cls-1" d="m28.98,125.66c-.06,0-.12-.05-.13-.11l-1.65-8.37c-.01-.07.03-.15.11-.16.07-.01.15.03.16.11l1.65,8.37c.02.07-.03.15-.11.16,0,0-.02,0-.03,0Z"/>
        <path class="cls-1" d="m24.44,124.43s-.08-.02-.1-.05c-.05-.06-.04-.14.02-.19l7.02-5.9c.06-.05.14-.04.19.02.05.06.04.15-.02.19l-7.02,5.9s-.06.03-.09.03Z"/>
        <path class="cls-1" d="m32.01,122.78s-.03,0-.05,0l-7.85-2.75c-.07-.02-.11-.1-.08-.17.02-.07.1-.11.17-.08l7.85,2.75c.07.03.11.1.08.17-.02.06-.07.09-.13.09Z"/>
        <path class="cls-1" d="m29.46,123.12s-.05,0-.08-.02l-1.23-.81c-.06-.04-.08-.13-.04-.19.04-.06.13-.08.19-.04l.91.6-.33-1.07c-.02-.06,0-.12.06-.16l.96-.58-1.04-.2c-.06-.01-.1-.06-.11-.12l-.09-.83-.64.61s-.11.05-.16.02l-.93-.5.31,1.01c.02.07-.02.15-.09.17-.07.02-.15-.02-.17-.09l-.4-1.33c-.02-.05,0-.11.04-.15.04-.04.1-.04.15-.01l1.13.62.77-.73s.09-.05.14-.03c.05.02.08.06.09.11l.11,1.01,1.29.25c.06.01.1.05.11.11,0,.06-.02.11-.06.14l-1.17.71.41,1.33c.02.06,0,.12-.05.15-.02.02-.05.03-.08.03Z"/>
        <path class="cls-1" d="m27.4,123.4s-.03,0-.04,0c-.06-.02-.09-.07-.09-.13v-1.33s-1.39-.18-1.39-.18c-.06,0-.11-.05-.12-.11-.01-.06.02-.12.07-.15l1.24-.69c.07-.04.15-.01.19.05.04.07.01.15-.05.19l-.87.48,1.08.14c.07,0,.12.07.12.13v1.05s.65-.84.65-.84c.05-.06.13-.07.19-.03.06.05.07.13.03.19l-.88,1.15s-.07.05-.11.05Z"/>
        <path class="cls-1" d="m27.67,124.09s-.06,0-.08-.03c-.06-.05-.07-.13-.02-.19l.76-.96c.04-.06.12-.07.18-.03l1.03.69c.06.04.08.13.04.19-.04.06-.13.08-.19.04l-.93-.62-.68.86s-.07.05-.11.05Z"/>
        <path class="cls-1" d="m28.08,124.7s-.07-.01-.09-.03c-.06-.05-.06-.14-.01-.19l.55-.62c.05-.05.12-.06.18-.02l.69.46c.06.04.08.13.04.19-.04.06-.13.08-.19.04l-.59-.4-.47.53s-.06.05-.1.05Z"/>
        <path class="cls-1" d="m25.81,124.29s-.01,0-.02,0c-.08-.01-.13-.08-.12-.16l.16-1.04-1.01-.18c-.07-.01-.12-.09-.11-.16.01-.07.09-.12.16-.11l1.14.21c.07.01.12.08.11.16l-.18,1.17c-.01.07-.07.12-.14.12Z"/>
        <path class="cls-1" d="m26.64,123.74h0c-.08,0-.13-.07-.13-.15l.06-1.11-.91-.12c-.08,0-.13-.08-.12-.15,0-.08.08-.13.15-.12l1.03.14c.07,0,.12.07.12.14l-.07,1.24c0,.07-.07.13-.14.13Z"/>
        <path class="cls-1" d="m25.33,121.34s-.09-.03-.12-.07c-.04-.07-.01-.15.05-.19l.92-.52-.42-.95c-.03-.07,0-.15.07-.18.07-.03.15,0,.18.07l.48,1.06c.03.06,0,.14-.06.18l-1.03.58s-.04.02-.07.02Z"/>
        <path class="cls-1" d="m24.78,120.93s-.09-.02-.11-.06c-.04-.06-.03-.15.03-.19l.6-.43-.24-.65c-.03-.07.01-.15.08-.18.07-.03.15.01.18.08l.28.75c.02.06,0,.12-.05.16l-.69.49s-.05.03-.08.03Z"/>
        <path class="cls-1" d="m27.79,119.58s-.05,0-.08-.02l-1.08-.71c-.06-.04-.08-.13-.04-.19.04-.06.13-.08.19-.04l.97.64.7-.95c.04-.06.13-.08.19-.03.06.04.07.13.03.19l-.78,1.06s-.07.06-.11.06Z"/>
        <path class="cls-1" d="m27.61,118.64s-.05,0-.07-.02l-.77-.46c-.07-.04-.09-.12-.05-.19.04-.07.12-.09.19-.05l.67.4.46-.57c.05-.06.13-.07.19-.02.06.05.07.13.02.19l-.54.66s-.07.05-.11.05Z"/>
        <path class="cls-1" d="m29.32,120.3s-.08-.02-.1-.05c-.03-.03-.04-.07-.03-.11l.21-1.23c.01-.07.08-.12.16-.11.07.01.12.08.11.16l-.18,1.06,1.21-.05c.07,0,.14.06.14.13,0,.08-.06.14-.13.14l-1.38.06s0,0,0,0Z"/>
        <path class="cls-1" d="m30.97,119.69h-.94s-.07-.02-.1-.04c-.03-.03-.04-.06-.04-.1l.04-.89c0-.08.07-.14.14-.13.08,0,.13.07.13.14l-.03.75h.79c.08,0,.14.06.14.14s-.06.14-.14.14Z"/>
        <path class="cls-1" d="m30.91,123.19c-.05,0-.11-.03-.13-.08l-.41-.98s-.01-.07,0-.11c.01-.03.04-.06.08-.07l.9-.33c.07-.03.15.01.18.08.03.07-.01.15-.08.18l-.76.28.36.85c.03.07,0,.15-.07.18-.02,0-.04,0-.05,0Z"/>
        <path class="cls-1" d="m30.22,123.47c-.06,0-.11-.04-.13-.09l-.5-1.53c-.02-.06,0-.13.06-.16l1.26-.74c.07-.04.15-.02.19.05.04.07.02.15-.05.19l-1.16.68.47,1.42c.02.07-.02.15-.09.17-.01,0-.03,0-.04,0Z"/>
      </g>
      <g>
        <path class="cls-1" d="m118.46,49.82s-.09-.03-.1-.08l-1.23-6.25c-.01-.05.03-.11.08-.12.06-.01.11.03.12.08l1.23,6.25c.01.06-.03.11-.08.12,0,0-.01,0-.02,0Z"/>
        <path class="cls-1" d="m115.07,48.9s-.06-.01-.08-.04c-.04-.04-.03-.11.01-.14l5.24-4.4s.11-.03.14.01c.04.04.03.11-.01.15l-5.24,4.4s-.04.02-.07.02Z"/>
        <path class="cls-1" d="m120.72,47.67s-.02,0-.03,0l-5.85-2.05c-.05-.02-.08-.08-.06-.13.02-.05.08-.08.13-.06l5.85,2.05c.05.02.08.08.06.13-.01.04-.05.07-.1.07Z"/>
        <path class="cls-1" d="m118.82,47.93s-.04,0-.06-.02l-.92-.6s-.06-.09-.03-.14c.03-.05.09-.06.14-.03l.68.45-.24-.79s0-.09.04-.12l.72-.43-.78-.15s-.08-.04-.08-.09l-.07-.62-.48.46s-.08.04-.12.02l-.69-.38.23.75c.02.05-.01.11-.07.13-.05.02-.11-.01-.13-.07l-.3-.99s0-.08.03-.11c.03-.03.08-.03.11,0l.85.46.57-.55s.07-.04.11-.02c.04.01.06.05.07.08l.08.75.96.18s.07.04.08.08c0,.04,0,.08-.05.11l-.88.53.3.99s0,.09-.04.11c-.02.01-.04.02-.06.02Z"/>
        <path class="cls-1" d="m117.28,48.13s-.02,0-.03,0c-.04-.01-.07-.05-.07-.09v-1s-1.04-.13-1.04-.13c-.04,0-.08-.04-.09-.08,0-.04.01-.09.05-.11l.92-.51s.11,0,.14.04c.03.05,0,.11-.04.14l-.65.36.81.11c.05,0,.09.05.09.1v.79s.49-.62.49-.62c.03-.05.1-.05.14-.02s.05.1.02.14l-.66.86s-.05.04-.08.04Z"/>
        <path class="cls-1" d="m117.48,48.64s-.04,0-.06-.02c-.04-.04-.05-.1-.02-.14l.57-.72s.09-.05.14-.02l.77.51s.06.1.03.14c-.03.05-.09.06-.14.03l-.69-.46-.51.64s-.05.04-.08.04Z"/>
        <path class="cls-1" d="m117.79,49.11s-.05,0-.07-.03c-.04-.04-.05-.1,0-.14l.41-.46s.09-.05.13-.02l.51.35s.06.09.03.14c-.03.05-.09.06-.14.03l-.44-.3-.35.39s-.05.04-.08.04Z"/>
        <path class="cls-1" d="m116.09,48.8s-.01,0-.02,0c-.06,0-.09-.06-.09-.12l.12-.77-.75-.14c-.06,0-.09-.06-.08-.12.01-.05.06-.09.12-.08l.85.15c.06,0,.09.06.08.12l-.13.87c0,.05-.05.09-.1.09Z"/>
        <path class="cls-1" d="m116.71,48.39h0c-.06,0-.1-.05-.1-.11l.05-.83-.68-.09c-.05,0-.09-.06-.09-.11,0-.06.06-.1.12-.09l.77.1c.05,0,.09.05.09.11l-.05.92c0,.05-.05.1-.1.1Z"/>
        <path class="cls-1" d="m115.74,46.6s-.07-.02-.09-.05c-.03-.05-.01-.11.04-.14l.68-.39-.32-.71c-.02-.05,0-.11.05-.14.05-.02.11,0,.13.05l.36.79s0,.1-.04.13l-.77.44s-.03.01-.05.01Z"/>
        <path class="cls-1" d="m115.32,46.29s-.06-.01-.08-.04c-.03-.05-.02-.11.02-.14l.45-.32-.18-.48c-.02-.05,0-.11.06-.13.05-.02.11,0,.13.06l.2.56s0,.09-.04.12l-.51.36s-.04.02-.06.02Z"/>
        <path class="cls-1" d="m117.57,45.29s-.04,0-.06-.02l-.81-.53s-.06-.1-.03-.14c.03-.05.09-.06.14-.03l.72.48.52-.71s.1-.06.14-.02c.05.03.06.1.02.14l-.58.79s-.05.04-.08.04Z"/>
        <path class="cls-1" d="m117.44,44.58s-.04,0-.05-.01l-.57-.34s-.06-.09-.04-.14c.03-.05.09-.06.14-.04l.5.3.35-.43s.1-.05.14-.02c.04.04.05.1.02.14l-.4.49s-.05.04-.08.04Z"/>
        <path class="cls-1" d="m118.71,45.82s-.06-.01-.08-.03-.03-.05-.02-.09l.15-.91c0-.05.06-.09.12-.08.06,0,.09.06.08.12l-.13.79.9-.04c.06,0,.1.04.11.1,0,.06-.04.1-.1.11l-1.03.04h0Z"/>
        <path class="cls-1" d="m119.95,45.37h-.7s-.05-.01-.07-.03c-.02-.02-.03-.05-.03-.08l.03-.67c0-.06.05-.1.11-.1.06,0,.1.05.1.11l-.03.56h.59c.06,0,.1.04.1.1s-.05.1-.1.1Z"/>
        <path class="cls-1" d="m119.89,47.98s-.08-.02-.1-.06l-.31-.73s-.01-.05,0-.08c.01-.03.03-.05.06-.06l.67-.24c.05-.02.11,0,.13.06.02.05,0,.11-.06.13l-.57.21.27.63c.02.05,0,.11-.06.13-.01,0-.03,0-.04,0Z"/>
        <path class="cls-1" d="m119.38,48.18s-.08-.03-.1-.07l-.37-1.14s0-.1.05-.12l.94-.55s.11-.01.14.04c.03.05.01.11-.04.14l-.87.51.35,1.06c.02.05-.01.11-.07.13,0,0-.02,0-.03,0Z"/>
      </g>
      <g>
        <path class="cls-1" d="m44.92,32.98s-.09-.03-.1-.08l-1.23-6.25c-.01-.06.03-.11.08-.12.05-.01.11.02.12.08l1.23,6.25c.01.05-.03.11-.08.12,0,0-.01,0-.02,0Z"/>
        <path class="cls-1" d="m41.53,32.06s-.06-.01-.08-.04c-.04-.04-.03-.11.01-.15l5.24-4.4s.11-.03.14.01c.04.04.03.11-.01.14l-5.24,4.4s-.04.02-.07.02Z"/>
        <path class="cls-1" d="m47.18,30.83s-.02,0-.03,0l-5.85-2.05c-.05-.02-.08-.08-.06-.13s.08-.08.13-.06l5.85,2.05c.05.02.08.08.06.13-.02.04-.05.07-.1.07Z"/>
        <path class="cls-1" d="m45.28,31.09s-.04,0-.06-.02l-.92-.6s-.06-.09-.03-.14c.03-.05.09-.06.14-.03l.68.45-.24-.79s0-.09.04-.12l.71-.43-.78-.15s-.08-.04-.08-.09l-.07-.62-.48.45s-.08.04-.12.02l-.69-.38.23.75c.02.05-.01.11-.07.13-.05.02-.11-.01-.13-.07l-.3-.99s0-.08.03-.11c.03-.03.08-.03.11-.01l.85.46.57-.55s.07-.04.11-.02c.04.01.06.05.07.08l.08.75.96.18s.07.04.08.08c0,.04-.01.08-.05.11l-.88.53.3.99s0,.09-.04.11c-.02.01-.04.02-.06.02Z"/>
        <path class="cls-1" d="m43.74,31.29s-.02,0-.03,0c-.04-.01-.07-.05-.07-.1v-.99s-1.04-.13-1.04-.13c-.04,0-.08-.04-.09-.08,0-.04.01-.09.05-.11l.92-.51s.11,0,.14.04c.03.05,0,.11-.04.14l-.65.36.81.11s.09.05.09.1v.79s.49-.62.49-.62c.03-.05.1-.05.14-.02s.05.1.02.14l-.66.86s-.05.04-.08.04Z"/>
        <path class="cls-1" d="m43.94,31.8s-.04,0-.06-.02c-.04-.03-.05-.1-.02-.14l.57-.72s.09-.05.14-.02l.77.51s.06.09.03.14c-.03.05-.1.06-.14.03l-.69-.46-.51.64s-.05.04-.08.04Z"/>
        <path class="cls-1" d="m44.25,32.26s-.05,0-.07-.03c-.04-.04-.05-.1,0-.14l.41-.46s.09-.05.13-.02l.51.35s.06.09.03.14c-.03.05-.09.06-.14.03l-.44-.3-.35.39s-.05.03-.08.03Z"/>
        <path class="cls-1" d="m42.56,31.96s0,0-.01,0c-.06,0-.1-.06-.09-.12l.12-.77-.75-.14c-.06,0-.09-.06-.08-.12,0-.06.06-.09.12-.08l.85.15c.05,0,.09.06.08.12l-.13.87c0,.05-.05.09-.1.09Z"/>
        <path class="cls-1" d="m43.17,31.55h0c-.06,0-.1-.05-.1-.11l.05-.83-.67-.09c-.06,0-.1-.06-.09-.12,0-.06.06-.09.12-.09l.77.1c.05,0,.09.05.09.11l-.05.92c0,.05-.05.1-.1.1Z"/>
        <path class="cls-1" d="m42.2,29.75s-.07-.02-.09-.05c-.03-.05-.01-.11.04-.14l.68-.39-.32-.71c-.02-.05,0-.11.05-.13.05-.02.11,0,.14.05l.35.79s0,.1-.04.13l-.76.44s-.03.01-.05.01Z"/>
        <path class="cls-1" d="m41.79,29.45s-.06-.02-.08-.04c-.03-.05-.02-.11.02-.14l.45-.32-.18-.48c-.02-.05,0-.11.06-.13.05-.02.11,0,.13.06l.2.56s0,.09-.04.12l-.51.36s-.04.02-.06.02Z"/>
        <path class="cls-1" d="m44.03,28.44s-.04,0-.06-.02l-.81-.53s-.06-.09-.03-.14c.03-.05.1-.06.14-.03l.72.48.52-.71s.1-.06.14-.02c.04.03.06.1.02.14l-.58.79s-.05.04-.08.04Z"/>
        <path class="cls-1" d="m43.9,27.74s-.04,0-.05-.01l-.57-.34s-.06-.09-.04-.14c.03-.05.09-.06.14-.04l.5.3.35-.43s.1-.05.15-.02c.04.04.05.1.01.14l-.4.5s-.05.04-.08.04Z"/>
        <path class="cls-1" d="m45.18,28.98s-.06-.01-.08-.04c-.02-.02-.03-.05-.02-.09l.15-.91c0-.06.06-.09.12-.09.06,0,.09.06.08.12l-.13.79.9-.04c.06,0,.1.04.11.1,0,.06-.04.1-.1.11l-1.03.04h0Z"/>
        <path class="cls-1" d="m46.41,28.53h-.7s-.06-.01-.07-.03c-.02-.02-.03-.05-.03-.08l.03-.66c0-.06.05-.1.11-.1.06,0,.1.05.1.11l-.03.56h.59c.06,0,.1.05.1.1s-.05.1-.1.1Z"/>
        <path class="cls-1" d="m46.36,31.14s-.08-.02-.09-.06l-.31-.73s-.01-.06,0-.08c.01-.03.03-.05.06-.06l.67-.24c.05-.02.11,0,.13.06.02.05,0,.11-.06.13l-.57.21.27.63c.02.05,0,.11-.05.13-.01,0-.03,0-.04,0Z"/>
        <path class="cls-1" d="m45.84,31.34s-.08-.03-.1-.07l-.37-1.14s0-.1.05-.12l.94-.55s.11-.01.14.04c.03.05.01.11-.04.14l-.87.51.35,1.06c.02.05-.01.11-.07.13-.01,0-.02,0-.03,0Z"/>
      </g>
      <g>
        <path class="cls-1" d="m16.71,145.14s-.09-.03-.1-.08l-1.23-6.25c-.01-.06.02-.11.08-.12.05-.01.11.03.12.08l1.23,6.25c.01.06-.03.11-.08.12,0,0-.01,0-.02,0Z"/>
        <path class="cls-1" d="m13.32,144.22s-.06-.01-.08-.04c-.04-.04-.03-.11.01-.14l5.24-4.4s.11-.03.14.01c.04.04.03.11-.01.14l-5.24,4.4s-.04.02-.07.02Z"/>
        <path class="cls-1" d="m18.97,142.99s-.02,0-.03,0l-5.85-2.05c-.05-.02-.08-.08-.06-.13.02-.05.08-.08.13-.06l5.85,2.05c.05.02.08.08.06.13-.01.04-.05.07-.1.07Z"/>
        <path class="cls-1" d="m17.07,143.25s-.04,0-.06-.02l-.92-.6s-.06-.09-.03-.14c.03-.05.09-.06.14-.03l.68.45-.24-.8s0-.09.04-.12l.72-.43-.78-.15s-.08-.04-.08-.09l-.07-.62-.48.45s-.08.04-.12.02l-.69-.38.23.75c.02.05-.01.11-.07.13-.05.02-.11-.01-.13-.07l-.3-.99s0-.08.03-.11c.03-.03.08-.03.11-.01l.85.46.57-.55s.07-.04.11-.02c.04.01.06.05.07.08l.08.75.96.18s.07.04.08.08c0,.04-.01.08-.05.11l-.88.53.3.99s0,.09-.04.11c-.02.01-.04.02-.06.02Z"/>
        <path class="cls-1" d="m15.53,143.45s-.02,0-.03,0c-.04-.01-.07-.05-.07-.1v-.99s-1.04-.13-1.04-.13c-.04,0-.08-.04-.09-.08,0-.04.01-.09.05-.11l.92-.51s.11,0,.14.04c.03.05,0,.11-.04.14l-.65.36.81.11c.05,0,.09.05.09.1v.79s.49-.62.49-.62c.03-.04.1-.05.14-.02s.05.1.02.14l-.66.86s-.05.04-.08.04Z"/>
        <path class="cls-1" d="m15.73,143.96s-.04,0-.06-.02c-.04-.04-.05-.1-.02-.14l.57-.72s.09-.05.14-.02l.77.51s.06.09.03.14c-.03.05-.09.06-.14.03l-.69-.46-.51.64s-.05.04-.08.04Z"/>
        <path class="cls-1" d="m16.04,144.42s-.05,0-.07-.03c-.04-.04-.05-.1,0-.14l.41-.46s.09-.05.13-.02l.51.35s.06.1.03.14-.1.06-.14.03l-.44-.3-.35.39s-.05.03-.08.03Z"/>
        <path class="cls-1" d="m14.35,144.12s0,0-.02,0c-.06,0-.09-.06-.09-.12l.12-.77-.75-.14c-.06,0-.09-.06-.08-.12.01-.06.06-.09.12-.08l.85.15c.05,0,.09.06.08.12l-.13.87c0,.05-.05.09-.1.09Z"/>
        <path class="cls-1" d="m14.96,143.71h0c-.06,0-.1-.05-.1-.11l.05-.83-.68-.09c-.06,0-.1-.06-.09-.11,0-.06.06-.1.12-.09l.77.1c.05,0,.09.05.09.11l-.05.92c0,.05-.05.1-.1.1Z"/>
        <path class="cls-1" d="m13.99,141.92s-.07-.02-.09-.05c-.03-.05-.01-.11.04-.14l.68-.39-.32-.71c-.02-.05,0-.11.05-.13.05-.02.11,0,.14.05l.35.79s0,.1-.04.13l-.77.44s-.03.01-.05.01Z"/>
        <path class="cls-1" d="m13.58,141.61s-.06-.01-.08-.04c-.03-.05-.02-.11.02-.14l.45-.32-.18-.48c-.02-.05,0-.11.06-.13.05-.02.11,0,.13.06l.21.56s0,.09-.04.12l-.51.36s-.04.02-.06.02Z"/>
        <path class="cls-1" d="m15.82,140.61s-.04,0-.06-.02l-.81-.53s-.06-.09-.03-.14c.03-.05.09-.06.14-.03l.72.48.52-.71s.1-.06.14-.02c.05.03.06.1.02.14l-.58.79s-.05.04-.08.04Z"/>
        <path class="cls-1" d="m15.69,139.9s-.04,0-.05-.01l-.57-.34s-.06-.09-.04-.14c.03-.05.09-.06.14-.04l.5.29.35-.43s.1-.05.14-.01c.04.04.05.1.02.14l-.4.49s-.05.04-.08.04Z"/>
        <path class="cls-1" d="m16.96,141.14s-.06-.01-.08-.04c-.02-.02-.03-.05-.02-.08l.15-.91c0-.06.06-.09.12-.08.06,0,.09.06.08.12l-.13.79.9-.04c.06,0,.1.04.11.1,0,.06-.04.1-.1.11l-1.03.04s0,0,0,0Z"/>
        <path class="cls-1" d="m18.2,140.69h-.7s-.05-.01-.07-.03c-.02-.02-.03-.05-.03-.08l.03-.66c0-.06.05-.1.11-.1.06,0,.1.05.1.11l-.03.56h.59c.06,0,.1.05.1.1s-.05.1-.1.1Z"/>
        <path class="cls-1" d="m18.15,143.3s-.08-.02-.09-.06l-.31-.73s0-.05,0-.08c.01-.03.03-.05.06-.06l.67-.24c.05-.02.11,0,.13.06.02.05,0,.11-.06.13l-.57.21.27.63c.02.05,0,.11-.05.13-.01,0-.03,0-.04,0Z"/>
        <path class="cls-1" d="m17.63,143.5s-.08-.03-.1-.07l-.37-1.14s0-.1.05-.12l.94-.55s.11-.01.14.04c.03.05.01.11-.04.14l-.87.51.35,1.06c.02.05-.01.11-.07.13-.01,0-.02,0-.03,0Z"/>
      </g>
      <g>
        <path class="cls-1" d="m88.93,143.34s-.09-.03-.1-.08l-1.23-6.25c-.01-.06.02-.11.08-.12s.11.03.12.08l1.23,6.25c.01.06-.03.11-.08.12,0,0-.01,0-.02,0Z"/>
        <path class="cls-1" d="m85.54,142.41s-.06-.01-.08-.04c-.04-.04-.03-.11.01-.14l5.24-4.4s.11-.03.15.01c.04.04.03.11-.01.14l-5.24,4.4s-.04.02-.07.02Z"/>
        <path class="cls-1" d="m91.19,141.18s-.02,0-.03,0l-5.85-2.05c-.05-.02-.08-.08-.06-.13.02-.05.08-.08.13-.06l5.85,2.05c.05.02.08.08.06.13-.02.04-.06.07-.1.07Z"/>
        <path class="cls-1" d="m89.29,141.44s-.04,0-.06-.02l-.92-.6s-.06-.09-.03-.14c.03-.05.09-.06.14-.03l.68.45-.24-.79s0-.09.05-.12l.72-.43-.78-.15s-.08-.04-.08-.09l-.07-.62-.48.46s-.08.04-.12.02l-.69-.38.23.75c.02.05-.01.11-.07.13-.05.02-.11-.01-.13-.07l-.3-.99s0-.08.03-.11c.03-.03.08-.03.11,0l.85.46.57-.55s.07-.04.11-.02c.04.01.06.05.07.09l.08.75.96.18s.07.04.08.08c0,.04-.01.08-.05.11l-.88.53.31.99s0,.09-.04.11c-.02.01-.04.02-.06.02Z"/>
        <path class="cls-1" d="m87.75,141.64s-.02,0-.03,0c-.04-.01-.07-.05-.07-.1v-1s-1.04-.13-1.04-.13c-.04,0-.08-.04-.09-.08,0-.04.01-.09.05-.11l.92-.51s.11,0,.14.04c.03.05,0,.11-.04.14l-.65.36.81.11c.05,0,.09.05.09.1v.79s.49-.62.49-.62c.03-.04.1-.05.14-.02.05.03.05.1.02.14l-.66.86s-.05.04-.08.04Z"/>
        <path class="cls-1" d="m87.95,142.16s-.04,0-.06-.02c-.04-.04-.05-.1-.02-.14l.56-.72s.09-.05.14-.02l.77.51s.06.09.03.14c-.03.05-.1.06-.14.03l-.69-.46-.51.64s-.05.04-.08.04Z"/>
        <path class="cls-1" d="m88.26,142.62s-.05,0-.07-.03c-.04-.04-.05-.1,0-.14l.41-.46s.09-.05.13-.02l.51.35s.06.1.03.14c-.03.05-.1.06-.14.03l-.44-.3-.35.39s-.05.03-.08.03Z"/>
        <path class="cls-1" d="m86.56,142.31s-.01,0-.02,0c-.06,0-.09-.06-.09-.12l.12-.77-.75-.14c-.06,0-.09-.06-.08-.12.01-.06.06-.09.12-.08l.85.15c.05,0,.09.06.08.12l-.13.87c0,.05-.05.09-.1.09Z"/>
        <path class="cls-1" d="m87.18,141.9h0c-.06,0-.1-.05-.1-.11l.05-.83-.68-.09c-.06,0-.1-.06-.09-.12,0-.06.06-.09.12-.09l.77.1c.05,0,.09.05.09.11l-.05.92c0,.05-.05.1-.1.1Z"/>
        <path class="cls-1" d="m86.21,140.11s-.07-.02-.09-.05c-.03-.05-.01-.11.04-.14l.69-.39-.32-.71c-.02-.05,0-.11.05-.14.05-.02.11,0,.14.05l.35.79s0,.11-.04.13l-.77.44s-.03.01-.05.01Z"/>
        <path class="cls-1" d="m85.79,139.8s-.06-.02-.08-.04c-.03-.05-.02-.11.02-.14l.45-.32-.18-.48c-.02-.05,0-.11.06-.13.05-.02.11,0,.13.06l.21.56s0,.09-.04.12l-.51.36s-.04.02-.06.02Z"/>
        <path class="cls-1" d="m88.04,138.8s-.04,0-.06-.02l-.81-.53s-.06-.09-.03-.14c.03-.05.09-.06.14-.03l.72.48.52-.71s.1-.05.14-.02c.05.03.06.1.02.14l-.58.79s-.05.04-.08.04Z"/>
        <path class="cls-1" d="m87.91,138.09s-.04,0-.05-.01l-.57-.34s-.06-.09-.04-.14c.03-.05.09-.06.14-.04l.5.3.35-.43s.1-.05.14-.01c.04.04.05.1.01.14l-.4.5s-.05.04-.08.04Z"/>
        <path class="cls-1" d="m89.18,139.33s-.06-.01-.08-.03c-.02-.02-.03-.05-.03-.09l.16-.91c0-.06.06-.09.12-.08.06,0,.09.06.08.12l-.13.79.9-.04c.05,0,.1.04.11.1,0,.06-.04.1-.1.11l-1.03.04h0Z"/>
        <path class="cls-1" d="m90.42,138.88h-.7s-.06-.01-.07-.03c-.02-.02-.03-.05-.03-.08l.03-.66c0-.06.05-.1.11-.1.06,0,.1.05.1.11l-.03.56h.59c.06,0,.1.05.1.1s-.05.1-.1.1Z"/>
        <path class="cls-1" d="m90.36,141.49s-.08-.02-.09-.06l-.31-.73s0-.05,0-.08.03-.04.06-.06l.67-.24c.05-.02.11,0,.13.06.02.05,0,.11-.06.13l-.57.21.27.63c.02.05,0,.11-.05.13-.01,0-.03,0-.04,0Z"/>
        <path class="cls-1" d="m89.85,141.7s-.08-.03-.1-.07l-.37-1.14s0-.1.04-.12l.94-.55s.11-.01.14.04c.03.05.01.11-.04.14l-.87.51.35,1.06c.02.05-.01.11-.07.13-.01,0-.02,0-.03,0Z"/>
      </g>
      <g>
        <path class="cls-1" d="m122.14,103.54s-.09-.03-.1-.08l-1.23-6.25c-.01-.06.03-.11.08-.12.05-.01.11.03.12.08l1.23,6.25c.01.06-.03.11-.08.12,0,0-.01,0-.02,0Z"/>
        <path class="cls-1" d="m118.76,102.62s-.06-.01-.08-.04c-.04-.04-.03-.11.01-.14l5.24-4.4s.11-.03.14.01c.04.04.03.11-.01.14l-5.24,4.4s-.04.02-.07.02Z"/>
        <path class="cls-1" d="m124.4,101.39s-.02,0-.03,0l-5.85-2.05c-.05-.02-.08-.08-.06-.13.02-.05.08-.08.13-.06l5.85,2.05c.05.02.08.08.06.13-.01.04-.05.07-.1.07Z"/>
        <path class="cls-1" d="m122.5,101.64s-.04,0-.06-.02l-.92-.6s-.06-.09-.03-.14c.03-.05.09-.06.14-.03l.68.45-.24-.79s0-.09.04-.12l.72-.43-.78-.15s-.08-.04-.08-.09l-.07-.62-.48.46s-.08.04-.12.02l-.69-.38.23.75c.02.05-.01.11-.07.13-.05.02-.11-.01-.13-.07l-.3-.99s0-.08.03-.11c.03-.03.08-.03.11-.01l.85.46.57-.55s.07-.04.11-.02c.04.01.06.05.07.08l.08.75.96.18s.07.04.08.08c0,.04-.01.08-.05.11l-.87.53.3.99s0,.09-.04.11c-.02.01-.04.02-.06.02Z"/>
        <path class="cls-1" d="m120.96,101.85s-.02,0-.03,0c-.04-.01-.07-.05-.07-.1v-.99s-1.04-.13-1.04-.13c-.04,0-.08-.04-.09-.08,0-.04.01-.09.05-.11l.92-.51s.11,0,.14.04c.03.05,0,.11-.04.14l-.65.36.81.11c.05,0,.09.05.09.1v.79s.49-.62.49-.62c.03-.05.1-.05.14-.02.04.04.05.1.02.14l-.66.86s-.05.04-.08.04Z"/>
        <path class="cls-1" d="m121.17,102.36s-.04,0-.06-.02c-.04-.04-.05-.1-.02-.14l.56-.72s.09-.05.14-.02l.77.51s.06.1.03.14c-.03.05-.09.06-.14.03l-.69-.46-.51.64s-.05.04-.08.04Z"/>
        <path class="cls-1" d="m121.48,102.82s-.05,0-.07-.03c-.04-.04-.05-.1,0-.14l.41-.46s.09-.05.13-.02l.51.34s.06.1.03.14c-.03.05-.09.06-.14.03l-.44-.29-.35.39s-.05.03-.08.03Z"/>
        <path class="cls-1" d="m119.78,102.51s-.01,0-.02,0c-.06,0-.09-.06-.09-.12l.12-.77-.75-.14c-.06,0-.09-.06-.08-.12.01-.05.06-.09.12-.08l.85.15c.06,0,.09.06.08.12l-.13.87c0,.05-.05.09-.1.09Z"/>
        <path class="cls-1" d="m120.4,102.1h0c-.06,0-.1-.05-.1-.11l.05-.83-.68-.09c-.06,0-.09-.06-.09-.11,0-.06.06-.1.12-.09l.77.1c.05,0,.09.05.09.11l-.05.92c0,.05-.05.1-.1.1Z"/>
        <path class="cls-1" d="m119.42,100.31s-.07-.02-.09-.05c-.03-.05-.01-.11.04-.14l.68-.39-.32-.71c-.02-.05,0-.11.05-.14.05-.02.11,0,.13.05l.36.79s0,.1-.04.13l-.77.44s-.03.01-.05.01Z"/>
        <path class="cls-1" d="m119.01,100s-.07-.01-.08-.04c-.03-.05-.02-.11.02-.14l.45-.32-.18-.48c-.02-.05,0-.11.06-.13.05-.02.11,0,.13.06l.2.56s0,.09-.04.12l-.51.36s-.04.02-.06.02Z"/>
        <path class="cls-1" d="m121.26,99s-.04,0-.06-.02l-.81-.53s-.06-.1-.03-.14c.03-.05.09-.06.14-.03l.72.48.52-.71s.1-.06.14-.02c.05.03.05.1.02.14l-.58.79s-.05.04-.08.04Z"/>
        <path class="cls-1" d="m121.13,98.3s-.04,0-.05-.01l-.57-.34s-.06-.09-.04-.14c.03-.05.09-.06.14-.04l.5.3.35-.43s.1-.05.14-.01c.04.04.05.1.02.14l-.4.49s-.05.04-.08.04Z"/>
        <path class="cls-1" d="m122.4,99.54s-.06-.01-.08-.03c-.02-.02-.03-.05-.02-.09l.15-.91c0-.06.06-.09.12-.08.06,0,.09.06.08.12l-.13.79.9-.04c.06,0,.1.04.11.1,0,.06-.04.1-.1.11l-1.03.04h0Z"/>
        <path class="cls-1" d="m123.63,99.08h-.7s-.05-.01-.07-.03c-.02-.02-.03-.05-.03-.08l.03-.66c0-.06.05-.1.11-.1.06,0,.1.05.1.11l-.02.56h.59c.06,0,.1.05.1.1s-.05.1-.1.1Z"/>
        <path class="cls-1" d="m123.58,101.7s-.08-.02-.1-.06l-.31-.73s-.01-.05,0-.08c.01-.03.03-.05.06-.06l.67-.24c.05-.02.11,0,.13.06.02.05,0,.11-.06.13l-.57.21.27.63c.02.05,0,.11-.06.13-.01,0-.03,0-.04,0Z"/>
        <path class="cls-1" d="m123.07,101.9s-.08-.03-.1-.07l-.37-1.14s0-.1.05-.12l.94-.55s.11-.01.14.04c.03.05.01.11-.04.14l-.87.51.35,1.06c.02.05-.01.11-.07.13,0,0-.02,0-.03,0Z"/>
      </g>
      <g>
        <path class="cls-1" d="m14.9,51.26s-.09-.03-.1-.08l-1.23-6.25c-.01-.06.02-.11.08-.12.05-.01.11.03.12.08l1.23,6.25c.01.06-.03.11-.08.12,0,0-.01,0-.02,0Z"/>
        <path class="cls-1" d="m11.51,50.33s-.06-.01-.08-.04c-.04-.04-.03-.11.01-.14l5.24-4.4s.11-.03.14.01c.04.04.03.11-.01.14l-5.24,4.4s-.04.02-.07.02Z"/>
        <path class="cls-1" d="m17.16,49.11s-.02,0-.03,0l-5.85-2.05c-.05-.02-.08-.08-.06-.13.02-.05.08-.08.13-.06l5.85,2.05c.05.02.08.08.06.13-.01.04-.05.07-.1.07Z"/>
        <path class="cls-1" d="m15.26,49.36s-.04,0-.06-.02l-.92-.6s-.06-.09-.03-.14c.03-.05.09-.06.14-.03l.68.45-.24-.79s0-.09.05-.12l.71-.43-.78-.15s-.08-.04-.08-.09l-.07-.62-.48.46s-.08.04-.12.02l-.69-.38.23.75c.02.05-.01.11-.07.13-.05.02-.11-.01-.13-.07l-.3-.99s0-.08.03-.11c.03-.03.08-.03.11,0l.85.46.57-.55s.07-.04.11-.02c.04.01.06.05.07.09l.08.75.96.18s.07.04.08.08c0,.04-.01.08-.05.11l-.88.53.3.99s0,.09-.04.11c-.02.01-.04.02-.06.02Z"/>
        <path class="cls-1" d="m13.72,49.57s-.02,0-.03,0c-.04-.01-.07-.05-.07-.1v-.99s-1.04-.13-1.04-.13c-.04,0-.08-.04-.09-.08,0-.04.01-.09.05-.11l.92-.51s.11,0,.14.04c.03.05,0,.11-.04.14l-.65.36.81.11c.05,0,.09.05.09.1v.79s.49-.62.49-.62c.03-.04.1-.05.14-.02.04.03.05.1.02.14l-.66.86s-.05.04-.08.04Z"/>
        <path class="cls-1" d="m13.92,50.08s-.04,0-.06-.02c-.04-.04-.05-.1-.02-.14l.57-.72s.09-.05.14-.02l.77.51s.06.09.03.14c-.03.05-.09.06-.14.03l-.69-.46-.5.64s-.05.04-.08.04Z"/>
        <path class="cls-1" d="m14.23,50.54s-.05,0-.07-.03c-.04-.04-.05-.1,0-.14l.41-.46s.09-.05.13-.02l.51.35s.06.1.03.14c-.03.05-.1.06-.14.03l-.44-.3-.35.39s-.05.03-.08.03Z"/>
        <path class="cls-1" d="m12.54,50.23s0,0-.02,0c-.06,0-.09-.06-.09-.12l.12-.77-.75-.14c-.06,0-.09-.06-.08-.12,0-.06.06-.09.12-.08l.85.15c.05,0,.09.06.08.12l-.13.87c0,.05-.05.09-.1.09Z"/>
        <path class="cls-1" d="m13.15,49.82h0c-.06,0-.1-.05-.1-.11l.05-.83-.68-.09c-.06,0-.1-.06-.09-.12,0-.06.06-.09.12-.09l.77.1c.05,0,.09.05.09.11l-.05.92c0,.05-.05.1-.1.1Z"/>
        <path class="cls-1" d="m12.18,48.03s-.07-.02-.09-.05c-.03-.05-.01-.11.04-.14l.68-.39-.32-.71c-.02-.05,0-.11.05-.14.05-.02.11,0,.13.05l.36.79s0,.11-.04.13l-.77.44s-.03.01-.05.01Z"/>
        <path class="cls-1" d="m11.77,47.72s-.06-.02-.08-.04c-.03-.05-.02-.11.02-.14l.45-.32-.18-.48c-.02-.05,0-.11.06-.13.05-.02.11,0,.13.06l.21.56s0,.09-.04.12l-.51.36s-.04.02-.06.02Z"/>
        <path class="cls-1" d="m14.01,46.72s-.04,0-.06-.02l-.81-.53s-.06-.09-.03-.14c.03-.05.09-.06.14-.03l.72.48.52-.71s.1-.05.14-.02c.05.03.06.1.02.14l-.58.79s-.05.04-.08.04Z"/>
        <path class="cls-1" d="m13.88,46.02s-.04,0-.05-.01l-.57-.34s-.07-.09-.04-.14c.03-.05.09-.06.14-.04l.5.3.35-.43s.1-.05.14-.01c.04.04.05.1.02.14l-.4.5s-.05.04-.08.04Z"/>
        <path class="cls-1" d="m15.16,47.25s-.06-.01-.08-.03c-.02-.02-.03-.05-.02-.09l.15-.91c0-.06.06-.09.12-.08.06,0,.09.06.08.12l-.13.79.9-.04c.06,0,.1.04.11.1,0,.06-.04.1-.1.11l-1.03.04h0Z"/>
        <path class="cls-1" d="m16.39,46.8h-.7s-.05-.01-.07-.03c-.02-.02-.03-.05-.03-.08l.03-.67c0-.06.05-.1.11-.1.06,0,.1.05.1.11l-.03.56h.59c.06,0,.1.05.1.1s-.05.1-.1.1Z"/>
        <path class="cls-1" d="m16.34,49.41s-.08-.02-.09-.06l-.31-.73s0-.06,0-.08c.01-.03.03-.04.06-.06l.67-.24c.05-.02.11,0,.13.06.02.05,0,.11-.06.13l-.57.21.27.63c.02.05,0,.11-.05.13-.01,0-.03,0-.04,0Z"/>
        <path class="cls-1" d="m15.82,49.62s-.08-.03-.1-.07l-.37-1.14s0-.1.05-.12l.94-.55s.11-.01.14.04c.03.05.01.11-.04.14l-.87.51.35,1.06c.02.05-.01.11-.07.13-.01,0-.02,0-.03,0Z"/>
      </g>
      <g>
        <path class="cls-1" d="m104.14,88.51c-.1,0-.18-.07-.2-.17l-2.49-12.6c-.02-.11.05-.22.16-.24.11-.02.22.05.24.16l2.49,12.6c.02.11-.05.22-.16.24-.01,0-.03,0-.04,0Z"/>
        <path class="cls-1" d="m97.3,86.65c-.06,0-.12-.03-.16-.07-.07-.09-.06-.22.02-.29l10.56-8.88c.09-.07.22-.06.29.02.07.09.06.22-.02.29l-10.56,8.88s-.09.05-.13.05Z"/>
        <path class="cls-1" d="m108.7,84.17s-.05,0-.07-.01l-11.81-4.13c-.11-.04-.16-.16-.13-.26.04-.11.16-.16.26-.13l11.81,4.13c.11.04.16.16.13.26-.03.09-.11.14-.2.14Z"/>
        <path class="cls-1" d="m104.87,84.69s-.08-.01-.11-.03l-1.86-1.22c-.1-.06-.12-.19-.06-.29.06-.1.19-.12.29-.06l1.38.9-.49-1.6c-.03-.09,0-.19.09-.24l1.45-.88-1.57-.3c-.09-.02-.16-.09-.17-.18l-.14-1.25-.96.92c-.06.06-.16.07-.24.03l-1.4-.76.46,1.52c.03.11-.03.22-.14.26-.11.03-.22-.03-.26-.14l-.61-2c-.02-.08,0-.17.07-.22.06-.05.16-.06.23-.02l1.71.93,1.16-1.1c.06-.05.14-.07.21-.04.07.03.13.09.13.17l.17,1.52,1.95.37c.08.02.15.08.17.17.01.08-.02.17-.1.21l-1.77,1.07.61,2c.03.08,0,.17-.07.23-.04.03-.08.04-.12.04Z"/>
        <path class="cls-1" d="m101.76,85.1s-.04,0-.07-.01c-.08-.03-.14-.11-.14-.19l-.02-2.01-2.08-.27c-.09-.01-.16-.08-.18-.17-.02-.09.02-.18.1-.22l1.86-1.03c.1-.06.23-.02.28.08.06.1.02.23-.08.28l-1.32.73,1.63.21c.1.01.18.1.18.2l.02,1.59.97-1.26c.07-.09.2-.11.29-.04.09.07.11.2.04.29l-1.33,1.73c-.04.05-.1.08-.16.08Z"/>
        <path class="cls-1" d="m102.17,86.13s-.09-.01-.13-.04c-.09-.07-.11-.2-.03-.29l1.14-1.45c.07-.09.19-.1.28-.05l1.55,1.03c.1.06.12.19.06.29-.06.1-.19.12-.29.06l-1.39-.93-1.02,1.3c-.04.05-.1.08-.16.08Z"/>
        <path class="cls-1" d="m102.79,87.06s-.1-.02-.14-.05c-.08-.08-.09-.21-.02-.29l.83-.93c.07-.08.19-.09.27-.03l1.04.7c.09.06.12.19.06.29-.06.09-.19.12-.29.06l-.88-.6-.71.79s-.1.07-.15.07Z"/>
        <path class="cls-1" d="m99.38,86.44s-.02,0-.03,0c-.11-.02-.19-.12-.17-.24l.24-1.56-1.52-.27c-.11-.02-.19-.13-.17-.24.02-.11.13-.19.24-.17l1.72.31c.11.02.18.12.17.23l-.27,1.76c-.02.1-.1.18-.2.18Z"/>
        <path class="cls-1" d="m100.62,85.62s0,0-.01,0c-.12,0-.2-.1-.2-.22l.09-1.67-1.36-.18c-.11-.01-.19-.12-.18-.23.01-.11.12-.19.23-.18l1.55.21c.11.01.19.11.18.22l-.1,1.86c0,.11-.1.2-.21.2Z"/>
        <path class="cls-1" d="m98.65,82c-.07,0-.14-.04-.18-.1-.06-.1-.02-.23.08-.28l1.38-.79-.64-1.43c-.05-.1,0-.23.11-.27.1-.05.23,0,.27.1l.72,1.6c.04.1,0,.21-.09.26l-1.54.88s-.07.03-.1.03Z"/>
        <path class="cls-1" d="m97.82,81.38c-.06,0-.13-.03-.17-.09-.07-.09-.04-.22.05-.29l.91-.64-.36-.98c-.04-.11.02-.23.12-.27.11-.04.23.02.27.12l.41,1.13c.03.09,0,.19-.08.24l-1.04.73s-.08.04-.12.04Z"/>
        <path class="cls-1" d="m102.35,79.36s-.08-.01-.12-.04l-1.62-1.08c-.1-.06-.12-.19-.06-.29.06-.1.19-.12.29-.06l1.46.97,1.05-1.43c.07-.09.2-.11.29-.04.09.07.11.2.04.29l-1.17,1.59c-.04.05-.1.08-.17.08Z"/>
        <path class="cls-1" d="m102.08,77.94s-.07,0-.11-.03l-1.16-.69c-.1-.06-.13-.19-.07-.28.06-.1.19-.13.28-.07l1,.6.7-.86c.07-.09.2-.1.29-.03.09.07.1.2.03.29l-.81,1s-.1.08-.16.08Z"/>
        <path class="cls-1" d="m104.66,80.44c-.06,0-.12-.02-.15-.07-.04-.05-.06-.11-.05-.17l.31-1.84c.02-.11.13-.19.24-.17.11.02.19.13.17.24l-.27,1.59,1.82-.08c.11,0,.21.08.22.2,0,.11-.08.21-.2.22l-2.07.09h0Z"/>
        <path class="cls-1" d="m107.14,79.52h-1.41c-.06,0-.11-.02-.15-.06-.04-.04-.06-.1-.06-.15l.06-1.34c0-.11.1-.21.22-.2.11,0,.2.1.2.22l-.05,1.13h1.19c.12,0,.21.09.21.21s-.09.21-.21.21Z"/>
        <path class="cls-1" d="m107.04,84.79c-.08,0-.16-.05-.19-.13l-.62-1.47c-.02-.05-.02-.11,0-.16.02-.05.07-.09.12-.11l1.35-.49c.11-.04.23.02.27.12.04.11-.02.23-.12.26l-1.14.42.54,1.27c.04.11,0,.23-.11.27-.03.01-.05.02-.08.02Z"/>
        <path class="cls-1" d="m106,85.2c-.09,0-.17-.06-.2-.14l-.75-2.3c-.03-.09,0-.19.09-.24l1.89-1.11c.1-.06.23-.03.28.07.06.1.03.22-.07.28l-1.75,1.03.7,2.14c.04.11-.02.23-.13.26-.02,0-.04.01-.06.01Z"/>
      </g>
      <g>
        <path class="cls-1" d="m107.46,24.81c-.06,0-.12-.05-.13-.11l-1.65-8.37c-.01-.07.03-.15.11-.16.07-.01.15.03.16.11l1.65,8.37c.01.07-.04.15-.11.16,0,0-.02,0-.03,0Z"/>
        <path class="cls-1" d="m102.92,23.57s-.08-.02-.11-.05c-.05-.06-.04-.14.02-.19l7.02-5.9c.06-.05.14-.04.19.02.05.06.04.14-.02.19l-7.02,5.9s-.06.03-.09.03Z"/>
        <path class="cls-1" d="m110.49,21.93s-.03,0-.05,0l-7.85-2.75c-.07-.02-.11-.1-.08-.17.03-.07.1-.11.18-.08l7.85,2.75c.07.03.11.1.08.17-.02.06-.07.09-.13.09Z"/>
        <path class="cls-1" d="m107.94,22.27s-.05,0-.08-.02l-1.23-.81c-.06-.04-.08-.13-.04-.19.04-.06.13-.08.19-.04l.91.6-.33-1.07c-.02-.06,0-.12.06-.16l.96-.58-1.04-.2c-.06-.01-.1-.06-.11-.12l-.09-.83-.64.61s-.11.05-.16.02l-.93-.5.31,1.01c.02.07-.02.15-.09.17-.07.02-.15-.02-.17-.09l-.4-1.33c-.02-.05,0-.11.04-.15.04-.04.1-.04.15-.01l1.13.62.77-.73s.09-.05.14-.03c.05.02.08.06.09.11l.11,1.01,1.29.25c.06.01.1.06.11.11,0,.06-.02.11-.06.14l-1.17.71.41,1.33c.02.06,0,.12-.05.15-.02.02-.05.03-.08.03Z"/>
        <path class="cls-1" d="m105.88,22.54s-.03,0-.04,0c-.06-.02-.09-.07-.09-.13v-1.33s-1.39-.18-1.39-.18c-.06,0-.11-.05-.12-.11-.01-.06.02-.12.07-.15l1.24-.69c.07-.04.15-.01.19.05.04.07.01.15-.05.19l-.87.48,1.08.14c.07,0,.12.07.12.13v1.05s.65-.84.65-.84c.05-.06.13-.07.19-.03.06.05.07.13.03.19l-.88,1.15s-.07.05-.11.05Z"/>
        <path class="cls-1" d="m106.15,23.23s-.06,0-.08-.03c-.06-.05-.07-.13-.02-.19l.76-.96c.04-.06.12-.07.18-.03l1.03.69c.06.04.08.13.04.19-.04.06-.13.08-.19.04l-.93-.62-.68.86s-.07.05-.11.05Z"/>
        <path class="cls-1" d="m106.57,23.85s-.07-.01-.09-.04c-.06-.05-.06-.14-.01-.19l.55-.62c.05-.05.12-.06.18-.02l.69.46c.06.04.08.13.04.19-.04.06-.13.08-.19.04l-.59-.4-.47.53s-.07.05-.1.05Z"/>
        <path class="cls-1" d="m104.29,23.44s-.01,0-.02,0c-.08-.01-.13-.08-.12-.16l.16-1.03-1.01-.18c-.08-.01-.12-.09-.11-.16.01-.07.09-.12.16-.11l1.14.21c.07.01.12.08.11.16l-.18,1.17c-.01.07-.07.12-.14.12Z"/>
        <path class="cls-1" d="m105.12,22.89h0c-.08,0-.13-.07-.13-.15l.06-1.11-.91-.12c-.08-.01-.13-.08-.12-.15.01-.08.08-.13.16-.12l1.03.14c.07,0,.12.07.12.14l-.07,1.24c0,.07-.06.13-.14.13Z"/>
        <path class="cls-1" d="m103.81,20.48s-.09-.02-.12-.07c-.04-.07-.01-.15.05-.19l.92-.52-.42-.95c-.03-.07,0-.15.07-.18.07-.03.15,0,.18.07l.47,1.06c.03.06,0,.14-.06.17l-1.03.59s-.04.02-.07.02Z"/>
        <path class="cls-1" d="m103.26,20.07s-.08-.02-.11-.06c-.04-.06-.03-.15.03-.19l.6-.43-.24-.65c-.03-.07.01-.15.08-.18.07-.03.15,0,.18.08l.28.75c.02.06,0,.12-.05.16l-.69.49s-.05.03-.08.03Z"/>
        <path class="cls-1" d="m106.27,18.73s-.05,0-.08-.02l-1.08-.71c-.06-.04-.08-.13-.04-.19.04-.06.13-.08.19-.04l.97.64.7-.95c.04-.06.13-.08.19-.03.06.04.07.13.03.19l-.78,1.06s-.07.06-.11.06Z"/>
        <path class="cls-1" d="m106.09,17.78s-.05,0-.07-.02l-.77-.46c-.07-.04-.09-.12-.05-.19s.12-.09.19-.05l.67.4.46-.57c.05-.06.13-.07.19-.02.06.05.07.13.02.19l-.54.66s-.07.05-.11.05Z"/>
        <path class="cls-1" d="m107.8,19.44s-.08-.02-.1-.05c-.03-.03-.04-.07-.03-.11l.21-1.23c.01-.07.08-.12.16-.11.08.01.12.08.11.16l-.18,1.06,1.21-.05c.07,0,.14.06.14.13,0,.08-.06.14-.13.14l-1.38.06h0Z"/>
        <path class="cls-1" d="m109.46,18.84h-.93s-.07-.02-.1-.04c-.03-.03-.04-.06-.04-.1l.04-.89c0-.08.07-.14.14-.13.08,0,.13.07.13.14l-.04.75h.79c.08,0,.14.06.14.14s-.06.14-.14.14Z"/>
        <path class="cls-1" d="m109.39,22.34c-.05,0-.1-.03-.13-.08l-.41-.98s-.01-.07,0-.11c.01-.03.04-.06.08-.07l.9-.33c.07-.03.15,0,.18.08.03.07-.01.15-.08.18l-.76.28.36.85c.03.07,0,.15-.07.18-.02,0-.04.01-.05.01Z"/>
        <path class="cls-1" d="m108.7,22.61c-.06,0-.11-.04-.13-.09l-.5-1.53c-.02-.06,0-.13.06-.16l1.26-.74c.07-.04.15-.02.19.05.04.07.02.15-.05.19l-1.16.68.47,1.42c.02.07-.02.15-.09.17-.01,0-.03,0-.04,0Z"/>
      </g>
    </g>
  </g>
</svg>